<svg width="32" height="48" viewBox="0 0 32 48" fill="none" xmlns="http://www.w3.org/2000/svg">
<path d="M10.3212 20.4633V24.2662" stroke="#AFC7CF" stroke-width="1.5" stroke-linecap="round" stroke-linejoin="round"/>
<path d="M8.66904 21.423L11.9733 23.3065" stroke="#AFC7CF" stroke-width="1.5" stroke-linecap="round" stroke-linejoin="round"/>
<path d="M11.9733 21.423L8.66904 23.3065" stroke="#AFC7CF" stroke-width="1.5" stroke-linecap="round" stroke-linejoin="round"/>
<path d="M15.9159 20.4633V24.2662" stroke="#AFC7CF" stroke-width="1.5" stroke-linecap="round" stroke-linejoin="round"/>
<path d="M14.2629 21.423L17.5681 23.3065" stroke="#AFC7CF" stroke-width="1.5" stroke-linecap="round" stroke-linejoin="round"/>
<path d="M17.5681 21.423L14.2629 23.3065" stroke="#AFC7CF" stroke-width="1.5" stroke-linecap="round" stroke-linejoin="round"/>
<path d="M21.5096 20.4633V24.2662" stroke="#AFC7CF" stroke-width="1.5" stroke-linecap="round" stroke-linejoin="round"/>
<path d="M19.8575 21.423L23.1627 23.3065" stroke="#AFC7CF" stroke-width="1.5" stroke-linecap="round" stroke-linejoin="round"/>
<path d="M23.1627 21.423L19.8575 23.3065" stroke="#AFC7CF" stroke-width="1.5" stroke-linecap="round" stroke-linejoin="round"/>
<path d="M26.694 1.41815H5.4935C3.3915 1.41815 1.6875 2.91562 1.6875 4.76285V43.0735C1.6875 44.9207 3.3915 46.4182 5.4935 46.4182H26.694C28.796 46.4182 30.5 44.9207 30.5 43.0735V4.76285C30.5 2.91562 28.796 1.41815 26.694 1.41815Z" stroke="#AFC7CF" stroke-width="2" stroke-linecap="round" stroke-linejoin="round"/>
<path d="M26.9583 9.04706H5.22896V37.3631H26.9583V9.04706Z" stroke="#AFC7CF" stroke-width="1.5" stroke-linecap="round" stroke-linejoin="round"/>
<path d="M15.6009 5.30743H19.2523" stroke="#AFC7CF" stroke-width="1.5" stroke-linecap="round" stroke-linejoin="round"/>
<path d="M12.5795 5.30011H13.2223" stroke="#AFC7CF" stroke-width="1.5" stroke-linecap="round" stroke-linejoin="round"/>
<path d="M15.9159 43.2819C16.7502 43.2819 17.4266 42.6056 17.4266 41.7712C17.4266 40.9369 16.7502 40.2605 15.9159 40.2605C15.0815 40.2605 14.4051 40.9369 14.4051 41.7712C14.4051 42.6056 15.0815 43.2819 15.9159 43.2819Z" stroke="#AFC7CF" stroke-width="1.5" stroke-linecap="round" stroke-linejoin="round"/>
</svg>
