<svg width="41" height="41" viewBox="0 0 41 41" fill="none" xmlns="http://www.w3.org/2000/svg">
<path d="M32.3217 40.4182H0.922256C0.41335 40.4182 0.00622559 40.011 0.00622559 39.5021V1.33418C0.00622559 0.825277 0.41335 0.418152 0.922256 0.418152H32.3217C32.8306 0.418152 33.2378 0.825277 33.2378 1.33418V20.4181C33.2378 20.9271 32.8306 21.3342 32.3217 21.3342C31.8128 21.3342 31.4057 20.9271 31.4057 20.4181V3.3011C31.4057 2.74882 30.958 2.3011 30.4057 2.3011H2.88918C2.33689 2.3011 1.88918 2.74882 1.88918 3.3011V37.5861C1.88918 38.1384 2.33689 38.5861 2.88918 38.5861H30.4057C30.958 38.5861 31.4057 38.1384 31.4057 37.5861V35.6853C31.4057 35.1764 31.8128 34.7693 32.3217 34.7693C32.8306 34.7693 33.2378 35.1764 33.2378 35.6853V39.5021C33.2378 40.011 32.8306 40.4182 32.3217 40.4182Z" fill="#AFC7CF"/>
<path d="M27.7924 10.6981H5.45148C5.04436 10.6981 4.73901 10.3927 4.73901 9.98559V6.27057C4.73901 5.86345 5.04436 5.55811 5.45148 5.55811H27.7924C28.1996 5.55811 28.5049 5.86345 28.5049 6.27057V9.98559C28.5049 10.3927 28.1996 10.6981 27.7924 10.6981ZM6.16395 8.32401C6.16395 8.87629 6.61166 9.32401 7.16395 9.32401H26.08C26.6323 9.32401 27.08 8.87629 27.08 8.32401V7.98304C27.08 7.43076 26.6323 6.98304 26.08 6.98304H7.16395C6.61167 6.98304 6.16395 7.43076 6.16395 7.98304V8.32401Z" fill="#AFC7CF"/>
<path d="M27.7924 18.9932H5.45148C5.04436 18.9932 4.73901 18.6879 4.73901 18.2808V14.5657C4.73901 14.1586 5.04436 13.8533 5.45148 13.8533H27.7924C28.1996 13.8533 28.5049 14.1586 28.5049 14.5657V18.2808C28.5049 18.6879 28.1996 18.9932 27.7924 18.9932ZM6.16395 16.6192C6.16395 17.1715 6.61166 17.6192 7.16395 17.6192H26.08C26.6323 17.6192 27.08 17.1715 27.08 16.6192V16.2782C27.08 15.7259 26.6323 15.2782 26.08 15.2782H7.16395C6.61167 15.2782 6.16395 15.7259 6.16395 16.2782V16.6192Z" fill="#AFC7CF"/>
<path d="M20.5696 35.838H6.08062C5.69185 35.838 5.40027 35.5327 5.40027 35.1255V30.9525C5.40027 30.5454 5.69185 30.2401 6.08062 30.2401H20.5696C20.9584 30.2401 21.25 30.5454 21.25 30.9525V35.1255C21.2014 35.5327 20.9098 35.838 20.5696 35.838Z" fill="#AFC7CF"/>
<path d="M27.8433 27.2884H5.50239C5.09526 27.2884 4.78992 26.983 4.78992 26.5759V22.8609C4.78992 22.4538 5.09526 22.1484 5.50239 22.1484H27.8433C28.2505 22.1484 28.5558 22.4538 28.5558 22.8609V26.5759C28.5558 26.983 28.1996 27.2884 27.8433 27.2884ZM6.21485 25.9143H27.1309V23.5734H6.21485V25.9143Z" fill="#AFC7CF"/>
<path fill-rule="evenodd" clip-rule="evenodd" d="M32.3026 36.4996C36.7995 36.4996 40.4451 32.8541 40.4451 28.3571C40.4451 23.8601 36.7995 20.2146 32.3026 20.2146C27.8056 20.2146 24.1601 23.8601 24.1601 28.3571C24.1601 32.8541 27.8056 36.4996 32.3026 36.4996ZM31.3224 24.0638C31.3224 23.5225 31.7613 23.0836 32.3027 23.0836C32.844 23.0836 33.2829 23.5225 33.2829 24.0638V27.422H36.8956C37.412 27.422 37.8307 27.8406 37.8307 28.3571C37.8307 28.8735 37.412 29.2922 36.8956 29.2922H33.2829V32.6504C33.2829 33.1918 32.844 33.6306 32.3027 33.6306C31.7613 33.6306 31.3224 33.1918 31.3224 32.6504V29.2922H27.7098C27.1934 29.2922 26.7747 28.8735 26.7747 28.3571C26.7747 27.8406 27.1934 27.422 27.7098 27.422H31.3224V24.0638Z" fill="#AFC7CF"/>
</svg>
