<svg width="45" height="42" viewBox="0 0 45 42" fill="none" xmlns="http://www.w3.org/2000/svg">
<path d="M35.5188 41.2605C35.3343 41.2605 35.157 41.1786 35.0371 41.0342L30.3362 34.4883L0.674035 34.4884C0.328054 34.4884 0.0480957 34.2085 0.0480957 33.8625V1.20791C0.0480957 0.861929 0.328054 0.58197 0.674035 0.58197H44.3741C44.72 0.58197 45 0.861929 45 1.20791V33.8623C45 34.2083 44.72 34.4883 44.3741 34.4883H40.3674L36.0836 40.9045C35.9908 41.097 35.8074 41.2291 35.5958 41.2554C35.5702 41.2586 35.5445 41.2605 35.5188 41.2605ZM1.86743 32.6133H30.9021C31.088 32.6133 31.2651 32.6964 31.3838 32.8395L35.5188 38.582L39.1952 32.9691C39.299 32.7514 39.5192 32.6133 39.76 32.6133H43.2424V2.33203H1.86743V32.6133Z" fill="#AFC7CF"/>
<path d="M39.0177 28.5749H5.33346C4.98748 28.5749 4.70752 28.2949 4.70752 27.949V19.7238C4.70752 19.3778 4.98748 19.0978 5.33346 19.0978H39.0177C39.3637 19.0978 39.6437 19.3778 39.6437 19.7238V27.949C39.6438 28.2949 39.3637 28.5749 39.0177 28.5749ZM5.9594 27.323H38.3918V20.3499H5.9594V27.323Z" fill="#AFC7CF"/>
<path d="M39.4531 15.6566H5.76882C5.42284 15.6566 5.14288 15.3766 5.14288 15.0306V6.80544C5.14288 6.45946 5.42284 6.1795 5.76882 6.1795H39.4531C39.7991 6.1795 40.079 6.45946 40.079 6.80544V15.0306C40.079 15.3766 39.7991 15.6566 39.4531 15.6566ZM6.39476 14.4047H38.8271V7.43155H6.39476V14.4047Z" fill="#AFC7CF"/>
<path d="M10.4882 9.03094V12.8339" stroke="#AFC7CF" stroke-width="1.5" stroke-linecap="round" stroke-linejoin="round"/>
<path d="M8.83594 9.9906L12.1402 11.8742" stroke="#AFC7CF" stroke-width="1.5" stroke-linecap="round" stroke-linejoin="round"/>
<path d="M12.1402 9.9906L8.83594 11.8742" stroke="#AFC7CF" stroke-width="1.5" stroke-linecap="round" stroke-linejoin="round"/>
<path d="M18.3007 9.03094V12.8339" stroke="#AFC7CF" stroke-width="1.5" stroke-linecap="round" stroke-linejoin="round"/>
<path d="M16.6484 9.9906L19.9527 11.8742" stroke="#AFC7CF" stroke-width="1.5" stroke-linecap="round" stroke-linejoin="round"/>
<path d="M19.9527 9.9906L16.6484 11.8742" stroke="#AFC7CF" stroke-width="1.5" stroke-linecap="round" stroke-linejoin="round"/>
<path d="M26.0507 9.0022V12.8052" stroke="#AFC7CF" stroke-width="1.5" stroke-linecap="round" stroke-linejoin="round"/>
<path d="M24.3984 9.96191L27.7027 11.8455" stroke="#AFC7CF" stroke-width="1.5" stroke-linecap="round" stroke-linejoin="round"/>
<path d="M27.7027 9.96191L24.3984 11.8455" stroke="#AFC7CF" stroke-width="1.5" stroke-linecap="round" stroke-linejoin="round"/>
<path d="M33.8632 9.0022V12.8052" stroke="#AFC7CF" stroke-width="1.5" stroke-linecap="round" stroke-linejoin="round"/>
<path d="M32.2109 9.96191L35.5152 11.8455" stroke="#AFC7CF" stroke-width="1.5" stroke-linecap="round" stroke-linejoin="round"/>
<path d="M35.5152 9.96191L32.2109 11.8455" stroke="#AFC7CF" stroke-width="1.5" stroke-linecap="round" stroke-linejoin="round"/>
<path d="M10.4882 21.9493V25.7522" stroke="#AFC7CF" stroke-width="1.5" stroke-linecap="round" stroke-linejoin="round"/>
<path d="M8.83594 22.9089L12.1402 24.7925" stroke="#AFC7CF" stroke-width="1.5" stroke-linecap="round" stroke-linejoin="round"/>
<path d="M12.1402 22.9089L8.83594 24.7925" stroke="#AFC7CF" stroke-width="1.5" stroke-linecap="round" stroke-linejoin="round"/>
<path d="M18.3007 21.9493V25.7522" stroke="#AFC7CF" stroke-width="1.5" stroke-linecap="round" stroke-linejoin="round"/>
<path d="M16.6484 22.9089L19.9527 24.7925" stroke="#AFC7CF" stroke-width="1.5" stroke-linecap="round" stroke-linejoin="round"/>
<path d="M19.9527 22.9089L16.6484 24.7925" stroke="#AFC7CF" stroke-width="1.5" stroke-linecap="round" stroke-linejoin="round"/>
<path d="M26.0507 21.9205V25.7235" stroke="#AFC7CF" stroke-width="1.5" stroke-linecap="round" stroke-linejoin="round"/>
<path d="M24.3984 22.8802L27.7027 24.7638" stroke="#AFC7CF" stroke-width="1.5" stroke-linecap="round" stroke-linejoin="round"/>
<path d="M27.7027 22.8802L24.3984 24.7638" stroke="#AFC7CF" stroke-width="1.5" stroke-linecap="round" stroke-linejoin="round"/>
<path d="M33.8632 21.9205V25.7235" stroke="#AFC7CF" stroke-width="1.5" stroke-linecap="round" stroke-linejoin="round"/>
<path d="M32.2109 22.8802L35.5152 24.7638" stroke="#AFC7CF" stroke-width="1.5" stroke-linecap="round" stroke-linejoin="round"/>
<path d="M35.5152 22.8802L32.2109 24.7638" stroke="#AFC7CF" stroke-width="1.5" stroke-linecap="round" stroke-linejoin="round"/>
</svg>
