<svg width="54" height="62" viewBox="0 0 54 62" fill="none" xmlns="http://www.w3.org/2000/svg">
<path fill-rule="evenodd" clip-rule="evenodd" d="M5.37504 47.2708C2.02698 42.2478 0.245343 36.344 0.255906 30.3075V9.09369L27 0.172607L53.7442 9.09369V30.3075C53.7548 36.344 51.9731 42.2478 48.6251 47.2708C45.277 52.2937 40.5132 56.2098 34.9373 58.5226L27 61.8274L19.0628 58.5226C13.4869 56.2098 8.72311 52.2937 5.37504 47.2708ZM27 8.2245L7.89709 14.5953V30.3075C7.88842 34.836 9.22455 39.2651 11.7361 43.0332C14.2477 46.8014 17.8215 49.739 22.0046 51.4736L27 53.5558L31.9955 51.4736C36.1786 49.739 39.7524 46.8014 42.264 43.0332C44.7756 39.2651 46.1117 34.836 46.103 30.3075V14.5953L27 8.2245ZM23.1793 46.2299V37.9202C20.6302 37.0189 18.4817 35.2455 17.1137 32.9133C15.7456 30.5812 15.246 27.8405 15.7032 25.1757C16.1604 22.5108 17.545 20.0934 19.6122 18.3507C21.6794 16.608 24.2962 15.6521 26.9999 15.6521C29.7037 15.6521 32.3205 16.608 34.3877 18.3507C36.4549 20.0934 37.8394 22.5108 38.2966 25.1757C38.7539 27.8405 38.2543 30.5812 36.8862 32.9133C35.5182 35.2455 33.3697 37.0189 30.8205 37.9202V46.2299H23.1793ZM29.1225 23.9503C28.4943 23.5305 27.7556 23.3064 26.9999 23.3064C25.9867 23.3064 25.0149 23.7089 24.2984 24.4254C23.5819 25.1419 23.1793 26.1137 23.1793 27.127C23.1793 27.8826 23.4034 28.6213 23.8232 29.2496C24.243 29.8779 24.8397 30.3676 25.5379 30.6568C26.236 30.9459 27.0042 31.0216 27.7453 30.8742C28.4864 30.7267 29.1672 30.3629 29.7015 29.8286C30.2358 29.2942 30.5997 28.6135 30.7471 27.8723C30.8945 27.1312 30.8189 26.363 30.5297 25.6649C30.2405 24.9668 29.7508 24.3701 29.1225 23.9503Z"/>
</svg>
