<svg width="16" height="17" viewBox="0 0 16 17" fill="none" xmlns="http://www.w3.org/2000/svg">
<path d="M8 0.641846C3.71875 0.641846 0.25 4.14185 0.25 8.39185C0.25 12.6731 3.71875 16.1418 8 16.1418C12.25 16.1418 15.75 12.6731 15.75 8.39185C15.75 4.14185 12.25 0.641846 8 0.641846ZM11.6562 11.4856C11.5938 11.5481 10.4062 12.9231 8.21875 12.9231C5.5625 12.9231 3.6875 10.9543 3.6875 8.3606C3.6875 5.82935 5.625 3.89185 8.1875 3.89185C10.2812 3.89185 11.375 5.0481 11.4062 5.1106C11.4688 5.1731 11.5312 5.26685 11.5312 5.3606C11.5312 5.4231 11.5 5.51685 11.4688 5.57935L10.75 6.64185C10.625 6.82935 10.375 6.89185 10.1875 6.70435C10.1875 6.70435 9.375 5.9856 8.25 5.9856C6.8125 5.9856 5.9375 7.01685 5.9375 8.3606C5.9375 9.57935 6.75 10.8293 8.28125 10.8293C9.46875 10.8293 10.3125 9.95435 10.3125 9.95435C10.4688 9.76685 10.75 9.7981 10.9062 9.9856L11.6562 11.0168C11.7188 11.0793 11.7188 11.1731 11.7188 11.2356C11.7188 11.3293 11.6875 11.4231 11.6562 11.4856Z" fill="#3B5ADC"/>
</svg>
