<?xml version="1.0" encoding="utf-8"?><svg width="124" height="64" viewBox="0 0 124 64" xmlns="http://www.w3.org/2000/svg" xmlns:xlink="http://www.w3.org/1999/xlink"><view id="browsers--brave" viewBox="0 0 27.22 32"/><svg preserveAspectRatio="xMidYMid" viewBox="0 0 256 301" width="27.22" height="32" xmlns="http://www.w3.org/2000/svg"><defs><linearGradient id="aa" x1="0%" x2="100.097%" y1="50.018%" y2="50.018%"><stop offset="0%" stop-color="#FFF"/><stop offset="14.13%" stop-color="#FFF" stop-opacity=".958"/><stop offset="100%" stop-color="#FFF" stop-opacity=".7"/></linearGradient><linearGradient id="ab" x1="-.039%" x2="100%" y1="49.982%" y2="49.982%"><stop offset="0%" stop-color="#F1F1F2"/><stop offset="9.191%" stop-color="#E4E5E6"/><stop offset="23.57%" stop-color="#D9DADB"/><stop offset="43.8%" stop-color="#D2D4D5"/><stop offset="100%" stop-color="#D0D2D3"/></linearGradient></defs><path fill="#F15A22" d="M256 97.1L246.7 72l6.4-14.4c.8-1.9.4-4-1-5.5l-17.5-17.7c-7.7-7.7-19.1-10.4-29.4-6.8l-4.9 1.7-26.8-29-45.3-.3h-.3L82.3.4 55.6 29.6l-4.8-1.7c-10.4-3.7-21.9-1-29.6 6.9l-17.8 18c-1.2 1.2-1.5 2.9-.9 4.4l6.7 15L0 97.3 6 120l27.2 103.3c3.1 11.9 10.3 22.3 20.4 29.5 0 0 33 23.3 65.5 44.4 2.9 1.9 5.9 3.2 9.1 3.2 3.2 0 6.2-1.3 9.1-3.2 36.6-24 65.5-44.5 65.5-44.5 10-7.2 17.2-17.6 20.3-29.5l27-103.3 5.9-22.8z"/><path fill="url(#aa)" d="M34.5 227.7L0 99.5l10.1-25.1-7-18.6 16.7-17c5.5-4.9 16.3-6.6 21.3-3.7l26.1 15 34 7.9 26.5-11 2.2 227.7c-.4 32.8 1.7 29.3-22.4 13.8L48 248.6c-6.4-6.1-11.3-13-13.5-20.9z" opacity=".15" style="mix-blend-mode:lighten"/><path fill="url(#ab)" d="M202.2 252.246l-50.6 34.6c-14.1 7.7-20.9 15.3-22 11.6-.9-2.9-.2-11.4-.5-24.6l-.6-222.7c.1-2.2 1.6-5.9 4.2-5.5l25.8 7.8 37.2-5.8 24.6-18.1c2.6-2 6.4-1.8 8.8.5l22 21c2 2.1 2.1 6.2.9 8.8l-6.1 11.3 10.1 26.1-34.8 129.4c-5.4 16.1-13 20.3-19 25.6z" opacity=".4" style="mix-blend-mode:darken"/><path fill="#FFF" d="M134 184.801c-1.2-.5-2.5-.9-2.9-.9h-3.2c-.4 0-1.7.4-2.9.9l-13 5.4c-1.2.5-3.2 1.4-4.4 2l-19.6 10.2c-1.2.6-1.3 1.7-.2 2.5l17.3 12.2c1.1.8 2.8 2.1 3.8 3l7.7 6.6c1 .9 2.6 2.3 3.6 3.2l7.4 6.6c1 .9 2.6.9 3.6 0l7.6-6.6c1-.9 2.6-2.3 3.6-3.2l7.7-6.7c1-.9 2.7-2.2 3.8-3l17.3-12.3c1.1-.8 1-1.9-.2-2.5l-19.6-10c-1.2-.6-3.2-1.5-4.4-2l-13-5.4z"/><path fill="#FFF" d="M227.813 101.557c.4-1.3.4-1.8.4-1.8 0-1.3-.1-3.5-.3-4.8l-1-2.9c-.6-1.2-1.6-3.1-2.4-4.2l-11.3-16.7c-.7-1.1-2-2.8-2.9-3.9l-14.6-18.3c-.8-1-1.6-1.9-1.7-1.8h-.2s-1.1.2-2.4.4l-22.3 4.4c-1.3.3-3.4.7-4.7.9l-.4.1c-1.3.2-3.4.1-4.7-.3l-18.7-6c-1.3-.4-3.4-1-4.6-1.3 0 0-3.8-.9-6.9-.8-3.1 0-6.9.8-6.9.8-1.3.3-3.4.9-4.6 1.3l-18.7 6c-1.3.4-3.4.5-4.7.3l-.4-.1c-1.3-.2-3.4-.7-4.7-.9l-22.5-4.2c-1.3-.3-2.4-.4-2.4-.4h-.2c-.1 0-.9.8-1.7 1.8l-14.6 18.3c-.8 1-2.1 2.8-2.9 3.9l-11.3 16.7c-.7 1.1-1.8 3-2.4 4.2l-1 2.9c-.2 1.3-.4 3.5-.3 4.8 0 0 0 .4.4 1.8.7 2.4 2.4 4.6 2.4 4.6.8 1 2.3 2.7 3.2 3.6l33.1 35.2c.9 1 1.2 2.8.7 4l-6.9 16.3c-.5 1.2-.6 3.2-.1 4.5l1.9 5.1c1.6 4.3 4.3 8.1 7.9 11l6.7 5.4c1 .8 2.8 1.1 4 .5l21.2-10.1c1.2-.6 3-1.8 4-2.7l15.2-13.7c2.2-2 2.3-5.4.3-7.6l-31.9-21.5c-1.1-.7-1.5-2.3-.9-3.5l14-26.4c.6-1.2.7-3.1.2-4.3l-1.7-3.9c-.5-1.2-2-2.6-3.2-3.1l-41.1-15.4c-1.2-.5-1.2-1 .1-1.1l26.5-2.5c1.3-.1 3.4.1 4.7.4l23.6 6.6c1.3.4 2.1 1.7 1.9 3l-8.2 44.9c-.2 1.3-.2 3.1.1 4.1.3 1 1.6 1.9 2.9 2.2l16.4 3.5c1.3.3 3.4.3 4.7 0l15.3-3.5c1.3-.3 2.6-1.3 2.9-2.2.3-.9.4-2.8.1-4.1l-8.1-44.9c-.2-1.3.6-2.7 1.9-3l23.6-6.6c1.3-.4 3.4-.5 4.7-.4l26.5 2.5c1.3.1 1.4.6.1 1.1l-41.1 15.6c-1.2.5-2.7 1.8-3.2 3.1l-1.7 3.9c-.5 1.2-.5 3.2.2 4.3l14.1 26.4c.6 1.2.2 2.7-.9 3.5l-31.9 21.6c-2.1 2.1-1.9 5.6.3 7.6l15.2 13.7c1 .9 2.8 2.1 4 2.6l21.3 10.1c1.2.6 3 .3 4-.5l6.7-5.5c3.6-2.9 6.3-6.7 7.8-11l1.9-5.1c.5-1.2.4-3.3-.1-4.5l-6.9-16.3c-.5-1.2-.2-3 .7-4l33.1-35.2c.9-1 2.3-2.6 3.2-3.6-.2-.3 1.6-2.5 2.2-4.9z"/></svg><view id="browsers--chrome" viewBox="27.22 0 32 32"/><svg viewBox="1 1 176 176" width="32" height="32" x="27.22" xmlns="http://www.w3.org/2000/svg"><style>.bB{clip-path:url(#bC)}.bC{fill:#3e2723}.bD{fill-opacity:.15}.bE{fill-opacity:.2}</style><defs><circle id="bA" cx="96" cy="96" r="88"/><path id="bB" d="M8 184h83.77l38.88-38.88V116h-69.3L8 24.48z"/></defs><clipPath id="bC"><use xlink:href="#bA"/></clipPath><g class="bB" transform="translate(-7 -7)"><path d="M21.97 8v108h39.4L96 56h88V8z" fill="#db4437"/><linearGradient id="bD" x1="29.34" x2="81.84" y1="75.02" y2="44.35" gradientUnits="userSpaceOnUse"><stop stop-color="#a52714" stop-opacity=".6" offset="0"/><stop stop-color="#a52714" stop-opacity="0" offset=".66"/></linearGradient><path d="M21.97 8v108h39.4L96 56h88V8z" fill="url(#bD)"/><path d="M62.3 115.6L22.48 47.3l-.58 1 39.54 67.8z" class="bC bD"/><use xlink:href="#bB" fill="#0f9d58"/><linearGradient id="bE" x1="110.9" x2="52.54" y1="164.5" y2="130.3" gradientUnits="userSpaceOnUse"><stop stop-color="#055524" stop-opacity=".4" offset="0"/><stop stop-color="#055524" stop-opacity="0" offset=".33"/></linearGradient><path d="M8 184h83.77l38.88-38.88V116h-69.3L8 24.48z" fill="url(#bE)"/><path d="M129.8 117.3l-.83-.48-38.4 67.15h1.15l38.1-66.64z" fill="#263238" class="bD"/><defs><path id="bF" d="M8 184h83.77l38.88-38.88V116h-69.3L8 24.48z"/></defs><clipPath id="bG"><use xlink:href="#bF"/></clipPath><g clip-path="url(#bG)"><path d="M96 56l34.65 60-38.88 68H184V56z" fill="#ffcd40"/><linearGradient id="bH" x1="121.9" x2="136.6" y1="49.8" y2="114.1" gradientUnits="userSpaceOnUse"><stop stop-color="#ea6100" stop-opacity=".3" offset="0"/><stop stop-color="#ea6100" stop-opacity="0" offset=".66"/></linearGradient><path d="M96 56l34.65 60-38.88 68H184V56z" fill="url(#bH)"/></g><path d="M96 56l34.65 60-38.88 68H184V56z" fill="#ffcd40"/><path d="M96 56l34.65 60-38.88 68H184V56z" fill="url(#bH)"/><defs><path id="bI" d="M96 56l34.65 60-38.88 68H184V56z"/></defs><clipPath id="bJ"><use xlink:href="#bI"/></clipPath><g clip-path="url(#bJ)"><path d="M21.97 8v108h39.4L96 56h88V8z" fill="#db4437"/><path d="M21.97 8v108h39.4L96 56h88V8z" fill="url(#bD)"/></g></g><radialGradient id="bK" cx="668.2" cy="55.95" r="84.08" gradientTransform="translate(-576)" gradientUnits="userSpaceOnUse"><stop stop-color="#3e2723" stop-opacity=".2" offset="0"/><stop stop-color="#3e2723" stop-opacity="0" offset="1"/></radialGradient><path d="M96 56v20.95L174.4 56z" fill="url(#bK)" class="bB" transform="translate(-7 -7)"/><g class="bB" transform="translate(-7 -7)"><defs><path id="bL" d="M21.97 8v40.34L61.36 116 96 56h88V8z"/></defs><clipPath id="bM"><use xlink:href="#bL"/></clipPath><g clip-path="url(#bM)"><use xlink:href="#bB" fill="#0f9d58"/><path d="M8 184h83.77l38.88-38.88V116h-69.3L8 24.48z" fill="url(#bE)"/></g></g><radialGradient id="bN" cx="597.9" cy="48.52" r="78.04" gradientTransform="translate(-576)" gradientUnits="userSpaceOnUse"><stop stop-color="#3e2723" stop-opacity=".2" offset="0"/><stop stop-color="#3e2723" stop-opacity="0" offset="1"/></radialGradient><path transform="translate(-7 -7)" d="M21.97 48.45l57.25 57.24L61.36 116z" fill="url(#bN)" class="bB"/><radialGradient id="bO" cx="671.8" cy="96.14" r="87.87" gradientTransform="translate(-576)" gradientUnits="userSpaceOnUse"><stop stop-color="#263238" stop-opacity=".2" offset="0"/><stop stop-color="#263238" stop-opacity="0" offset="1"/></radialGradient><g><path d="M91.83 183.9l20.96-78.2 17.86 10.3z" fill="url(#bO)" class="bB" transform="translate(-7 -7)"/><g class="bB" transform="translate(-7 -7)"><circle cx="96" cy="96" r="40" fill="#f1f1f1"/><circle cx="96" cy="96" r="32" fill="#4285f4"/><path d="M96 55c-22.1 0-40 17.9-40 40v1c0-22.1 17.9-40 40-40h88v-1H96z" class="bC bE"/><path d="M130.6 116c-6.92 11.94-19.8 20-34.6 20s-27.7-8.06-34.6-20h-.04L8 24.48v1L61.4 117c6.92 11.94 19.8 20 34.6 20s27.68-8.05 34.6-20h.05v-1h-.06z" fill="#fff" fill-opacity=".1"/><path d="M97 56c-.17 0-.33.02-.5.03C118.36 56.3 136 74.08 136 96s-17.64 39.7-39.5 39.97c.17 0 .33.03.5.03 22.1 0 40-17.9 40-40s-17.9-40-40-40z" opacity=".1" class="bC"/><path d="M131 117.3c3.4-5.88 5.37-12.68 5.37-19.96a39.87 39.87 0 00-1.87-12.09c.95 3.42 1.5 7 1.5 10.73 0 7.28-1.97 14.08-5.37 19.96l.02.04-38.88 68h1.16L131 117.3z" fill="#fff" class="bE"/><path d="M96 9c48.43 0 87.72 39.13 88 87.5 0-.17.01-.33.01-.5 0-48.6-39.4-88-88-88S8 47.4 8 96c0 .17.01.33.01.5C8.28 48.13 47.57 9 96 9z" fill="#fff" class="bE"/><path d="M96 183c48.43 0 87.72-39.13 88-87.5 0 .17.01.33.01.5 0 48.6-39.4 88-88 88S8 144.6 8 96c0-.17.01-.33.01-.5.27 48.37 39.56 87.5 88 87.5z" class="bC bD"/></g></g></svg><view id="browsers--edge" viewBox="59.22 0 32 32"/><svg viewBox="0 0 256 256" width="32" height="32" x="59.22" xmlns="http://www.w3.org/2000/svg"><defs><radialGradient id="cb" cx="161.83" cy="68.91" r="95.38" gradientTransform="matrix(1 0 0 -.95 0 248.84)" gradientUnits="userSpaceOnUse"><stop offset=".72" stop-opacity="0"/><stop offset=".95" stop-opacity=".53"/><stop offset="1"/></radialGradient><radialGradient id="cd" cx="-340.29" cy="62.99" r="143.24" gradientTransform="matrix(.15 -.99 -.8 -.12 176.64 -125.4)" gradientUnits="userSpaceOnUse"><stop offset=".76" stop-opacity="0"/><stop offset=".95" stop-opacity=".5"/><stop offset="1"/></radialGradient><radialGradient id="ce" cx="113.37" cy="570.21" r="202.43" gradientTransform="matrix(-.04 1 2.13 .08 -1179.54 -106.69)" gradientUnits="userSpaceOnUse"><stop offset="0" stop-color="#35c1f1"/><stop offset=".11" stop-color="#34c1ed"/><stop offset=".23" stop-color="#2fc2df"/><stop offset=".31" stop-color="#2bc3d2"/><stop offset=".67" stop-color="#36c752"/></radialGradient><radialGradient id="cf" cx="376.52" cy="567.97" r="97.34" gradientTransform="matrix(.28 .96 .78 -.23 -303.76 -148.5)" gradientUnits="userSpaceOnUse"><stop offset="0" stop-color="#66eb6e"/><stop offset="1" stop-color="#66eb6e" stop-opacity="0"/></radialGradient><linearGradient id="ca" x1="63.33" x2="241.67" y1="84.03" y2="84.03" gradientTransform="matrix(1 0 0 -1 0 266)" gradientUnits="userSpaceOnUse"><stop offset="0" stop-color="#0c59a4"/><stop offset="1" stop-color="#114a8b"/></linearGradient><linearGradient id="cc" x1="157.35" x2="45.96" y1="161.39" y2="40.06" gradientTransform="matrix(1 0 0 -1 0 266)" gradientUnits="userSpaceOnUse"><stop offset="0" stop-color="#1b9de2"/><stop offset=".16" stop-color="#1595df"/><stop offset=".67" stop-color="#0680d7"/><stop offset="1" stop-color="#0078d4"/></linearGradient></defs><path fill="url(#ca)" d="M235.68 195.46a93.73 93.73 0 01-10.54 4.71 101.87 101.87 0 01-35.9 6.46c-47.32 0-88.54-32.55-88.54-74.32A31.48 31.48 0 01117.13 105c-42.8 1.8-53.8 46.4-53.8 72.53 0 73.88 68.09 81.37 82.76 81.37 7.91 0 19.84-2.3 27-4.56l1.31-.44a128.34 128.34 0 0066.6-52.8 4 4 0 00-5.32-5.64z" transform="translate(-4.63 -4.92)"/><path fill="url(#cb)" d="M235.68 195.46a93.73 93.73 0 01-10.54 4.71 101.87 101.87 0 01-35.9 6.46c-47.32 0-88.54-32.55-88.54-74.32A31.48 31.48 0 01117.13 105c-42.8 1.8-53.8 46.4-53.8 72.53 0 73.88 68.09 81.37 82.76 81.37 7.91 0 19.84-2.3 27-4.56l1.31-.44a128.34 128.34 0 0066.6-52.8 4 4 0 00-5.32-5.64z" opacity=".35" style="isolation:isolate" transform="translate(-4.63 -4.92)"/><path fill="url(#cc)" d="M110.34 246.34A79.2 79.2 0 0187.6 225a80.72 80.72 0 0129.53-120c3.12-1.47 8.45-4.13 15.54-4a32.35 32.35 0 0125.69 13 31.88 31.88 0 016.36 18.66c0-.21 24.46-79.6-80-79.6-43.9 0-80 41.66-80 78.21a130.15 130.15 0 0012.11 56 128 128 0 00156.38 67.11 75.55 75.55 0 01-62.78-8z" transform="translate(-4.63 -4.92)"/><path fill="url(#cd)" d="M110.34 246.34A79.2 79.2 0 0187.6 225a80.72 80.72 0 0129.53-120c3.12-1.47 8.45-4.13 15.54-4a32.35 32.35 0 0125.69 13 31.88 31.88 0 016.36 18.66c0-.21 24.46-79.6-80-79.6-43.9 0-80 41.66-80 78.21a130.15 130.15 0 0012.11 56 128 128 0 00156.38 67.11 75.55 75.55 0 01-62.78-8z" opacity=".41" style="isolation:isolate" transform="translate(-4.63 -4.92)"/><path fill="url(#ce)" d="M156.94 153.78c-.81 1.05-3.3 2.5-3.3 5.66 0 2.61 1.7 5.12 4.72 7.23 14.38 10 41.49 8.68 41.56 8.68a59.56 59.56 0 0030.27-8.35 61.38 61.38 0 0030.43-52.88c.26-22.41-8-37.31-11.34-43.91-21.19-41.45-66.93-65.29-116.67-65.29a128 128 0 00-128 126.2c.48-36.54 36.8-66.05 80-66.05 3.5 0 23.46.34 42 10.07 16.34 8.58 24.9 18.94 30.85 29.21 6.18 10.67 7.28 24.15 7.28 29.52s-2.74 13.33-7.8 19.91z" transform="translate(-4.63 -4.92)"/><path fill="url(#cf)" d="M156.94 153.78c-.81 1.05-3.3 2.5-3.3 5.66 0 2.61 1.7 5.12 4.72 7.23 14.38 10 41.49 8.68 41.56 8.68a59.56 59.56 0 0030.27-8.35 61.38 61.38 0 0030.43-52.88c.26-22.41-8-37.31-11.34-43.91-21.19-41.45-66.93-65.29-116.67-65.29a128 128 0 00-128 126.2c.48-36.54 36.8-66.05 80-66.05 3.5 0 23.46.34 42 10.07 16.34 8.58 24.9 18.94 30.85 29.21 6.18 10.67 7.28 24.15 7.28 29.52s-2.74 13.33-7.8 19.91z" transform="translate(-4.63 -4.92)"/></svg><view id="browsers--firefox" viewBox="0 32 30.98 32"/><svg viewBox="0 0 77.42 79.97" width="30.98" height="32" y="32" xmlns="http://www.w3.org/2000/svg"><defs><radialGradient id="db" cx="-7907" cy="-8515" r="80.8" gradientTransform="translate(7974 8524)" gradientUnits="userSpaceOnUse"><stop offset=".129" stop-color="#ffbd4f"/><stop offset=".186" stop-color="#ffac31"/><stop offset=".247" stop-color="#ff9d17"/><stop offset=".283" stop-color="#ff980e"/><stop offset=".403" stop-color="#ff563b"/><stop offset=".467" stop-color="#ff3750"/><stop offset=".71" stop-color="#f5156c"/><stop offset=".782" stop-color="#eb0878"/><stop offset=".86" stop-color="#e50080"/></radialGradient><radialGradient id="dc" cx="-7937" cy="-8482" r="80.8" gradientTransform="translate(7974 8524)" gradientUnits="userSpaceOnUse"><stop offset=".3" stop-color="#960e18"/><stop offset=".351" stop-color="#b11927" stop-opacity=".74"/><stop offset=".435" stop-color="#db293d" stop-opacity=".343"/><stop offset=".497" stop-color="#f5334b" stop-opacity=".094"/><stop offset=".53" stop-color="#ff3750" stop-opacity="0"/></radialGradient><radialGradient id="dd" cx="-7927" cy="-8533" r="58.53" gradientTransform="translate(7974 8524)" gradientUnits="userSpaceOnUse"><stop offset=".132" stop-color="#fff44f"/><stop offset=".252" stop-color="#ffdc3e"/><stop offset=".506" stop-color="#ff9d12"/><stop offset=".526" stop-color="#ff980e"/></radialGradient><radialGradient id="de" cx="-7946" cy="-8461" r="38.47" gradientTransform="translate(7974 8524)" gradientUnits="userSpaceOnUse"><stop offset=".353" stop-color="#3a8ee6"/><stop offset=".472" stop-color="#5c79f0"/><stop offset=".669" stop-color="#9059ff"/><stop offset="1" stop-color="#c139e6"/></radialGradient><radialGradient id="df" cx="-7936" cy="-8492" r="20.4" gradientTransform="matrix(.972 -.235 .275 1.138 10090 7834)" gradientUnits="userSpaceOnUse"><stop offset=".206" stop-color="#9059ff" stop-opacity="0"/><stop offset=".278" stop-color="#8c4ff3" stop-opacity=".064"/><stop offset=".747" stop-color="#7716a8" stop-opacity=".45"/><stop offset=".975" stop-color="#6e008b" stop-opacity=".6"/></radialGradient><radialGradient id="dg" cx="-7938" cy="-8518" r="27.68" gradientTransform="translate(7974 8524)" gradientUnits="userSpaceOnUse"><stop offset="0" stop-color="#ffe226"/><stop offset=".121" stop-color="#ffdb27"/><stop offset=".295" stop-color="#ffc82a"/><stop offset=".502" stop-color="#ffa930"/><stop offset=".732" stop-color="#ff7e37"/><stop offset=".792" stop-color="#ff7139"/></radialGradient><radialGradient id="dh" cx="-7916" cy="-8536" r="118.1" gradientTransform="translate(7974 8524)" gradientUnits="userSpaceOnUse"><stop offset=".113" stop-color="#fff44f"/><stop offset=".456" stop-color="#ff980e"/><stop offset=".622" stop-color="#ff5634"/><stop offset=".716" stop-color="#ff3647"/><stop offset=".904" stop-color="#e31587"/></radialGradient><radialGradient id="di" cx="-7927" cy="-8523" r="86.5" gradientTransform="matrix(.105 .995 -.653 .069 -4685 8470)" gradientUnits="userSpaceOnUse"><stop offset="0" stop-color="#fff44f"/><stop offset=".06" stop-color="#ffe847"/><stop offset=".168" stop-color="#ffc830"/><stop offset=".304" stop-color="#ff980e"/><stop offset=".356" stop-color="#ff8b16"/><stop offset=".455" stop-color="#ff672a"/><stop offset=".57" stop-color="#ff3647"/><stop offset=".737" stop-color="#e31587"/></radialGradient><radialGradient id="dj" cx="-7938" cy="-8508" r="73.72" gradientTransform="translate(7974 8524)" gradientUnits="userSpaceOnUse"><stop offset=".137" stop-color="#fff44f"/><stop offset=".48" stop-color="#ff980e"/><stop offset=".592" stop-color="#ff5634"/><stop offset=".655" stop-color="#ff3647"/><stop offset=".904" stop-color="#e31587"/></radialGradient><radialGradient id="dk" cx="-7919" cy="-8504" r="80.69" gradientTransform="translate(7974 8524)" gradientUnits="userSpaceOnUse"><stop offset=".094" stop-color="#fff44f"/><stop offset=".231" stop-color="#ffe141"/><stop offset=".509" stop-color="#ffaf1e"/><stop offset=".626" stop-color="#ff980e"/></radialGradient><linearGradient id="da" x1="70.79" x2="6.447" y1="12.39" y2="74.47" gradientTransform="translate(-1.3 -.004)" gradientUnits="userSpaceOnUse"><stop offset=".048" stop-color="#fff44f"/><stop offset=".111" stop-color="#ffe847"/><stop offset=".225" stop-color="#ffc830"/><stop offset=".368" stop-color="#ff980e"/><stop offset=".401" stop-color="#ff8b16"/><stop offset=".462" stop-color="#ff672a"/><stop offset=".534" stop-color="#ff3647"/><stop offset=".705" stop-color="#e31587"/></linearGradient><linearGradient id="dl" x1="70.01" x2="15.27" y1="12.06" y2="66.81" gradientTransform="translate(-1.3 -.004)" gradientUnits="userSpaceOnUse"><stop offset=".167" stop-color="#fff44f" stop-opacity=".8"/><stop offset=".266" stop-color="#fff44f" stop-opacity=".634"/><stop offset=".489" stop-color="#fff44f" stop-opacity=".217"/><stop offset=".6" stop-color="#fff44f" stop-opacity="0"/></linearGradient></defs><path fill="url(#da)" d="M74.62 26.83c-1.684-4.052-5.1-8.427-7.775-9.81a40.27 40.27 0 013.925 11.76l.007.065c-4.382-10.92-11.81-15.33-17.88-24.92a47.099 47.099 0 01-.913-1.484 12.24 12.24 0 01-.427-.8 7.053 7.053 0 01-.578-1.535.1.1 0 00-.088-.1.138.138 0 00-.073 0c-.005 0-.013.009-.019.011s-.019.011-.028.015l.015-.026c-9.735 5.7-13.04 16.25-13.34 21.53a19.39 19.39 0 00-10.67 4.111 11.59 11.59 0 00-1-.758 17.97 17.97 0 01-.109-9.473 28.7 28.7 0 00-9.329 7.21h-.018c-1.536-1.947-1.428-8.367-1.34-9.708a6.928 6.928 0 00-1.294.687 28.22 28.22 0 00-3.788 3.245 33.84 33.84 0 00-3.623 4.347v.006-.007a32.73 32.73 0 00-5.2 11.74l-.052.256a61.89 61.89 0 00-.381 2.42c0 .029-.006.056-.009.085a36.94 36.94 0 00-.629 5.343v.2a38.76 38.76 0 0076.95 6.554c.065-.5.118-.995.176-1.5a39.86 39.86 0 00-2.514-19.47zM29.95 57.17c.181.087.351.181.537.264l.027.017q-.282-.135-.564-.281zm40.828-28.314v-.037l.007.041z"/><path fill="url(#db)" d="M74.62 26.83c-1.684-4.052-5.1-8.427-7.775-9.81a40.27 40.27 0 013.925 11.76v.037l.007.041a35.1 35.1 0 01-1.206 26.16c-4.442 9.531-15.19 19.3-32.02 18.82-18.18-.515-34.2-14.01-37.19-31.68-.545-2.787 0-4.2.274-6.465a28.88 28.88 0 00-.623 5.348v.2a38.76 38.76 0 0076.95 6.554c.065-.5.118-.995.176-1.5a39.86 39.86 0 00-2.514-19.47z"/><path fill="url(#dc)" d="M74.62 26.83c-1.684-4.052-5.1-8.427-7.775-9.81a40.27 40.27 0 013.925 11.76v.037l.007.041a35.1 35.1 0 01-1.206 26.16c-4.442 9.531-15.19 19.3-32.02 18.82-18.18-.515-34.2-14.01-37.19-31.68-.545-2.787 0-4.2.274-6.465a28.88 28.88 0 00-.623 5.348v.2a38.76 38.76 0 0076.95 6.554c.065-.5.118-.995.176-1.5a39.86 39.86 0 00-2.514-19.47z"/><path fill="url(#dd)" d="M55.78 31.38c.084.059.162.118.241.177a21.1 21.1 0 00-3.6-4.695C40.371 14.812 49.264.742 50.763.022L50.778 0c-9.735 5.7-13.04 16.25-13.34 21.53.452-.031.9-.069 1.362-.069a19.56 19.56 0 0116.98 9.917z"/><path fill="url(#de)" d="M38.82 33.79c-.064.964-3.47 4.289-4.661 4.289-11.02 0-12.81 6.667-12.81 6.667.488 5.614 4.4 10.24 9.129 12.68.216.112.435.213.654.312q.569.252 1.138.466a17.24 17.24 0 005.043.973c19.32.906 23.06-23.1 9.119-30.07a13.38 13.38 0 019.345 2.269 19.56 19.56 0 00-16.98-9.917c-.46 0-.91.038-1.362.069a19.39 19.39 0 00-10.67 4.111c.591.5 1.258 1.168 2.663 2.553 2.63 2.591 9.375 5.275 9.39 5.59z"/><path fill="url(#df)" d="M38.82 33.79c-.064.964-3.47 4.289-4.661 4.289-11.02 0-12.81 6.667-12.81 6.667.488 5.614 4.4 10.24 9.129 12.68.216.112.435.213.654.312q.569.252 1.138.466a17.24 17.24 0 005.043.973c19.32.906 23.06-23.1 9.119-30.07a13.38 13.38 0 019.345 2.269 19.56 19.56 0 00-16.98-9.917c-.46 0-.91.038-1.362.069a19.39 19.39 0 00-10.67 4.111c.591.5 1.258 1.168 2.663 2.553 2.63 2.591 9.375 5.275 9.39 5.59z"/><path fill="url(#dg)" d="M24.96 24.36c.314.2.573.374.8.531a17.97 17.97 0 01-.109-9.473 28.7 28.7 0 00-9.329 7.21c.189-.005 5.811-.106 8.638 1.732z"/><path fill="url(#dh)" d="M.354 42.16c2.991 17.67 19.01 31.17 37.19 31.68 16.83.476 27.58-9.294 32.02-18.82a35.1 35.1 0 001.206-26.16v-.037c0-.029-.006-.046 0-.037l.007.065c1.375 8.977-3.191 17.67-10.33 23.56l-.022.05c-13.91 11.33-27.22 6.834-29.91 5q-.282-.135-.564-.281c-8.109-3.876-11.46-11.26-10.74-17.6a9.953 9.953 0 01-9.181-5.775 14.62 14.62 0 0114.25-.572 19.3 19.3 0 0014.55.572c-.015-.315-6.76-3-9.39-5.59-1.405-1.385-2.072-2.052-2.663-2.553a11.59 11.59 0 00-1-.758c-.23-.157-.489-.327-.8-.531-2.827-1.838-8.449-1.737-8.635-1.732h-.018c-1.536-1.947-1.428-8.367-1.34-9.708a6.928 6.928 0 00-1.294.687 28.22 28.22 0 00-3.788 3.245 33.84 33.84 0 00-3.638 4.337v.006-.007a32.73 32.73 0 00-5.2 11.74c-.019.079-1.396 6.099-.717 9.221z"/><path fill="url(#di)" d="M52.42 26.86a21.1 21.1 0 013.6 4.7c.213.161.412.321.581.476 8.787 8.1 4.183 19.55 3.84 20.36 7.138-5.881 11.7-14.58 10.33-23.56-4.384-10.93-11.82-15.34-17.88-24.93a47.099 47.099 0 01-.913-1.484 12.24 12.24 0 01-.427-.8 7.053 7.053 0 01-.578-1.535.1.1 0 00-.088-.1.138.138 0 00-.073 0c-.005 0-.013.009-.019.011s-.019.011-.028.015c-1.499.711-10.39 14.79 1.66 26.83z"/><path fill="url(#dj)" d="M56.6 32.04a8.083 8.083 0 00-.581-.476c-.079-.059-.157-.118-.241-.177a13.38 13.38 0 00-9.345-2.269c13.94 6.97 10.2 30.97-9.119 30.07a17.24 17.24 0 01-5.043-.973q-.569-.213-1.138-.466c-.219-.1-.438-.2-.654-.312l.027.017c2.694 1.839 16 6.332 29.91-5l.022-.05c.347-.81 4.951-12.26-3.84-20.36z"/><path fill="url(#dk)" d="M21.35 44.74s1.789-6.667 12.81-6.667c1.191 0 4.6-3.325 4.661-4.289a19.3 19.3 0 01-14.55-.572 14.62 14.62 0 00-14.25.572 9.953 9.953 0 009.181 5.775c-.718 6.337 2.632 13.72 10.74 17.6.181.087.351.181.537.264-4.733-2.445-8.641-7.069-9.129-12.68z"/><path fill="url(#dl)" d="M74.62 26.83c-1.684-4.052-5.1-8.427-7.775-9.81a40.27 40.27 0 013.925 11.76l.007.065c-4.382-10.92-11.81-15.33-17.88-24.92a47.099 47.099 0 01-.913-1.484 12.24 12.24 0 01-.427-.8 7.053 7.053 0 01-.578-1.535.1.1 0 00-.088-.1.138.138 0 00-.073 0c-.005 0-.013.009-.019.011s-.019.011-.028.015l.015-.026c-9.735 5.7-13.04 16.25-13.34 21.53.452-.031.9-.069 1.362-.069a19.56 19.56 0 0116.98 9.917 13.38 13.38 0 00-9.345-2.269c13.94 6.97 10.2 30.97-9.119 30.07a17.24 17.24 0 01-5.043-.973q-.569-.213-1.138-.466c-.219-.1-.438-.2-.654-.312l.027.017q-.282-.135-.564-.281c.181.087.351.181.537.264-4.733-2.446-8.641-7.07-9.129-12.68 0 0 1.789-6.667 12.81-6.667 1.191 0 4.6-3.325 4.661-4.289-.015-.315-6.76-3-9.39-5.59-1.405-1.385-2.072-2.052-2.663-2.553a11.59 11.59 0 00-1-.758 17.97 17.97 0 01-.109-9.473 28.7 28.7 0 00-9.329 7.21h-.018c-1.536-1.947-1.428-8.367-1.34-9.708a6.928 6.928 0 00-1.294.687A28.22 28.22 0 009.9 16.858a33.84 33.84 0 00-3.623 4.347v.006-.007a32.73 32.73 0 00-5.2 11.74l-.052.256c-.073.341-.4 2.073-.447 2.445a45.09 45.09 0 00-.572 5.403v.2a38.76 38.76 0 0076.95 6.554c.065-.5.118-.995.176-1.5a39.86 39.86 0 00-2.514-19.47zm-3.845 1.991l.007.041z"/></svg><view id="browsers--opera" viewBox="30.98 32 32 32"/><svg viewBox="0 0 75.591 75.591" width="32" height="32" x="30.98" y="32" xmlns="http://www.w3.org/2000/svg"><linearGradient id="ea" gradientTransform="matrix(0 -54.944 -54.944 0 23.62 79.474)" gradientUnits="userSpaceOnUse" x2="1"><stop offset="0" stop-color="#ff1b2d"/><stop offset=".3" stop-color="#ff1b2d"/><stop offset=".614" stop-color="#ff1b2d"/><stop offset="1" stop-color="#a70014"/></linearGradient><linearGradient id="eb" gradientTransform="matrix(0 -48.595 -48.595 0 37.854 76.235)" gradientUnits="userSpaceOnUse" x2="1"><stop offset="0" stop-color="#9c0000"/><stop offset=".7" stop-color="#ff4b4b"/><stop offset="1" stop-color="#ff4b4b"/></linearGradient><path d="M28.346 80.398C12.691 80.398 0 67.707 0 52.052 0 36.85 11.968 24.443 26.996 23.739a28.244 28.244 0 0120.241 7.18c-3.322-2.203-7.207-3.47-11.359-3.47-6.75 0-12.796 3.348-16.862 8.629-3.134 3.7-5.164 9.169-5.302 15.307v1.335c.138 6.137 2.168 11.608 5.302 15.307 4.066 5.28 10.112 8.63 16.862 8.63 4.152 0 8.038-1.269 11.36-3.474a28.239 28.239 0 01-18.785 7.215l-.108.001z" fill="url(#ea)" transform="matrix(1.3333 0 0 -1.3333 0 107.2)"/><path d="M19.016 68.025c2.601 3.07 5.96 4.923 9.631 4.923 8.252 0 14.941-9.356 14.941-20.897s-6.69-20.897-14.941-20.897c-3.67 0-7.03 1.85-9.63 4.922 4.066-5.281 10.11-8.63 16.862-8.63 4.152 0 8.036 1.268 11.359 3.472 5.802 5.19 9.455 12.735 9.455 21.133 0 8.397-3.653 15.94-9.453 21.13-3.324 2.206-7.209 3.473-11.361 3.473-6.75 0-12.796-3.348-16.862-8.63" fill="url(#eb)" transform="matrix(1.3333 0 0 -1.3333 0 107.2)"/></svg><view id="browsers--safari" viewBox="91.22 0 32 31.82"/><svg viewBox="0 0 66.166 65.804" width="32" height="31.82" x="91.22" xmlns="http://www.w3.org/2000/svg"><defs><linearGradient id="fb"><stop offset="0" stop-color="#06c2e7"/><stop offset=".25" stop-color="#0db8ec"/><stop offset=".5" stop-color="#12aef1"/><stop offset=".75" stop-color="#1f86f9"/><stop offset="1" stop-color="#107ddd"/></linearGradient><linearGradient id="fa"><stop offset="0" stop-color="#bdbdbd"/><stop offset="1" stop-color="#fff"/></linearGradient><linearGradient xlink:href="#fa" id="fd" x1="412.975" x2="412.975" y1="237.608" y2="59.392" gradientTransform="translate(206.79 159.773) scale(.35154)" gradientUnits="userSpaceOnUse"/><filter id="ff" width="1.042" height="1.045" x="-.021" y="-.022" color-interpolation-filters="sRGB"><feGaussianBlur stdDeviation=".958"/></filter><filter id="fc" width="1.096" height="1.096" x="-.048" y="-.048" color-interpolation-filters="sRGB"><feGaussianBlur stdDeviation="3.564"/></filter><radialGradient xlink:href="#fb" id="fe" cx="413.061" cy="136.818" r="82.125" fx="413.061" fy="136.818" gradientTransform="translate(194.545 155.58) scale(.38143)" gradientUnits="userSpaceOnUse"/></defs><path d="M502.083 148.5a89.108 89.108 0 01-89.108 89.108 89.108 89.108 0 01-89.108-89.108 89.108 89.108 0 0189.108-89.108 89.108 89.108 0 0189.108 89.108z" filter="url(#fc)" opacity=".53" paint-order="markers stroke fill" transform="matrix(.33865 0 0 .3261 -106.77 -14.478)"/><path fill="url(#fd)" stroke="#cdcdcd" stroke-linecap="round" stroke-linejoin="round" stroke-width=".093" d="M383.294 211.977a31.325 31.325 0 01-31.325 31.325 31.325 31.325 0 01-31.326-31.325 31.325 31.325 0 0131.326-31.325 31.325 31.325 0 0131.325 31.325z" paint-order="markers stroke fill" transform="translate(-318.886 -180.595)"/><path fill="url(#fe)" d="M380.84 211.977a28.87 28.87 0 01-28.871 28.87 28.87 28.87 0 01-28.871-28.87 28.87 28.87 0 0128.87-28.87 28.87 28.87 0 0128.871 28.87z" paint-order="markers stroke fill" transform="translate(-318.886 -180.595)"/><path fill="#f4f2f3" d="M33.083 4.017a.42.42 0 00-.421.42v4.856a.42.42 0 10.842 0V4.438a.42.42 0 00-.421-.421zm-2.754.174a.42.42 0 00-.46.463l.212 2.03a.42.42 0 10.837-.087l-.212-2.03a.42.42 0 00-.377-.376zm5.527.002a.42.42 0 00-.377.375l-.214 2.03a.42.42 0 10.837.089l.214-2.031a.42.42 0 00-.46-.463zM27.5 4.6a.42.42 0 00-.41.508l1.005 4.75a.42.42 0 10.824-.174l-1.005-4.75A.42.42 0 0027.5 4.6zm11.183.004a.42.42 0 00-.414.333l-1.009 4.75a.42.42 0 10.824.175l1.009-4.75a.42.42 0 00-.41-.508zM24.8 5.361a.42.42 0 00-.437.55l.632 1.942a.42.42 0 10.8-.26l-.63-1.942a.42.42 0 00-.365-.29zm16.568.001a.42.42 0 00-.364.29l-.632 1.942a.42.42 0 10.8.26l.632-1.942a.42.42 0 00-.436-.55zM22.13 6.34a.42.42 0 00-.377.592l1.972 4.437a.42.42 0 10.77-.342L22.523 6.59a.42.42 0 00-.393-.25zm21.937.015a.42.42 0 00-.392.25l-1.978 4.434a.42.42 0 10.769.343l1.978-4.434a.42.42 0 00-.377-.593zM19.654 7.65a.42.42 0 00-.394.63l1.02 1.77a.42.42 0 10.73-.421L19.989 7.86a.42.42 0 00-.335-.21zm26.858 0a.419.419 0 00-.335.21l-1.021 1.769a.42.42 0 10.73.42l1.02-1.768a.42.42 0 00-.394-.63zm-29.265 1.5a.422.422 0 00-.326.669l2.85 3.93a.42.42 0 10.682-.494l-2.85-3.93a.42.42 0 00-.356-.174zm31.702.022a.42.42 0 00-.356.174l-2.856 3.926a.42.42 0 10.681.495l2.856-3.926a.42.42 0 00-.325-.669zm-33.852 1.783a.42.42 0 00-.335.702l1.366 1.518a.42.42 0 10.626-.563l-1.367-1.518a.42.42 0 00-.29-.14zm35.975.003a.421.421 0 00-.29.139l-1.367 1.517a.42.42 0 10.625.564l1.367-1.518a.42.42 0 00-.335-.702zm-38.037 1.977a.42.42 0 00-.26.733l3.61 3.248a.42.42 0 10.563-.625l-3.609-3.248a.42.42 0 00-.304-.108zm40.109.014a.419.419 0 00-.304.108l-3.61 3.245a.42.42 0 10.562.626l3.61-3.245a.42.42 0 00-.258-.734zm-41.823 2.19a.42.42 0 00-.262.762l1.652 1.2a.42.42 0 10.495-.681l-1.652-1.2a.42.42 0 00-.233-.081zm43.535.015a.421.421 0 00-.233.08l-1.653 1.2a.42.42 0 10.495.681l1.653-1.2a.42.42 0 00-.262-.76zM9.72 17.49a.42.42 0 00-.18.785l4.204 2.427a.42.42 0 10.42-.729L9.96 17.546a.42.42 0 00-.24-.056zm46.728 0a.417.417 0 00-.24.056l-4.205 2.427a.42.42 0 10.42.73l4.206-2.428a.42.42 0 00-.181-.785zm-47.94 2.506a.42.42 0 00-.18.806l1.866.831a.42.42 0 10.343-.768l-1.866-.832a.42.42 0 00-.163-.037zm49.158.017a.42.42 0 00-.164.037l-1.865.83a.42.42 0 10.342.77l1.866-.831a.42.42 0 00-.179-.806zM7.429 22.615a.42.42 0 00-.094.82l4.615 1.504a.42.42 0 10.261-.8l-4.616-1.504a.421.421 0 00-.166-.02zm51.314.018a.408.408 0 00-.166.02l-4.617 1.5a.42.42 0 10.26.801l4.617-1.5a.42.42 0 00-.094-.82zM6.756 25.365a.42.42 0 00-.09.833l1.998.424a.42.42 0 10.175-.823l-1.998-.425a.413.413 0 00-.085-.009zm52.655.004a.518.518 0 00-.085.009l-1.998.424a.42.42 0 10.175.823l1.998-.424a.42.42 0 00-.09-.833zM6.247 28.13a.42.42 0 00-.003.838l4.828.51a.42.42 0 10.089-.837l-4.829-.51a.432.432 0 00-.085 0zm53.676.037a.386.386 0 00-.085 0l-4.83.504a.42.42 0 10.088.837l4.83-.504a.42.42 0 00-.003-.837zM6.165 30.96a.42.42 0 100 .842h2.043a.42.42 0 100-.842zm51.793 0a.42.42 0 100 .842h2.043a.42.42 0 100-.842zm-46.803 2.295a.384.384 0 00-.085 0l-4.83.504a.42.42 0 10.088.838l4.83-.504a.42.42 0 00-.003-.838zm43.853.03a.42.42 0 00-.003.838l4.828.51a.42.42 0 10.089-.837l-4.828-.51a.434.434 0 00-.086-.001zm-46.26 2.843a.43.43 0 00-.085.01l-1.998.424a.42.42 0 10.175.823l1.998-.424a.42.42 0 00-.09-.833zm48.67.005a.42.42 0 00-.09.833l1.997.424a.42.42 0 10.175-.824l-1.998-.424a.413.413 0 00-.085-.01zM12.111 37.79a.408.408 0 00-.166.02l-4.617 1.5a.42.42 0 10.26.801l4.617-1.5a.42.42 0 00-.094-.82zm41.937.015a.42.42 0 00-.094.82l4.616 1.504a.42.42 0 10.26-.8l-4.615-1.504a.421.421 0 00-.167-.02zM10.35 41.08a.42.42 0 00-.163.036l-1.866.831a.42.42 0 10.342.769l1.866-.83a.42.42 0 00-.179-.806zm45.459.016a.42.42 0 00-.18.805l1.865.832a.42.42 0 10.343-.769l-1.865-.832a.42.42 0 00-.163-.036zm-41.826.912a.417.417 0 00-.24.056L9.538 44.49a.42.42 0 10.421.73l4.205-2.428a.42.42 0 00-.181-.785zm38.2 0a.42.42 0 00-.181.785l4.205 2.427a.42.42 0 10.42-.729l-4.204-2.427a.42.42 0 00-.24-.056zM12.934 45.57a.421.421 0 00-.233.08l-1.653 1.2a.42.42 0 10.495.682l1.653-1.2a.42.42 0 00-.262-.762zm40.288.015a.42.42 0 00-.262.762l1.652 1.2a.42.42 0 10.495-.681l-1.652-1.2a.42.42 0 00-.233-.081zm-36.544.145a.418.418 0 00-.304.108l-3.61 3.245a.42.42 0 10.562.626l3.61-3.245a.42.42 0 00-.258-.734zm32.8.011a.421.421 0 00-.26.734l3.609 3.248a.42.42 0 10.563-.625l-3.608-3.249a.42.42 0 00-.304-.107zm-29.375 3.084a.42.42 0 00-.355.173l-2.856 3.927a.42.42 0 10.68.495l2.857-3.926a.42.42 0 00-.326-.669zm25.936.018a.421.421 0 00-.326.668l2.85 3.93a.42.42 0 10.682-.494l-2.851-3.93a.42.42 0 00-.355-.174zm-29.623.606a.421.421 0 00-.29.14l-1.367 1.517a.42.42 0 10.625.563l1.367-1.517a.42.42 0 00-.335-.703zm33.331.002a.42.42 0 00-.335.702l1.366 1.518a.42.42 0 10.626-.563l-1.366-1.518a.42.42 0 00-.291-.139zm-25.655 1.684a.419.419 0 00-.393.25l-1.978 4.433a.42.42 0 10.77.343l1.977-4.434a.42.42 0 00-.376-.592zm17.955.012a.42.42 0 00-.377.592l1.972 4.437a.42.42 0 10.77-.342l-1.972-4.437a.42.42 0 00-.393-.25zm-21.431 1.359a.419.419 0 00-.335.21l-1.021 1.768a.42.42 0 10.729.421l1.02-1.769a.42.42 0 00-.393-.63zm24.934 0a.42.42 0 00-.394.63l1.021 1.77a.42.42 0 10.73-.422l-1.022-1.769a.42.42 0 00-.335-.21zm-17.054.063a.42.42 0 00-.415.334l-1.009 4.749a.42.42 0 10.824.175l1.009-4.75a.42.42 0 00-.41-.508zm9.16.003a.42.42 0 00-.41.508l1.006 4.75a.42.42 0 10.823-.175l-1.006-4.75a.42.42 0 00-.414-.333zm-4.573.48a.42.42 0 00-.421.42v4.855a.42.42 0 10.842 0v-4.855a.42.42 0 00-.421-.42zm-7.727 1.568a.42.42 0 00-.364.29l-.631 1.942a.42.42 0 10.8.26l.632-1.942a.42.42 0 00-.437-.55zm15.45 0a.42.42 0 00-.437.55l.632 1.943a.42.42 0 10.8-.26l-.63-1.942a.42.42 0 00-.365-.29zm-10.365 1.083a.42.42 0 00-.378.375l-.213 2.03a.42.42 0 10.837.088l.214-2.03a.42.42 0 00-.46-.463zm5.267.002a.42.42 0 00-.46.463l.212 2.03a.42.42 0 10.837-.088l-.212-2.03a.42.42 0 00-.377-.375z" paint-order="markers stroke fill"/><path d="M469.096 100.607l-65.51 38.061-41.42 65.207 60.595-44.882z" filter="url(#ff)" opacity=".409" paint-order="markers stroke fill" transform="translate(-112.095 -20.822) scale(.35154)"/><path fill="#ff5150" d="M36.383 34.838l-6.6-6.913 23.416-15.752z" paint-order="markers stroke fill"/><path fill="#f1f1f1" d="M36.383 34.838l-6.6-6.913L12.966 50.59z" paint-order="markers stroke fill"/><path d="M12.967 50.59l23.416-15.752L53.2 12.173z" opacity=".243"/></svg><view id="browsers--yandex" viewBox="91.22 31.82 32 32"/><svg viewBox="0 0 48 48" width="32" height="32" x="91.22" y="31.82" xmlns="http://www.w3.org/2000/svg"><defs><linearGradient gradientUnits="userSpaceOnUse" y2="516.48" x2="0" y1="546.93" id="ga" gradientTransform="matrix(2.65716 0 0 2.66062 -1654.273 -2219.2)"><stop stop-color="#d3d3d3"/><stop offset="1" stop-color="#fcf9f9"/></linearGradient></defs><ellipse cy="24.003" cx="23.979" rx="22.821" ry="22.836" fill="#fff" stroke="url(#ga)" stroke-width="2.327"/><path d="M12.85 9.508L8.608 13.75l12.4 12.401v14.742h6V26.135L39.393 13.75l-4.242-4.242L24 20.659 12.85 9.508" fill="red"/></svg><view id="safety" viewBox="62.980000000000004 32 27.87 32"/><svg width="27.87" height="32" fill="none" viewBox="0 0 54 62" x="62.980000000000004" y="32" xmlns="http://www.w3.org/2000/svg"><path clip-rule="evenodd" d="M5.375 47.27a30.489 30.489 0 01-5.12-16.963V9.095L27 .173l26.744 8.92v21.215a30.489 30.489 0 01-18.807 28.215L27 61.827l-7.937-3.304A30.488 30.488 0 015.375 47.27zM27 8.225L7.897 14.595v15.713a22.866 22.866 0 0014.108 21.166L27 53.556l4.995-2.082a22.867 22.867 0 0014.108-21.166V14.595L27 8.225zM23.18 46.23v-8.31a11.462 11.462 0 117.64 0v8.31h-7.64zm5.942-22.28a3.82 3.82 0 10-4.245 6.353 3.82 3.82 0 004.245-6.353z"/></svg></svg>