<svg width="64" height="64" viewBox="0 0 64 64" fill="none" xmlns="http://www.w3.org/2000/svg">
<path d="M64 32C64 49.6823 49.6823 64 32 64C14.3177 64 0 49.6823 0 32C0 14.3177 14.3177 0 32 0C49.6823 0 64 14.3177 64 32Z" fill="#4D67D5"/>
<path d="M32 7.3006V32H56.7436C56.7147 18.3756 45.6244 7.32955 32 7.3006Z" fill="#9CB5BE"/>
<path d="M31.9665 7.29602C18.304 7.29602 7.25334 18.3756 7.22591 32H32V7.30059C32 7.30059 31.9832 7.29602 31.9665 7.29602Z" fill="#E1EBEE"/>
<path d="M32 56.381V32H7.24265C7.27465 45.7143 16.7619 56.352 32 56.381Z" fill="#9CB5BE"/>
<path d="M32 19.8949V32H19.715C19.715 32.125 19.712 32.1098 19.712 32.1631C19.712 38.941 25.2053 44.4374 31.9862 44.4374C38.7642 44.4374 44.2407 38.9456 44.2407 32.1646C44.2392 25.405 38.7504 19.9238 32 19.8949Z" fill="#DAE6E9"/>
<path d="M32 19.8948C32 19.8948 31.9832 19.8903 31.9665 19.8903C25.2419 19.8903 19.8019 25.376 19.715 32H32V19.8948Z" fill="white"/>
<path d="M31.9847 38.464C35.5219 38.464 38.3893 35.5966 38.3893 32.0594C38.3893 28.5223 35.5219 25.6548 31.9847 25.6548C28.4476 25.6548 25.5802 28.5223 25.5802 32.0594C25.5802 35.5966 28.4476 38.464 31.9847 38.464Z" fill="white"/>
<path d="M56.7984 31.3874C56.5897 27.1573 55.9253 26.5143 54.944 25.7752C53.9169 25.0011 52.6491 25.8423 52.6491 25.8423C52.6491 25.8423 46.5645 29.0575 45.2312 29.9642C44.1036 30.7307 44.1904 31.6465 44.1904 31.9223C44.1904 31.9451 44.1904 32 44.1904 32H56.8152C56.8167 31.7501 56.8122 31.4651 56.7984 31.3874Z" fill="white"/>
<path d="M45.2739 33.8835C46.6072 34.7917 52.6507 38.0084 52.6507 38.0084C52.6507 38.0084 53.9185 38.8496 54.9455 38.0755C55.9269 37.3364 56.5912 36.6888 56.8 32.4587C56.8107 32.3947 56.8152 32.2484 56.8168 31.9985H44.2758C44.2636 32.3749 44.2377 33.1795 45.2739 33.8835Z" fill="#AFC7CF"/>
</svg>
