<svg width="428" height="199" viewBox="0 0 428 199" fill="none" xmlns="http://www.w3.org/2000/svg">
<g opacity="0.66">
<path fill-rule="evenodd" clip-rule="evenodd" d="M0 39.0633C0 17.4892 17.4892 0 39.0633 0H387.97C409.544 0 427.033 17.4892 427.033 39.0633V159.804C427.033 181.378 409.544 198.868 387.97 198.868H39.0633C17.4892 198.868 0 181.378 0 159.804V39.0633ZM39.0633 21.3073C29.2569 21.3073 21.3073 29.2569 21.3073 39.0633V159.804C21.3073 169.611 29.2569 177.56 39.0633 177.56H387.97C397.776 177.56 405.726 169.611 405.726 159.804V39.0633C405.726 29.2569 397.776 21.3073 387.97 21.3073H39.0633Z" fill="#3B5ADC"/>
<path d="M82.9124 104.136L43.3428 93.2123L51.2325 70.2716L89.9524 86.1723L86.9179 43.4468H112.893L109.737 87.0219L147.365 71.4854L155.254 94.6688L115.199 105.593L141.781 137.758L120.783 152.081L98.5704 116.396L76.2366 150.867L55.238 137.152L82.9124 104.136Z" fill="#3B5ADC"/>
<path d="M198.465 104.136L158.896 93.2123L166.785 70.2716L205.505 86.1723L202.471 43.4468H228.446L225.29 87.0219L262.918 71.4854L270.807 94.6688L230.752 105.593L257.334 137.758L236.336 152.081L214.123 116.396L191.79 150.867L170.791 137.152L198.465 104.136Z" fill="#3B5ADC"/>
<path d="M314.018 104.136L274.449 93.2123L282.339 70.2716L321.058 86.1723L318.024 43.4468H343.999L340.843 87.0219L378.471 71.4854L386.361 94.6688L346.305 105.593L372.887 137.758L351.889 152.081L329.676 116.396L307.343 150.867L286.344 137.152L314.018 104.136Z" fill="#3B5ADC"/>
</g>
</svg>
