<svg width="481" height="164" viewBox="0 0 481 164" fill="none" xmlns="http://www.w3.org/2000/svg">
<g opacity="0.66">
<rect x="12" y="12" width="457" height="200" rx="32" stroke="#3B5ADC" stroke-width="24"/>
<path d="M93.3906 117.297L48.8203 104.992L57.707 79.1523L101.32 97.0625L97.9023 48.9375H127.16L123.605 98.0195L165.988 80.5195L174.875 106.633L129.758 118.938L159.699 155.168L136.047 171.301L111.027 131.105L85.8711 169.934L62.2188 154.484L93.3906 117.297ZM223.547 117.297L178.977 104.992L187.863 79.1523L231.477 97.0625L228.059 48.9375H257.316L253.762 98.0195L296.145 80.5195L305.031 106.633L259.914 118.938L289.855 155.168L266.203 171.301L241.184 131.105L216.027 169.934L192.375 154.484L223.547 117.297ZM353.703 117.297L309.133 104.992L318.02 79.1523L361.633 97.0625L358.215 48.9375H387.473L383.918 98.0195L426.301 80.5195L435.188 106.633L390.07 118.938L420.012 155.168L396.359 171.301L371.34 131.105L346.184 169.934L322.531 154.484L353.703 117.297Z" fill="#3B5ADC"/>
</g>
</svg>
