<svg width="398" height="398" viewBox="0 0 398 398" fill="none" xmlns="http://www.w3.org/2000/svg">
<mask id="mask0_2230_534" style="mask-type:alpha" maskUnits="userSpaceOnUse" x="0" y="0" width="387" height="398">
<path fill-rule="evenodd" clip-rule="evenodd" d="M386.25 132.614C385.628 132.121 385 131.634 384.368 131.144L384.205 131.017C373.248 122.505 357.03 130.38 357.03 130.38C357.03 130.38 292.115 165.733 277.89 175.702C267.25 183.155 267.537 193.073 267.657 197.233C267.665 197.498 267.672 197.74 267.675 197.956C267.682 198.399 267.682 198.842 267.682 199.286V199.422H267.698C267.567 203.567 267.806 215.154 278.92 222.884C293.24 232.87 358.147 268.239 358.147 268.239C358.147 268.239 373.058 274.772 384.088 266.261L384.21 266.167C384.978 265.575 385.74 264.987 386.495 264.388C359.426 341.76 285.778 397.255 199.168 397.255C89.5914 397.255 0.761719 308.425 0.761719 198.848C0.761719 89.2712 89.5914 0.441528 199.168 0.441528C285.519 0.441528 358.985 55.6049 386.25 132.614Z" fill="#24FF00"/>
</mask>
<g mask="url(#mask0_2230_534)">
<circle cx="199.168" cy="198.848" r="196.907" stroke="#1F39A3" stroke-width="3"/>
<circle cx="199.168" cy="198.848" r="137.385" stroke="#1F39A3" stroke-width="3"/>
<mask id="mask1_2230_534" style="mask-type:alpha" maskUnits="userSpaceOnUse" x="2" y="2" width="394" height="394">
<path fill-rule="evenodd" clip-rule="evenodd" d="M199.284 395.271C307.765 395.271 395.706 307.329 395.706 198.848C395.706 90.3669 307.765 2.42554 199.284 2.42554C90.8027 2.42554 2.86133 90.3669 2.86133 198.848C2.86133 307.329 90.8027 395.271 199.284 395.271ZM199.284 336.344C275.221 336.344 336.78 274.785 336.78 198.848C336.78 122.911 275.221 61.3522 199.284 61.3522C123.347 61.3522 61.7879 122.911 61.7879 198.848C61.7879 274.785 123.347 336.344 199.284 336.344Z" fill="black"/>
</mask>
<g mask="url(#mask1_2230_534)">
<rect x="0.876953" y="0.441406" width="198.291" height="198.989" fill="#1F39A3"/>
<rect x="199.4" y="199.443" width="198.291" height="198.989" fill="#1F39A3"/>
</g>
<circle cx="199.168" cy="198.848" r="66.5508" stroke="#1F39A3" stroke-width="3"/>
<mask id="mask2_2230_534" style="mask-type:alpha" maskUnits="userSpaceOnUse" x="131" y="131" width="136" height="136">
<circle cx="199.167" cy="198.848" r="67.4583" fill="black"/>
</mask>
<g mask="url(#mask2_2230_534)">
<rect x="131.117" y="130.797" width="68.0507" height="136.102" fill="#1F39A3"/>
</g>
</g>
<path d="M394.653 194.045L395.149 193.979L395.148 193.968L395.146 193.958L395.119 193.803L395.111 193.647C394.08 172.764 391.931 161.056 388.978 153.723C386.11 146.601 382.458 143.516 377.747 139.968L377.747 139.968L377.747 139.968C373.498 136.766 368.702 136.832 364.699 137.852C362.707 138.36 360.988 139.089 359.764 139.694C359.156 139.996 358.677 140.263 358.359 140.449L358.612 140.881L358.359 140.449C358.2 140.542 358.081 140.615 358.006 140.662L357.961 140.691L357.961 140.691L357.932 140.709L357.928 140.712L357.928 140.711L357.918 140.718L357.916 140.72L357.915 140.72L357.915 140.72L357.914 140.721L357.913 140.721L357.911 140.723L357.814 140.787L357.026 141.204L357.026 141.204C356.582 141.439 355.93 141.785 355.094 142.228C353.423 143.115 351.021 144.393 348.096 145.954C342.247 149.076 334.312 153.331 325.966 157.866C309.206 166.974 290.986 177.103 284.516 181.503C279.382 184.993 277.151 188.71 276.146 191.735C275.53 193.592 275.352 195.229 275.308 196.57L275.291 197.087H275.808H394.76H395.269L395.26 196.578C395.257 196.372 395.253 196.17 395.248 195.975C395.235 195.435 395.218 194.962 395.197 194.588C395.185 194.377 395.174 194.229 395.165 194.132C395.163 194.111 395.161 194.092 395.16 194.076C395.158 194.054 395.156 194.036 395.154 194.022L395.151 193.992L395.15 193.984L395.149 193.981L395.149 193.98L395.149 193.979L395.149 193.979L395.149 193.979L394.653 194.045ZM356.769 139.077L356.792 139.065L356.812 139.052L356.812 139.052L356.812 139.052L356.813 139.051L356.819 139.047L356.843 139.032C356.865 139.017 356.899 138.996 356.945 138.967C357.035 138.911 357.171 138.827 357.348 138.724C357.702 138.516 358.221 138.227 358.877 137.902C360.19 137.252 362.043 136.465 364.205 135.914C368.532 134.811 374.034 134.665 378.95 138.371L378.951 138.371C383.778 142.006 387.767 145.36 390.833 152.976C393.917 160.634 396.076 172.623 397.108 193.548L397.11 193.579L397.115 193.61C397.188 194.022 397.237 195.167 397.261 196.595C397.267 196.977 397.271 197.375 397.274 197.78C397.277 198.374 397.277 198.981 397.274 199.569L397.271 200.072H397.286C397.267 202.251 397.22 203.501 397.129 204.045L397.124 204.073L397.123 204.103C396.083 225.027 393.91 237.027 390.806 244.697C387.719 252.324 383.703 255.689 378.844 259.324L378.843 259.324C373.893 263.031 368.352 262.885 363.994 261.781C361.818 261.23 359.952 260.443 358.63 259.793C357.97 259.469 357.447 259.179 357.09 258.971C356.912 258.868 356.775 258.785 356.684 258.728C356.663 258.715 356.645 258.703 356.628 258.693C356.61 258.681 356.594 258.671 356.582 258.663L356.558 258.648L356.552 258.644L356.551 258.643L356.551 258.643L356.551 258.643L356.531 258.63L356.51 258.619L356.276 259.061C356.51 258.619 356.509 258.619 356.509 258.618L356.507 258.617L356.499 258.613L356.466 258.596L356.337 258.527L355.83 258.259C355.386 258.024 354.733 257.678 353.897 257.233C352.225 256.345 349.821 255.067 346.894 253.504C341.042 250.379 333.1 246.119 324.744 241.577C308.018 232.488 289.668 222.294 283.05 217.816L283.049 217.816C277.974 214.391 275.528 210.745 274.354 207.527C273.176 204.299 273.263 201.462 273.323 199.603L273.34 199.087H273.308V198.818C273.308 198.652 273.305 198.464 273.302 198.262L273.302 198.259C273.275 196.645 273.23 193.801 274.467 190.484C275.701 187.175 278.224 183.361 283.391 179.849L283.391 179.849C289.965 175.379 308.294 165.193 325.011 156.109C333.363 151.571 341.303 147.313 347.155 144.189C350.08 142.627 352.484 141.349 354.157 140.462C354.993 140.018 355.646 139.672 356.09 139.437L356.596 139.169L356.726 139.1L356.759 139.083L356.767 139.079L356.769 139.077C356.769 139.077 356.769 139.077 356.536 138.635L356.769 139.077Z" fill="#1F39A3" stroke="#1F39A3"/>
</svg>
