<svg xmlns="http://www.w3.org/2000/svg" fill="none" viewBox="0 0 222 56">
    <style>
        @media (max-width: 992px) {
            #name {
                display: none;
            }
        }
    </style>
    <g id="name">
        <path fill="#fff"
            d="M70.56 26.48c0-1.38-.176-2.374-.53-2.98-.335-.623-.974-.934-1.915-.934-.337 0-.706.025-1.11.075-.403.05-.706.093-.907.127v10.655h-3.051V20.646c.588-.168 1.353-.328 2.294-.48a19.367 19.367 0 0 1 3.026-.227c.907 0 1.647.118 2.219.354.588.236 1.075.547 1.462.934a6.318 6.318 0 0 1 1.664-.833 7.695 7.695 0 0 1 1.11-.328 5.909 5.909 0 0 1 1.21-.127c1.025 0 1.866.152 2.521.455.672.286 1.194.699 1.563 1.237.387.522.647 1.162.782 1.92.151.74.227 1.557.227 2.449v7.423h-3.051V26.48c0-1.38-.168-2.373-.504-2.98-.336-.622-.983-.933-1.942-.933-.487 0-.95.084-1.386.252-.437.152-.765.303-.984.455.135.42.227.867.278 1.338.05.471.075.976.075 1.515v7.297h-3.05V26.48Zm24.363 6.54c-.589.15-1.354.302-2.295.454a17.69 17.69 0 0 1-3.101.252c-1.06 0-1.95-.151-2.673-.454-.706-.303-1.277-.724-1.714-1.263-.42-.538-.723-1.178-.908-1.919a10.424 10.424 0 0 1-.277-2.474v-7.399h3.05v6.919c0 1.414.202 2.424.606 3.03.42.606 1.143.909 2.168.909.37 0 .756-.017 1.16-.05.42-.034.731-.076.933-.127v-10.68h3.05v12.801Zm7.715.656c-.908-.017-1.664-.118-2.269-.303-.588-.185-1.06-.446-1.412-.783a3.013 3.013 0 0 1-.756-1.288 7.095 7.095 0 0 1-.202-1.767V14.334l3.051-.505v15.125c0 .37.025.682.075.934.068.253.177.472.328.657.151.168.353.303.605.404a5.89 5.89 0 0 0 1.009.202l-.429 2.525Zm1.989-16.943 3.051-.505v3.99h4.689v2.55h-4.689v5.378c0 1.06.168 1.818.504 2.273.336.454.908.681 1.714.681.555 0 1.043-.059 1.463-.177a9.747 9.747 0 0 0 1.034-.328l.504 2.424c-.353.152-.815.303-1.387.455-.571.168-1.244.252-2.017.252-.941 0-1.731-.126-2.37-.378-.622-.253-1.118-.615-1.488-1.086-.369-.488-.63-1.07-.781-1.742-.152-.69-.227-1.473-.227-2.349V16.733Zm13.009 16.69h-3.051V20.217h3.051v13.206Zm.328-17.07c0 .573-.185 1.028-.555 1.364-.37.337-.807.506-1.311.506-.521 0-.966-.169-1.336-.505-.37-.337-.555-.792-.555-1.364 0-.59.185-1.052.555-1.389.37-.336.815-.505 1.336-.505.504 0 .941.168 1.311.505.37.337.555.8.555 1.389Z" />
        <path fill="#6583FF"
            d="M128.859 26.126c0-1.342-.311-2.386-.931-3.13-.605-.746-1.586-1.119-2.945-1.119-.286 0-.588.017-.907.05a4.314 4.314 0 0 0-.906.149v7.429c.269.182.621.356 1.058.521.453.15.931.224 1.434.224 1.108 0 1.913-.372 2.417-1.118.52-.745.78-1.747.78-3.006Zm3.121-.05c0 .994-.134 1.905-.403 2.733-.251.828-.621 1.54-1.107 2.137a4.942 4.942 0 0 1-1.838 1.391c-.721.331-1.543.497-2.466.497a6.197 6.197 0 0 1-1.712-.224 6.465 6.465 0 0 1-1.284-.496v5.043h-3.045V19.99a24.516 24.516 0 0 1 2.29-.472 17.67 17.67 0 0 1 2.87-.224c1.04 0 1.971.157 2.794.472.822.315 1.518.77 2.089 1.367.587.58 1.032 1.292 1.334 2.136.319.829.478 1.764.478 2.808Zm7.015 4.373c.94 0 1.653-.05 2.14-.15v-3.328a6.904 6.904 0 0 0-1.788-.224 7.4 7.4 0 0 0-1.032.074c-.335.05-.646.141-.931.274a1.67 1.67 0 0 0-.654.571c-.168.232-.252.53-.252.895 0 .712.227 1.209.68 1.49.453.265 1.065.398 1.837.398Zm-.252-11.206c1.007 0 1.855.125 2.543.373.688.248 1.233.596 1.636 1.044.419.447.713.993.881 1.64.184.629.276 1.325.276 2.087v7.876c-.469.1-1.183.215-2.139.348-.94.149-2.005.223-3.197.223-.788 0-1.51-.074-2.164-.224-.655-.149-1.217-.389-1.687-.72a3.564 3.564 0 0 1-1.082-1.292c-.252-.53-.378-1.184-.378-1.963 0-.745.143-1.375.428-1.888a3.593 3.593 0 0 1 1.208-1.242 4.898 4.898 0 0 1 1.737-.696 9.608 9.608 0 0 1 2.089-.224c.336 0 .688.025 1.058.075.369.033.763.1 1.183.199v-.497c0-.348-.042-.68-.126-.994a1.888 1.888 0 0 0-.453-.82 1.908 1.908 0 0 0-.831-.572c-.336-.132-.764-.198-1.284-.198-.704 0-1.351.05-1.938.149-.587.1-1.065.215-1.435.348l-.377-2.435c.386-.133.948-.265 1.686-.398a13.4 13.4 0 0 1 2.366-.199ZM150.351 30.4c.806 0 1.393-.092 1.762-.274.369-.199.554-.53.554-.994 0-.43-.201-.787-.604-1.068-.386-.282-1.032-.588-1.938-.92a19.506 19.506 0 0 1-1.536-.62 5.65 5.65 0 0 1-1.183-.796 3.408 3.408 0 0 1-.805-1.068c-.185-.43-.277-.953-.277-1.566 0-1.192.445-2.128 1.334-2.807.89-.696 2.098-1.044 3.625-1.044.772 0 1.51.075 2.215.224.704.133 1.233.265 1.585.398l-.553 2.434a6.948 6.948 0 0 0-1.284-.397c-.52-.133-1.124-.199-1.812-.199-.621 0-1.125.108-1.51.323-.386.199-.579.514-.579.944 0 .216.033.406.1.572.084.165.218.323.403.472.185.132.428.273.73.422.302.133.671.273 1.107.423.722.265 1.334.53 1.838.795.503.248.914.538 1.233.87.336.314.579.678.73 1.092.151.415.227.912.227 1.491 0 1.242-.47 2.187-1.41 2.833-.923.63-2.248.944-3.977.944-1.158 0-2.089-.1-2.794-.298-.704-.182-1.199-.332-1.485-.448l.529-2.509c.453.182.99.356 1.611.522.637.165 1.359.248 2.164.248Zm10.749 0c.805 0 1.393-.092 1.762-.274.369-.199.554-.53.554-.994 0-.43-.202-.787-.604-1.068-.386-.282-1.032-.588-1.939-.92a19.635 19.635 0 0 1-1.535-.62 5.65 5.65 0 0 1-1.183-.796 3.392 3.392 0 0 1-.805-1.068c-.185-.43-.277-.953-.277-1.566 0-1.192.444-2.128 1.334-2.807.889-.696 2.097-1.044 3.624-1.044.772 0 1.51.075 2.215.224.705.133 1.234.265 1.586.398l-.554 2.434a6.911 6.911 0 0 0-1.283-.397c-.521-.133-1.125-.199-1.813-.199-.621 0-1.124.108-1.51.323-.386.199-.579.514-.579.944 0 .216.034.406.101.572.084.165.218.323.403.472.184.132.427.273.729.422.303.133.672.273 1.108.423.722.265 1.334.53 1.837.795.504.248.915.538 1.234.87.335.314.579.678.73 1.092.151.415.226.912.226 1.491 0 1.242-.47 2.187-1.409 2.833-.923.63-2.249.944-3.977.944-1.158 0-2.089-.1-2.794-.298-.705-.182-1.2-.332-1.485-.448l.528-2.509c.453.182.99.356 1.611.522.638.165 1.359.248 2.165.248Zm15.304-6.013a79.743 79.743 0 0 1-1.258 4.273 121.324 121.324 0 0 1-1.309 3.9h-2.492a52.346 52.346 0 0 1-1.057-2.608 84.907 84.907 0 0 1-1.108-3.13 128.79 128.79 0 0 1-1.107-3.504 168.36 168.36 0 0 1-1.082-3.752h3.221c.151.696.328 1.45.529 2.261.201.795.411 1.615.629 2.46.218.828.445 1.64.68 2.435.235.795.47 1.524.705 2.186.251-.762.495-1.548.73-2.36.251-.811.486-1.623.704-2.435.218-.811.42-1.598.604-2.36.202-.779.378-1.508.529-2.187h2.341c.151.68.319 1.408.503 2.187.185.762.378 1.549.579 2.36.218.812.445 1.623.68 2.435.251.812.503 1.599.755 2.36a84.282 84.282 0 0 0 1.359-4.621c.235-.845.453-1.665.654-2.46a77.24 77.24 0 0 0 .529-2.26h3.146a168.794 168.794 0 0 1-1.082 3.751 128.79 128.79 0 0 1-1.107 3.503 84.907 84.907 0 0 1-1.108 3.131c-.369.977-.73 1.847-1.082 2.609h-2.467a335.385 335.385 0 0 1-1.359-3.901 79.744 79.744 0 0 1-1.259-4.273Zm22.692 1.664c0 1.027-.151 1.963-.453 2.808-.303.844-.73 1.565-1.284 2.161a5.746 5.746 0 0 1-2.014 1.392c-.772.331-1.627.497-2.567.497-.94 0-1.796-.166-2.568-.497a5.81 5.81 0 0 1-1.988-1.392c-.554-.596-.99-1.317-1.309-2.161-.302-.845-.453-1.78-.453-2.808 0-1.027.151-1.954.453-2.783.319-.844.755-1.565 1.309-2.161a5.764 5.764 0 0 1 2.014-1.367c.771-.331 1.619-.497 2.542-.497.923 0 1.77.166 2.542.497.789.315 1.46.77 2.014 1.367.553.596.981 1.317 1.283 2.161.319.829.479 1.756.479 2.783Zm-3.122 0c0-1.292-.285-2.31-.855-3.056-.554-.762-1.334-1.143-2.341-1.143-1.007 0-1.796.381-2.366 1.143-.554.745-.831 1.764-.831 3.056 0 1.309.277 2.344.831 3.106.57.762 1.359 1.143 2.366 1.143 1.007 0 1.787-.381 2.341-1.143.57-.762.855-1.797.855-3.106Zm13.005-3.776a8.396 8.396 0 0 0-1.057-.249 6.982 6.982 0 0 0-2.618-.05 6.56 6.56 0 0 0-.78.174v10.41h-3.046V20.188c.587-.215 1.317-.414 2.19-.596.889-.199 1.871-.298 2.945-.298.201 0 .436.017.705.05.268.016.537.05.805.1.269.032.529.082.78.148.252.05.453.1.604.15l-.528 2.534Zm4.287 3.751c0 1.325.319 2.369.956 3.13.638.746 1.519 1.119 2.643 1.119.487 0 .898-.017 1.234-.05.352-.05.637-.1.855-.149v-7.454c-.268-.182-.629-.347-1.082-.497a3.937 3.937 0 0 0-1.409-.248c-1.108 0-1.922.373-2.442 1.118-.503.745-.755 1.756-.755 3.031ZM222 32.163c-.604.183-1.368.348-2.29.497a17.68 17.68 0 0 1-2.87.224c-1.04 0-1.972-.157-2.794-.472a6.042 6.042 0 0 1-2.114-1.342 6.345 6.345 0 0 1-1.334-2.137c-.302-.845-.453-1.789-.453-2.832 0-1.027.126-1.955.377-2.783.269-.845.655-1.565 1.158-2.162a4.978 4.978 0 0 1 1.838-1.366c.721-.331 1.552-.497 2.491-.497.638 0 1.2.075 1.687.224.486.149.906.314 1.258.497v-6.237L222 13.28v18.883Z" />

    </g>
    <path fill="#3B5ADC"
        d="M55.835 27.918c0 15.426-12.491 27.917-27.918 27.917C12.492 55.835 0 43.344 0 27.917 0 12.492 12.491 0 27.918 0c15.426 0 27.917 12.491 27.917 27.918Z" />
    <path fill="#9CB5BE" d="M27.918 6.37v21.547h21.586c-.025-11.886-9.7-21.523-21.586-21.548Z" />
    <path fill="#E1EBEE" d="M27.888 6.365c-11.92 0-21.56 9.666-21.584 21.552h21.614V6.37s-.015-.004-.03-.004Z" />
    <path fill="#9CB5BE" d="M27.918 49.188v-21.27h-21.6c.029 11.964 8.306 21.245 21.6 21.27Z" />
    <path fill="#DAE6E9"
        d="M27.918 17.357v10.56H17.2c0 .11-.003.096-.003.143 0 5.913 4.793 10.708 10.709 10.708 5.913 0 10.69-4.791 10.69-10.707 0-5.897-4.79-10.679-10.678-10.704Z" />
    <path fill="#fff" d="M27.918 17.357s-.015-.004-.03-.004c-5.866 0-10.612 4.785-10.688 10.564h10.718v-10.56Z" />
    <path fill="#fff"
        d="M27.904 33.557a5.588 5.588 0 1 0 0-11.175 5.588 5.588 0 0 0 0 11.175Zm21.648-6.174c-.182-3.69-.761-4.251-1.618-4.896-.896-.675-2.002.058-2.002.058s-5.308 2.805-6.471 3.596c-.984.67-.908 1.468-.908 1.709v.067h11.014a5.208 5.208 0 0 0-.015-.534Z" />
    <path fill="#AFC7CF"
        d="M39.498 29.56c1.163.793 6.436 3.6 6.436 3.6s1.106.733 2.002.058c.856-.645 1.435-1.21 1.618-4.9a3.6 3.6 0 0 0 .014-.402h-10.94c-.011.329-.034 1.03.87 1.645Z" />
</svg>