<svg width="388" height="262" viewBox="0 0 388 262" fill="none" xmlns="http://www.w3.org/2000/svg">
<path d="M190.308 80.5356C190.888 80.0899 191.727 79.7757 192.678 79.6479C193.628 79.5201 194.631 79.5868 195.509 79.8364C232.221 88.1864 268.914 96.466 305.588 104.675C306.448 104.842 307.228 105.121 307.867 105.49C308.506 105.859 308.985 106.307 309.266 106.799C323.233 127.901 337.298 148.949 351.461 169.942C351.912 170.391 352.065 170.917 351.889 171.422C351.713 171.928 351.222 172.378 350.505 172.691C333.054 182.464 315.583 192.248 298.035 201.965C292.281 205.148 286.11 208.078 279.575 210.731C258.74 219.163 234.577 224.575 209.162 226.501C176.579 229.032 145.495 226.34 116.329 217.217C113.134 216.256 110.536 214.756 108.894 212.925C94.4095 197.501 88.9132 179.891 93.204 162.653C97.4413 142.287 113.781 123.407 139.522 109.132C147.071 104.904 154.601 100.687 162.15 96.4597C171.581 91.1779 181.013 85.896 190.308 80.5356ZM269.267 194.7L271.895 196.217C272.698 195.767 273.502 195.45 274.168 195.076C289.854 186.292 305.495 177.533 321.09 168.799C321.726 168.565 322.191 168.208 322.402 167.794C322.612 167.38 322.554 166.935 322.238 166.54C311.273 150.308 300.381 134.051 289.561 117.768C289.29 117.366 288.901 116.986 288.475 116.45C287.71 116.878 287.161 117.186 286.612 117.493C261.541 131.534 236.475 145.571 211.416 159.605C210.867 159.912 210.318 160.22 209.886 160.617C209.341 160.302 208.953 159.9 208.389 159.574L149.593 125.628C149.126 125.358 148.639 125.078 148.172 124.808C120.387 143.512 104.943 177.905 130.435 205.112L210.062 160.518L269.267 194.7Z" fill="#2F58C0"/>
<path d="M84.1652 102.945L113.665 77.945L169.665 110.445L96.1652 152.445L81.6652 121.945L84.1652 102.945Z" fill="#00B3D0"/>
<path d="M257.29 72.07L285.54 113.695L240.54 139.07L212.415 123.57L189.415 110.195L257.29 72.07Z" fill="#00B3D0"/>
<path d="M158.53 37.7115C159.11 37.2659 159.949 36.9516 160.9 36.8238C161.851 36.696 162.853 36.7627 163.731 37.0123C200.443 45.3624 237.136 53.6419 273.81 61.851C274.67 62.0181 275.451 62.2973 276.09 62.6662C276.729 63.035 277.208 63.4831 277.489 63.9747C289.388 81.9539 308.18 94.5573 320.221 112.457C320.221 113.879 320.221 114.566 320.221 115.144C320.221 116.991 320.287 128.093 320.111 128.598C319.936 129.103 319.444 129.554 318.727 129.867C301.276 139.64 283.806 149.424 266.258 159.141C260.503 162.324 254.333 165.254 247.797 167.907C226.963 176.339 202.799 181.751 177.384 183.677C144.801 186.208 113.718 183.516 84.5516 174.393C81.3569 173.432 78.7588 171.932 77.117 170.101C62.632 154.677 57.1357 137.067 61.4266 119.829C65.6638 99.4629 82.0032 80.5827 107.745 66.3076C115.294 62.0799 122.823 57.8633 130.372 53.6356C139.804 48.3538 149.235 43.072 158.53 37.7115ZM237.49 151.876L240.117 153.393C240.921 152.943 241.724 152.626 242.391 152.252C258.077 143.468 273.717 134.708 289.312 125.975C289.948 125.741 290.414 125.384 290.624 124.97C290.835 124.555 290.777 124.111 290.46 123.716C279.496 107.484 268.604 91.2268 257.783 74.9439C257.512 74.5421 257.124 74.1619 256.698 73.6259C255.933 74.0541 255.384 74.3616 254.835 74.669C229.763 88.71 204.698 102.747 179.639 116.781C179.09 117.088 178.541 117.396 178.109 117.793C177.564 117.478 177.176 117.076 176.611 116.75L117.815 82.8041C117.348 82.5344 116.862 82.2535 116.394 81.9838C88.6091 100.688 73.1655 135.081 98.6577 162.287L178.285 117.694L237.49 151.876Z" fill="#099FB8"/>
<path d="M158.599 22.129C159.179 21.6834 160.018 21.3691 160.969 21.2413C161.92 21.1135 162.922 21.1803 163.8 21.4299C200.512 29.7799 237.205 38.0594 273.879 46.2685C274.739 46.4357 275.52 46.7149 276.159 47.0837C276.797 47.4525 277.276 47.9006 277.557 48.3922C291.524 69.4949 305.589 90.5427 319.752 111.536C320.204 111.985 320.356 112.51 320.18 113.016C320.005 113.521 319.513 113.972 318.796 114.284C301.345 124.057 283.875 133.841 266.326 143.558C260.572 146.741 254.401 149.672 247.866 152.325C227.032 160.757 202.868 166.168 177.453 168.095C144.87 170.625 113.786 167.933 84.6204 158.811C81.4256 157.849 78.8275 156.349 77.1857 154.518C62.7007 139.095 57.2044 121.484 61.4953 104.246C65.7325 83.8804 82.0719 65.0002 107.814 50.7251C115.363 46.4974 122.892 42.2808 130.441 38.0531C139.872 32.7713 149.304 27.4895 158.599 22.129ZM237.558 136.293L240.186 137.81C240.99 137.36 241.793 137.043 242.459 136.67C258.146 127.885 273.786 119.126 289.381 110.392C290.017 110.158 290.482 109.802 290.693 109.387C290.904 108.973 290.845 108.528 290.529 108.134C279.565 91.9017 268.672 75.6443 257.852 59.3614C257.581 58.9597 257.193 58.5794 256.766 58.0434C256.002 58.4716 255.453 58.7791 254.904 59.0866C229.832 73.1275 204.767 87.1647 179.708 101.198C179.159 101.506 178.61 101.813 178.177 102.21C177.632 101.896 177.244 101.493 176.68 101.167L117.884 67.2216C117.417 66.9519 116.93 66.671 116.463 66.4013C88.6779 85.1051 73.2343 119.498 98.7264 146.705L178.354 102.112L237.558 136.293Z" fill="#22D8F6"/>
<mask id="mask0" mask-type="alpha" maskUnits="userSpaceOnUse" x="60" y="21" width="261" height="148">
<path d="M158.599 22.129C159.179 21.6834 160.018 21.3691 160.969 21.2413C161.92 21.1135 162.922 21.1803 163.8 21.4299C200.512 29.7799 237.205 38.0594 273.879 46.2685C274.739 46.4357 275.52 46.7149 276.159 47.0837C276.797 47.4525 277.276 47.9006 277.557 48.3922C291.524 69.4949 305.589 90.5427 319.752 111.536C320.204 111.985 320.356 112.51 320.18 113.016C320.005 113.521 319.513 113.972 318.796 114.284C301.345 124.057 283.875 133.841 266.326 143.558C260.572 146.741 254.401 149.672 247.866 152.325C227.032 160.757 202.868 166.168 177.453 168.095C144.87 170.625 113.786 167.933 84.6204 158.811C81.4256 157.849 78.8275 156.349 77.1857 154.518C62.7007 139.095 57.2044 121.484 61.4953 104.246C65.7325 83.8804 82.0719 65.0002 107.814 50.7251C115.363 46.4974 122.892 42.2808 130.441 38.0531C139.872 32.7713 149.304 27.4895 158.599 22.129ZM237.558 136.293L240.186 137.81C240.99 137.36 241.793 137.043 242.459 136.67C258.146 127.885 273.786 119.126 289.381 110.392C290.017 110.158 290.482 109.802 290.693 109.387C290.904 108.973 290.845 108.528 290.529 108.134C279.565 91.9017 268.672 75.6443 257.852 59.3614C257.581 58.9597 257.193 58.5794 256.766 58.0434C256.002 58.4716 255.453 58.7791 254.904 59.0866C229.832 73.1275 204.767 87.1647 179.708 101.198C179.159 101.506 178.61 101.813 178.177 102.21C177.632 101.896 177.244 101.493 176.68 101.167L117.884 67.2216C117.417 66.9519 116.93 66.671 116.463 66.4013C88.6779 85.1051 73.2343 119.498 98.7264 146.705L178.354 102.112L237.558 136.293Z" fill="#22D8F6"/>
</mask>
<g mask="url(#mask0)">
<path opacity="0.75" d="M177.915 193.195V18.195L291.165 40.945L326.665 106.945L315.165 146.945L177.915 193.195Z" fill="#35C4DC"/>
<path d="M178.165 102.195L94.9152 53.945L60.1652 84.445L50.6652 135.445L72.1652 189.945L79.9152 157.32L178.165 102.195Z" fill="#00CFF1"/>
<path d="M177.165 101.945L319.665 110.445L281.165 44.445L177.165 101.945Z" fill="#3CDAF0"/>
</g>
</svg>
