<svg width="839" height="592" viewBox="0 0 839 592" fill="none" xmlns="http://www.w3.org/2000/svg">
<path d="M175.355 330.32L98.0952 285.195L0.536636 341.521L77.7964 386.645L175.355 330.32Z" fill="#304DC4" fill-opacity="0.75"/>
<path d="M175.355 330.32L98.0952 285.195L0.536636 341.521L77.7964 386.645L175.355 330.32Z" fill="url(#paint0_linear)" fill-opacity="0.15"/>
<path d="M276.232 391.482L198.972 346.357L101.414 402.683L178.674 447.807L276.232 391.482Z" fill="#304DC4" fill-opacity="0.75"/>
<path d="M276.232 391.482L198.972 346.357L101.414 402.683L178.674 447.807L276.232 391.482Z" fill="url(#paint1_linear)" fill-opacity="0.15"/>
<path d="M376.712 452.246L299.452 407.122L201.894 463.447L279.154 508.572L376.712 452.246Z" fill="#304DC4" fill-opacity="0.75"/>
<path d="M376.712 452.246L299.452 407.122L201.894 463.447L279.154 508.572L376.712 452.246Z" fill="url(#paint2_linear)" fill-opacity="0.15"/>
<path d="M477.589 513.408L400.33 468.284L302.771 524.609L380.031 569.733L477.589 513.408Z" fill="#304DC4" fill-opacity="0.75"/>
<path d="M477.589 513.408L400.33 468.284L302.771 524.609L380.031 569.733L477.589 513.408Z" fill="url(#paint3_linear)" fill-opacity="0.15"/>
<path d="M296.09 258.832L218.83 213.708L121.271 270.033L198.531 315.157L296.09 258.832Z" fill="#304DC4" fill-opacity="0.75"/>
<path d="M296.09 258.832L218.83 213.708L121.271 270.033L198.531 315.157L296.09 258.832Z" fill="url(#paint4_linear)" fill-opacity="0.15"/>
<path d="M396.967 319.994L319.707 274.869L222.149 331.195L299.409 376.319L396.967 319.994Z" fill="#304DC4" fill-opacity="0.75"/>
<path d="M396.967 319.994L319.707 274.869L222.149 331.195L299.409 376.319L396.967 319.994Z" fill="url(#paint5_linear)" fill-opacity="0.15"/>
<path d="M497.447 380.758L420.187 335.634L322.629 391.959L399.889 437.084L497.447 380.758Z" fill="#304DC4" fill-opacity="0.75"/>
<path d="M497.447 380.758L420.187 335.634L322.629 391.959L399.889 437.084L497.447 380.758Z" fill="url(#paint6_linear)" fill-opacity="0.15"/>
<path d="M598.324 441.92L521.065 396.796L423.506 453.121L500.766 498.246L598.324 441.92Z" fill="#304DC4" fill-opacity="0.75"/>
<path d="M598.324 441.92L521.065 396.796L423.506 453.121L500.766 498.246L598.324 441.92Z" fill="url(#paint7_linear)" fill-opacity="0.15"/>
<path d="M439.86 163.515L362.6 118.391L265.041 174.716L342.301 219.84L439.86 163.515Z" fill="#304DC4" fill-opacity="0.75"/>
<path d="M439.86 163.515L362.6 118.391L265.041 174.716L342.301 219.84L439.86 163.515Z" fill="url(#paint8_linear)" fill-opacity="0.15"/>
<path d="M516.908 248.506L439.648 203.382L342.089 259.707L419.349 304.831L516.908 248.506Z" fill="#304DC4" fill-opacity="0.75"/>
<path d="M516.908 248.506L439.648 203.382L342.089 259.707L419.349 304.831L516.908 248.506Z" fill="url(#paint9_linear)" fill-opacity="0.15"/>
<path d="M617.388 309.271L540.128 264.146L442.569 320.472L519.829 365.596L617.388 309.271Z" fill="#304DC4" fill-opacity="0.75"/>
<path d="M617.388 309.271L540.128 264.146L442.569 320.472L519.829 365.596L617.388 309.271Z" fill="url(#paint10_linear)" fill-opacity="0.15"/>
<path d="M718.265 370.432L641.005 325.308L543.447 381.634L620.707 426.758L718.265 370.432Z" fill="#304DC4" fill-opacity="0.75"/>
<path d="M718.265 370.432L641.005 325.308L543.447 381.634L620.707 426.758L718.265 370.432Z" fill="url(#paint11_linear)" fill-opacity="0.15"/>
<path d="M536.765 68.1979L459.506 23.0735L361.947 79.3989L439.207 124.523L536.765 68.1979Z" fill="#304DC4" fill-opacity="0.75"/>
<path d="M536.765 68.1979L459.506 23.0735L361.947 79.3989L439.207 124.523L536.765 68.1979Z" fill="url(#paint12_linear)" fill-opacity="0.15"/>
<path d="M637.643 137.303L560.383 92.1784L462.824 148.504L540.084 193.628L637.643 137.303Z" fill="#304DC4" fill-opacity="0.75"/>
<path d="M637.643 137.303L560.383 92.1784L462.824 148.504L540.084 193.628L637.643 137.303Z" fill="url(#paint13_linear)" fill-opacity="0.15"/>
<path d="M714.293 221.897L637.034 176.772L539.475 233.098L616.735 278.222L714.293 221.897Z" fill="#304DC4" fill-opacity="0.75"/>
<path d="M714.293 221.897L637.034 176.772L539.475 233.098L616.735 278.222L714.293 221.897Z" fill="url(#paint14_linear)" fill-opacity="0.15"/>
<path d="M839 298.945L761.74 253.82L664.182 310.146L741.442 355.27L839 298.945Z" fill="#304DC4" fill-opacity="0.75"/>
<path d="M839 298.945L761.74 253.82L664.182 310.146L741.442 355.27L839 298.945Z" fill="url(#paint15_linear)" fill-opacity="0.15"/>
<defs>
<linearGradient id="paint0_linear" x1="155.928" y1="296.671" x2="19.9638" y2="375.17" gradientUnits="userSpaceOnUse">
<stop stop-color="#31B5CB"/>
<stop offset="1" stop-color="#3451CC"/>
</linearGradient>
<linearGradient id="paint1_linear" x1="256.805" y1="357.833" x2="120.841" y2="436.332" gradientUnits="userSpaceOnUse">
<stop stop-color="#31B5CB"/>
<stop offset="1" stop-color="#3451CC"/>
</linearGradient>
<linearGradient id="paint2_linear" x1="357.285" y1="418.597" x2="221.321" y2="497.096" gradientUnits="userSpaceOnUse">
<stop stop-color="#31B5CB"/>
<stop offset="1" stop-color="#3451CC"/>
</linearGradient>
<linearGradient id="paint3_linear" x1="458.162" y1="479.759" x2="322.198" y2="558.258" gradientUnits="userSpaceOnUse">
<stop stop-color="#31B5CB"/>
<stop offset="1" stop-color="#3451CC"/>
</linearGradient>
<linearGradient id="paint4_linear" x1="276.663" y1="225.183" x2="140.699" y2="303.682" gradientUnits="userSpaceOnUse">
<stop stop-color="#31B5CB"/>
<stop offset="1" stop-color="#3451CC"/>
</linearGradient>
<linearGradient id="paint5_linear" x1="377.54" y1="286.345" x2="241.576" y2="364.844" gradientUnits="userSpaceOnUse">
<stop stop-color="#31B5CB"/>
<stop offset="1" stop-color="#3451CC"/>
</linearGradient>
<linearGradient id="paint6_linear" x1="478.02" y1="347.11" x2="342.056" y2="425.608" gradientUnits="userSpaceOnUse">
<stop stop-color="#31B5CB"/>
<stop offset="1" stop-color="#3451CC"/>
</linearGradient>
<linearGradient id="paint7_linear" x1="578.897" y1="408.271" x2="442.933" y2="486.77" gradientUnits="userSpaceOnUse">
<stop stop-color="#31B5CB"/>
<stop offset="1" stop-color="#3451CC"/>
</linearGradient>
<linearGradient id="paint8_linear" x1="420.432" y1="129.866" x2="284.469" y2="208.365" gradientUnits="userSpaceOnUse">
<stop stop-color="#31B5CB"/>
<stop offset="1" stop-color="#3451CC"/>
</linearGradient>
<linearGradient id="paint9_linear" x1="497.481" y1="214.857" x2="361.517" y2="293.356" gradientUnits="userSpaceOnUse">
<stop stop-color="#31B5CB"/>
<stop offset="1" stop-color="#3451CC"/>
</linearGradient>
<linearGradient id="paint10_linear" x1="597.961" y1="275.622" x2="461.997" y2="354.121" gradientUnits="userSpaceOnUse">
<stop stop-color="#31B5CB"/>
<stop offset="1" stop-color="#3451CC"/>
</linearGradient>
<linearGradient id="paint11_linear" x1="698.838" y1="336.784" x2="562.874" y2="415.282" gradientUnits="userSpaceOnUse">
<stop stop-color="#31B5CB"/>
<stop offset="1" stop-color="#3451CC"/>
</linearGradient>
<linearGradient id="paint12_linear" x1="517.338" y1="34.549" x2="381.374" y2="113.048" gradientUnits="userSpaceOnUse">
<stop stop-color="#31B5CB"/>
<stop offset="1" stop-color="#3451CC"/>
</linearGradient>
<linearGradient id="paint13_linear" x1="618.215" y1="103.654" x2="482.252" y2="182.153" gradientUnits="userSpaceOnUse">
<stop stop-color="#31B5CB"/>
<stop offset="1" stop-color="#3451CC"/>
</linearGradient>
<linearGradient id="paint14_linear" x1="694.866" y1="188.248" x2="558.902" y2="266.747" gradientUnits="userSpaceOnUse">
<stop stop-color="#31B5CB"/>
<stop offset="1" stop-color="#3451CC"/>
</linearGradient>
<linearGradient id="paint15_linear" x1="819.573" y1="265.296" x2="683.609" y2="343.795" gradientUnits="userSpaceOnUse">
<stop stop-color="#31B5CB"/>
<stop offset="1" stop-color="#3451CC"/>
</linearGradient>
</defs>
</svg>
