<svg width="529" height="253" viewBox="0 0 529 253" fill="none" xmlns="http://www.w3.org/2000/svg">
<path fill-rule="evenodd" clip-rule="evenodd" d="M0 -20.0966C0 -56.9033 29.8377 -86.741 66.6444 -86.741H661.9C698.707 -86.741 728.544 -56.9033 728.544 -20.0966V185.895C728.544 222.702 698.707 252.54 661.9 252.54H66.6444C29.8377 252.54 0 222.702 0 185.895V-20.0966ZM66.6444 -50.3895C49.9141 -50.3895 36.3515 -36.8269 36.3515 -20.0966V185.895C36.3515 202.625 49.9141 216.188 66.6444 216.188H661.9C678.63 216.188 692.193 202.625 692.193 185.895V-20.0966C692.193 -36.8269 678.63 -50.3895 661.9 -50.3895H66.6444Z" fill="#4364F2"/>
<path d="M141.453 90.9221L73.9453 72.2849L87.4055 33.1467L153.464 60.2742L148.287 -12.618H192.602L187.218 61.7238L251.413 35.2175L264.873 74.7699L196.537 93.4071L241.887 148.283L206.063 172.719L168.167 111.837L130.064 170.648L94.2392 147.248L141.453 90.9221Z" fill="#4364F2"/>
<path d="M338.594 90.9221L271.086 72.2849L284.546 33.1467L350.605 60.2742L345.428 -12.618H389.743L384.359 61.7238L448.554 35.2175L462.014 74.7699L393.677 93.4071L439.028 148.283L403.203 172.719L365.307 111.837L327.205 170.648L291.38 147.248L338.594 90.9221Z" fill="#4364F2"/>
<path d="M535.734 90.9221L468.226 72.2849L481.686 33.1467L547.745 60.2742L542.568 -12.618H586.883L581.499 61.7238L645.694 35.2175L659.154 74.7699L590.818 93.4071L636.168 148.283L600.344 172.719L562.448 111.837L524.345 170.648L488.52 147.248L535.734 90.9221Z" fill="#4364F2"/>
</svg>
