<svg width="407" height="292" viewBox="0 0 407 292" fill="none" xmlns="http://www.w3.org/2000/svg">
<circle cx="199.5" cy="199.5" r="198" fill="#2640AD" stroke="#1D34A7" stroke-width="3"/>
<circle cx="199.5" cy="199.5" r="138" fill="#2640AD" stroke="#1D34A7" stroke-width="3"/>
<mask id="mask0" mask-type="alpha" maskUnits="userSpaceOnUse" x="2" y="2" width="396" height="396">
<path fill-rule="evenodd" clip-rule="evenodd" d="M199.75 397.307C308.859 397.307 397.31 308.856 397.31 199.747C397.31 90.6374 308.859 2.18677 199.75 2.18677C90.6401 2.18677 2.18945 90.6374 2.18945 199.747C2.18945 308.856 90.6401 397.307 199.75 397.307ZM199.752 338.039C276.128 338.039 338.044 276.123 338.044 199.747C338.044 123.37 276.128 61.4547 199.752 61.4547C123.375 61.4547 61.4598 123.37 61.4598 199.747C61.4598 276.123 123.375 338.039 199.752 338.039Z" fill="black"/>
</mask>
<g mask="url(#mask0)">
<rect width="199" height="200" fill="#1D34A7"/>
<rect x="200" y="200" width="199" height="200" fill="#1D34A7"/>
</g>
<circle cx="199.5" cy="199.5" r="67" fill="#2640AD" stroke="#1D34A7" stroke-width="3"/>
<mask id="mask1" mask-type="alpha" maskUnits="userSpaceOnUse" x="132" y="132" width="136" height="136">
<circle cx="200" cy="200" r="68" fill="black"/>
</mask>
<g mask="url(#mask1)">
<rect x="131" y="131" width="68" height="137" fill="#1D34A7"/>
</g>
<mask id="path-9-outside-1" maskUnits="userSpaceOnUse" x="270.987" y="130.768" width="136" height="138" fill="black">
<rect fill="white" x="270.987" y="130.768" width="136" height="138"/>
<path fill-rule="evenodd" clip-rule="evenodd" d="M383.875 138.053C393.719 145.466 400.383 151.917 402.477 194.349C402.615 195.127 402.661 197.976 402.646 200.479H402.659C402.644 202.986 402.598 204.453 402.49 205.095C400.382 247.528 393.673 254.024 383.763 261.438C373.392 269.203 360.589 260.765 360.589 260.765C360.589 260.765 299.562 228.498 286.098 219.387C275.648 212.335 275.895 204.276 276.018 200.494H276.005V199.714C276.005 199.55 276.002 199.364 275.998 199.156C275.944 195.864 275.804 187.305 286.445 180.072C299.82 170.978 360.855 138.725 360.855 138.725C360.855 138.725 373.572 130.288 383.875 138.053Z"/>
</mask>
<path d="M402.477 194.349L398.482 194.546L398.495 194.797L398.538 195.044L402.477 194.349ZM383.875 138.053L381.467 141.247L381.468 141.248L383.875 138.053ZM402.646 200.479L398.646 200.455L398.621 204.479H402.646V200.479ZM402.659 200.479L406.659 200.504L406.684 196.479H402.659V200.479ZM402.49 205.095L398.545 204.434L398.506 204.664L398.495 204.897L402.49 205.095ZM383.763 261.438L381.367 258.235L381.366 258.236L383.763 261.438ZM360.589 260.765L362.791 257.425L362.63 257.319L362.459 257.229L360.589 260.765ZM286.098 219.387L288.339 216.075L288.335 216.072L286.098 219.387ZM276.018 200.494L280.016 200.624L280.151 196.494H276.018V200.494ZM276.005 200.494H272.005V204.494H276.005V200.494ZM275.998 199.156L279.998 199.091L279.998 199.091L275.998 199.156ZM286.445 180.072L288.693 183.381L288.694 183.38L286.445 180.072ZM360.855 138.725L362.724 142.262L362.9 142.169L363.066 142.058L360.855 138.725ZM406.472 194.152C405.421 172.85 403.213 160.069 399.793 151.575C396.236 142.743 391.438 138.741 386.281 134.857L381.468 141.248C386.156 144.778 389.611 147.707 392.372 154.563C395.268 161.755 397.439 173.416 398.482 194.546L406.472 194.152ZM406.645 200.503C406.653 199.223 406.645 197.844 406.617 196.672C406.593 195.644 406.549 194.403 406.416 193.654L398.538 195.044C398.527 194.982 398.547 195.094 398.57 195.508C398.59 195.864 398.607 196.325 398.62 196.863C398.645 197.935 398.653 199.232 398.646 200.455L406.645 200.503ZM402.659 196.479H402.646V204.479H402.659V196.479ZM406.435 205.757C406.609 204.722 406.645 202.866 406.659 200.504L398.659 200.455C398.652 201.696 398.637 202.644 398.612 203.345C398.599 203.695 398.585 203.963 398.571 204.161C398.555 204.374 398.543 204.448 398.545 204.434L406.435 205.757ZM386.159 264.641C391.351 260.756 396.18 256.743 399.76 247.9C403.204 239.392 405.427 226.597 406.485 205.294L398.495 204.897C397.445 226.026 395.26 237.696 392.344 244.898C389.565 251.764 386.084 254.706 381.367 258.235L386.159 264.641ZM360.589 260.765C358.388 264.105 358.39 264.106 358.391 264.107C358.391 264.107 358.393 264.108 358.394 264.109C358.396 264.11 358.398 264.112 358.401 264.114C358.406 264.117 358.412 264.121 358.419 264.125C358.432 264.134 358.448 264.144 358.468 264.157C358.507 264.182 358.559 264.215 358.623 264.255C358.751 264.334 358.927 264.441 359.148 264.57C359.589 264.827 360.212 265.171 360.987 265.552C362.528 266.309 364.718 267.236 367.305 267.891C372.446 269.193 379.644 269.519 386.16 264.64L381.366 258.236C377.511 261.122 373.122 261.112 369.269 260.136C367.359 259.652 365.701 258.955 364.516 258.373C363.929 258.084 363.471 257.83 363.172 257.656C363.022 257.569 362.913 257.502 362.848 257.462C362.816 257.442 362.795 257.428 362.785 257.422C362.78 257.418 362.778 257.417 362.779 257.418C362.779 257.418 362.78 257.419 362.782 257.42C362.783 257.421 362.785 257.422 362.786 257.422C362.787 257.423 362.788 257.424 362.788 257.424C362.789 257.425 362.791 257.425 360.589 260.765ZM283.856 222.7C290.79 227.392 309.626 237.847 326.483 247.007C334.964 251.616 343.022 255.939 348.959 259.11C351.928 260.695 354.367 261.992 356.065 262.894C356.913 263.345 357.577 263.696 358.028 263.935C358.254 264.055 358.426 264.146 358.543 264.208C358.601 264.239 358.645 264.262 358.675 264.278C358.689 264.286 358.701 264.291 358.708 264.295C358.712 264.297 358.715 264.299 358.717 264.3C358.718 264.3 358.718 264.301 358.719 264.301C358.719 264.301 358.72 264.301 360.589 260.765C362.459 257.229 362.459 257.229 362.458 257.229C362.458 257.229 362.457 257.228 362.456 257.228C362.455 257.227 362.452 257.225 362.448 257.224C362.441 257.22 362.43 257.214 362.415 257.206C362.386 257.191 362.343 257.168 362.285 257.137C362.17 257.076 361.998 256.985 361.773 256.866C361.324 256.628 360.663 256.278 359.817 255.828C358.124 254.929 355.69 253.635 352.728 252.053C346.801 248.888 338.761 244.575 330.303 239.978C313.28 230.727 294.87 220.493 288.339 216.075L283.856 222.7ZM272.021 200.364C271.957 202.31 271.823 205.94 273.335 210.085C274.874 214.303 277.988 218.74 283.86 222.703L288.335 216.072C283.757 212.982 281.77 209.863 280.851 207.343C279.905 204.75 279.956 202.46 280.016 200.624L272.021 200.364ZM276.005 204.494H276.018V196.494H276.005V204.494ZM272.005 199.714V200.494H280.005V199.714H272.005ZM271.999 199.222C272.002 199.439 272.005 199.59 272.005 199.714H280.005C280.005 199.511 280.001 199.289 279.998 199.091L271.999 199.222ZM284.196 176.764C278.212 180.832 275.05 185.438 273.463 189.695C271.898 193.892 271.971 197.49 271.999 199.222L279.998 199.091C279.972 197.53 279.947 195.204 280.959 192.49C281.948 189.836 284.037 186.546 288.693 183.381L284.196 176.764ZM360.855 138.725C358.986 135.189 358.986 135.189 358.985 135.189C358.985 135.189 358.984 135.19 358.983 135.19C358.981 135.191 358.978 135.193 358.974 135.195C358.967 135.199 358.956 135.204 358.941 135.212C358.911 135.228 358.867 135.251 358.809 135.282C358.693 135.344 358.52 135.435 358.294 135.555C357.843 135.794 357.18 136.145 356.331 136.596C354.633 137.496 352.194 138.793 349.226 140.378C343.289 143.547 335.232 147.867 326.756 152.474C309.911 161.627 291.089 172.077 284.196 176.765L288.694 183.38C295.175 178.973 313.559 168.749 330.575 159.503C339.029 154.909 347.067 150.598 352.993 147.435C355.955 145.854 358.389 144.56 360.081 143.662C360.928 143.213 361.589 142.862 362.038 142.625C362.263 142.506 362.434 142.415 362.55 142.354C362.607 142.323 362.651 142.3 362.68 142.285C362.695 142.277 362.706 142.271 362.713 142.267C362.717 142.265 362.719 142.264 362.721 142.263C362.722 142.263 362.723 142.262 362.723 142.262C362.723 142.262 362.724 142.262 360.855 138.725ZM386.282 134.858C379.797 129.97 372.63 130.297 367.513 131.601C364.94 132.257 362.761 133.185 361.229 133.943C360.458 134.325 359.838 134.669 359.399 134.927C359.179 135.055 359.004 135.163 358.877 135.242C358.814 135.282 358.762 135.315 358.723 135.34C358.703 135.353 358.687 135.363 358.674 135.372C358.667 135.376 358.661 135.38 358.656 135.384C358.654 135.385 358.651 135.387 358.649 135.388C358.648 135.389 358.647 135.39 358.646 135.39C358.645 135.391 358.643 135.392 360.855 138.725C363.066 142.058 363.065 142.059 363.064 142.06C363.063 142.06 363.062 142.061 363.062 142.061C363.06 142.062 363.059 142.063 363.058 142.064C363.056 142.065 363.055 142.066 363.054 142.066C363.053 142.067 363.055 142.065 363.06 142.062C363.07 142.056 363.091 142.043 363.123 142.022C363.187 141.982 363.295 141.916 363.444 141.829C363.741 141.655 364.195 141.401 364.777 141.113C365.952 140.532 367.596 139.836 369.489 139.353C373.308 138.38 377.65 138.37 381.467 141.247L386.282 134.858Z" fill="#2640AD" mask="url(#path-9-outside-1)"/>
<path d="M400.979 194.423L400.984 194.517L401 194.61C401.045 194.864 401.091 195.648 401.119 196.809C401.135 197.48 401.144 198.23 401.147 198.994H277.497C277.474 197.446 277.465 195.05 278.407 192.212C279.497 188.926 281.9 184.975 287.288 181.313L287.288 181.313C293.898 176.818 312.419 166.524 329.382 157.306C337.843 152.709 345.886 148.395 351.815 145.23C354.78 143.648 357.215 142.353 358.909 141.454C359.756 141.004 360.418 140.653 360.868 140.415L361.381 140.144L361.512 140.075L361.545 140.057L361.553 140.053L361.555 140.052C361.555 140.051 361.556 140.051 360.855 138.725L361.556 140.051L361.622 140.016L361.682 139.976L361.683 139.976L361.683 139.976L361.684 139.975L361.685 139.974L361.705 139.962C361.724 139.949 361.754 139.93 361.796 139.904C361.88 139.851 362.009 139.772 362.18 139.672C362.521 139.472 363.027 139.19 363.668 138.872C364.954 138.236 366.766 137.467 368.872 136.93C373.096 135.854 378.321 135.745 382.972 139.25L382.972 139.251C387.806 142.891 391.682 146.156 394.691 153.629C397.751 161.228 399.934 173.239 400.979 194.423Z" fill="#2640AD" stroke="#1D34A7" stroke-width="3"/>
<path d="M286.378 218.973L286.377 218.973C281.227 215.497 278.747 211.796 277.558 208.53C276.464 205.524 276.451 202.853 276.504 200.979H402.155C402.137 203.191 402.089 204.461 401.997 205.013L401.992 205.042L401.99 205.071C400.937 226.276 398.735 238.438 395.589 246.211C392.459 253.943 388.389 257.353 383.464 261.038L383.463 261.038C378.444 264.796 372.826 264.647 368.41 263.529C366.203 262.97 364.312 262.172 362.972 261.514C362.303 261.185 361.773 260.891 361.411 260.681C361.23 260.575 361.092 260.491 361 260.434C360.979 260.421 360.96 260.409 360.944 260.399C360.925 260.387 360.909 260.376 360.896 260.368L360.871 260.352L360.865 260.349L360.864 260.348L360.864 260.348L360.864 260.348L360.844 260.335L360.823 260.323L360.589 260.765C360.713 260.531 360.771 260.421 360.799 260.369C360.823 260.323 360.823 260.323 360.822 260.323L360.82 260.322L360.812 260.318L360.779 260.3L360.648 260.231L360.135 259.959C359.685 259.72 359.023 259.369 358.175 258.919C356.48 258.02 354.044 256.724 351.079 255.14C345.148 251.973 337.1 247.655 328.631 243.053C311.681 233.842 293.085 223.511 286.378 218.973Z" fill="#1D34A7" stroke="#1D34A7"/>
</svg>
