<svg width="140" height="140" viewBox="0 0 140 140" fill="none" xmlns="http://www.w3.org/2000/svg">
<path fill-rule="evenodd" clip-rule="evenodd" d="M0 70.3694C0 31.7816 31.4122 0.5 70 0.5C70.0494 0.5 70.0987 0.500051 70.148 0.500153V72.7428L0.0397169 72.7428C0.0133094 71.9549 0 71.1637 0 70.3694ZM140 70.5012C140 70.4573 140 70.4133 140 70.3694C140 70.3255 140 70.2816 140 70.2377V70.5012Z" fill="#31B5CB"/>
<mask id="mask0_2129:1031" style="mask-type:alpha" maskUnits="userSpaceOnUse" x="4" y="5" width="132" height="130">
<rect x="4" y="5" width="132" height="130" rx="65" fill="#BAEAF8"/>
</mask>
<g mask="url(#mask0_2129:1031)">
<rect x="5" y="6" width="130" height="128" rx="64" fill="white" stroke="#E4F9FF" stroke-width="2"/>
<path fill-rule="evenodd" clip-rule="evenodd" d="M4.14575 70.0934C4.14575 34.2091 33.2358 5.11908 69.1201 5.11908H70.8799L70.9335 5.1191H69.9998V72.7428H4.19879C4.16354 71.8641 4.14575 70.9808 4.14575 70.0934ZM135.854 70.0934L135.854 70.2207V69.9661L135.854 70.0934Z" fill="#E4F9FF"/>
</g>
<mask id="mask1_2129:1031" style="mask-type:alpha" maskUnits="userSpaceOnUse" x="-6" y="-5" width="79" height="79">
<path d="M63 69H68V64V5.05894C68 2.25859 65.7286 0 62.941 0C27.6663 0 -1 28.5946 -1 63.8822C-1 66.7086 1.29119 69 4.11776 69H63Z" fill="#E4F9FF" stroke="#3B5ADC" stroke-width="10"/>
</mask>
<g mask="url(#mask1_2129:1031)">
<circle cx="69.5" cy="71.5" r="39.5" fill="white"/>
</g>
<path fill-rule="evenodd" clip-rule="evenodd" d="M112.06 96.8585C112.915 96.3495 113.609 95.1298 113.609 94.1343V81.1229V28.3595V15.3223C113.609 14.3268 112.915 13.9324 112.06 14.4414L41.4718 56.4367C40.6162 56.9457 39.9227 58.1654 39.9227 59.1609V87.0313C39.9227 87.0349 39.9202 87.0393 39.9171 87.0411C39.914 87.043 39.9115 87.0474 39.9115 87.0509V90.3357C39.9115 90.3393 39.914 90.3407 39.9171 90.3388C39.9202 90.337 39.9227 90.3384 39.9227 90.342V93.6268C39.9227 93.6303 39.9202 93.6347 39.9171 93.6366C39.914 93.6384 39.9115 93.6428 39.9115 93.6464V96.9311C39.9115 96.9347 39.914 96.9361 39.9171 96.9343C39.9202 96.9324 39.9227 96.9339 39.9227 96.9375V137.973C39.9227 138.968 40.6162 139.363 41.4718 138.854L112.06 96.8585ZM109.225 29.3184C110.081 28.8094 110.775 27.5897 110.775 26.5941V20.3062C110.775 19.3106 110.081 18.9162 109.225 19.4252L44.3059 58.0483C43.4503 58.5573 42.7567 59.777 42.7567 60.7726V67.0605C42.7567 68.0561 43.4503 68.4505 44.3059 67.9415L109.225 29.3184ZM90.9361 74.6717C90.9361 75.6673 91.6297 76.0617 92.4852 75.5527L109.225 65.5933C110.081 65.0842 110.775 63.8646 110.775 62.869V49.9856C110.775 48.9901 110.081 48.5957 109.225 49.1047L92.4852 59.0641C91.6297 59.5731 90.9361 60.7928 90.9361 61.7883V74.6717ZM44.3059 71.2392C43.4503 71.7482 42.7567 72.9679 42.7567 73.9634V133.015C42.7567 134.01 43.4503 134.405 44.3059 133.896L86.5529 108.762C87.4084 108.253 88.102 107.033 88.102 106.037V46.9858C88.102 45.9903 87.4084 45.5959 86.5529 46.1049L44.3059 71.2392ZM90.9361 54.8854C90.9361 55.881 91.6297 56.2754 92.4852 55.7664L109.225 45.807C110.081 45.2979 110.775 44.0783 110.775 43.0827V33.497C110.775 32.5015 110.081 32.1071 109.225 32.6161L92.4852 42.5755C91.6297 43.0845 90.9361 44.3042 90.9361 45.2997V54.8854ZM90.9361 104.351C90.9361 105.347 91.6297 105.741 92.4852 105.232L109.225 95.2727C110.081 94.7637 110.775 93.544 110.775 92.5485V82.8091V69.7719C110.775 68.7764 110.081 68.382 109.225 68.891L92.4852 78.8504C91.6297 79.3594 90.9361 80.5791 90.9361 81.5746V104.351Z" fill="#3B5ADC"/>
<path d="M84.0762 96.9905L47.2331 118.91C46.4505 119.375 45.8161 120.491 45.8161 121.402C45.8161 122.312 46.4505 122.673 47.2331 122.207L84.0762 100.288C84.8588 99.8226 85.4932 98.7069 85.4932 97.7963C85.4932 96.8856 84.8588 96.5249 84.0762 96.9905Z" fill="#3B5ADC"/>
<path d="M78.408 106.958L47.2331 125.505C46.4505 125.971 45.8161 127.086 45.8161 127.997C45.8161 128.908 46.4505 129.268 47.2331 128.803L78.408 110.256C79.1906 109.79 79.8251 108.674 79.8251 107.764C79.8251 106.853 79.1906 106.492 78.408 106.958Z" fill="#3B5ADC"/>
<path d="M82.6592 106.078C82.6592 106.988 83.2936 107.349 84.0762 106.884C84.8588 106.418 85.4933 105.302 85.4933 104.392C85.4933 103.481 84.8588 103.12 84.0762 103.586C83.2936 104.051 82.6592 105.167 82.6592 106.078Z" fill="#3B5ADC"/>
<path d="M48.3943 72.6378C46.9704 73.4849 45.8161 75.5148 45.8161 77.1716V90.9579C45.8161 92.6148 46.9704 93.2712 48.3943 92.4241L82.915 71.8864C84.3389 71.0393 85.4932 69.0094 85.4932 67.3525V53.5662C85.4932 51.9094 84.3389 51.253 82.915 52.1001L48.3943 72.6378ZM82.6591 65.7409C82.6591 67.3978 81.5048 69.4277 80.0809 70.2748L51.2284 87.4402C49.8045 88.2874 48.6502 87.631 48.6502 85.9741V78.7833C48.6502 77.1264 49.8045 75.0965 51.2284 74.2494L80.0809 57.0839C81.5048 56.2368 82.6591 56.8932 82.6591 58.55V65.7409Z" fill="#31B5CB"/>
<path d="M47.6882 90.4549V75.4146L83.7962 54.2343V69.0492L47.6882 90.4549Z" fill="#31B5CB"/>
<path d="M45.8161 114.042C45.8161 115.699 46.9704 116.355 48.3943 115.508L82.915 94.9705C84.3389 94.1233 85.4932 92.0934 85.4932 90.4366V76.6503C85.4932 74.9934 84.3389 74.337 82.915 75.1842L48.3943 95.7218C46.9704 96.5689 45.8161 98.5988 45.8161 100.256V114.042ZM48.6502 101.867C48.6502 100.21 49.8045 98.1806 51.2284 97.3334L80.0809 80.168C81.5048 79.3208 82.6591 79.9772 82.6591 81.6341V88.825C82.6591 90.4818 81.5048 92.5117 80.0809 93.3588L51.2284 110.524C49.8045 111.371 48.6502 110.715 48.6502 109.058V101.867Z" fill="#31B5CB"/>
<path d="M45.8161 62.6811C45.8161 63.5917 46.4505 63.9525 47.2331 63.4869C48.0157 63.0213 48.6502 61.9056 48.6502 60.995C48.6502 60.0843 48.0157 59.7236 47.2331 60.1892C46.4505 60.6548 45.8161 61.7704 45.8161 62.6811Z" fill="#31B5CB"/>
<path d="M51.4844 59.309C51.4844 60.2196 52.1188 60.5804 52.9014 60.1148C53.684 59.6492 54.3185 58.5335 54.3185 57.6229C54.3185 56.7122 53.684 56.3514 52.9014 56.817C52.1188 57.2826 51.4844 58.3983 51.4844 59.309Z" fill="#31B5CB"/>
<path d="M57.1522 55.9366C57.1522 56.8473 57.7866 57.2081 58.5692 56.7424C59.3518 56.2768 59.9862 55.1612 59.9862 54.2505C59.9862 53.3399 59.3518 52.9791 58.5692 53.4447C57.7866 53.9103 57.1522 55.026 57.1522 55.9366Z" fill="#31B5CB"/>
</svg>
