<svg width="141" height="144" viewBox="0 0 141 144" fill="none" xmlns="http://www.w3.org/2000/svg">
<path fill-rule="evenodd" clip-rule="evenodd" d="M0 72.0016C0 32.2362 32.3708 0 72.1361 0C72.187 0 72.2379 5.28116e-05 72.2888 0.000158383V74.4474H0.0409289C0.0137156 73.6354 0 72.8201 0 72.0016Z" fill="#31B5CB"/>
<mask id="mask0_2129:1006" style="mask-type:alpha" maskUnits="userSpaceOnUse" x="4" y="4" width="137" height="135">
<rect x="4.75" y="4.5" width="136" height="134" rx="67" fill="#BAEAF8"/>
</mask>
<g mask="url(#mask0_2129:1006)">
<rect x="5.75" y="5.5" width="134" height="132" rx="66" fill="white" stroke="#E4F9FF" stroke-width="2"/>
<path fill-rule="evenodd" clip-rule="evenodd" d="M71.2293 4.7601L72.1361 4.76007V74.4474H4.32687C4.29055 73.5419 4.27222 72.6317 4.27222 71.7172C4.27222 34.7378 34.2499 4.7601 71.2293 4.7601ZM71.1502 138.674C71.1766 138.674 71.203 138.674 71.2293 138.674H73.0428L73.1075 138.674L72.2888 138.674L72.1361 138.674L71.1502 138.674Z" fill="#E4F9FF"/>
</g>
<mask id="mask1_2129:1006" style="mask-type:alpha" maskUnits="userSpaceOnUse" x="-6" y="-6" width="81" height="81">
<path d="M64.75 69.5H69.75V64.5V4.55994C69.75 1.75917 67.4783 -0.5 64.69 -0.5C28.8641 -0.5 -0.25 28.5414 -0.25 64.3802C-0.25 67.2077 2.04213 69.5 4.86976 69.5H64.75Z" fill="#E4F9FF" stroke="#3B5ADC" stroke-width="10"/>
</mask>
<g mask="url(#mask1_2129:1006)">
<circle cx="71.75" cy="73.5" r="41" fill="white"/>
</g>
<rect x="1.71881" y="0.977414" width="80" height="67" rx="9" transform="matrix(0.859406 -0.511293 0 1 40.9917 66.3788)" stroke="#3B5ADC" stroke-width="4"/>
<path d="M73.4181 78.002L87.3249 69.2495L83.9604 75.0281L87.1006 76.4687L95.8484 61.4444L87.1006 57.4314L83.9604 62.8247L87.3249 64.3682L73.4181 73.1207C66.0161 77.7793 59.9599 88.1807 59.9599 96.2349C59.9599 99.4078 60.8571 102.016 62.6515 103.327L66.2404 98.1398C65.1189 97.1372 64.446 95.6081 64.446 93.4115C64.446 88.042 68.4834 81.1078 73.4181 78.002Z" fill="#3B5ADC"/>
<path d="M102.129 62.1675L98.5402 67.3565C99.6617 68.3592 100.335 69.8884 100.335 72.0855C100.335 77.4561 96.2971 84.3922 91.3625 87.4992L77.4557 96.255L80.8202 90.4749L77.68 89.0344L68.9321 104.063L77.68 108.32L80.8202 102.925L77.4557 101.137L91.3625 92.3815C98.7645 87.7211 104.821 77.3169 104.821 69.261C104.821 66.0875 103.923 63.4789 102.129 62.1675Z" fill="#31B5CB"/>
<rect x="1.71881" y="0.977414" width="80" height="67" rx="9" transform="matrix(0.859406 -0.511293 0 1 48.9917 73.3788)" stroke="#31B5CB" stroke-width="4"/>
</svg>
