<svg width="141" height="147" viewBox="0 0 141 147" fill="none" xmlns="http://www.w3.org/2000/svg">
<path fill-rule="evenodd" clip-rule="evenodd" d="M0.75 72.7837C0.75 33.0183 33.1208 0.782104 72.8861 0.782104C72.937 0.782104 72.9879 0.782157 73.0388 0.782263V75.2295H0.790929C0.763716 74.4175 0.75 73.6022 0.75 72.7837Z" fill="#31B5CB"/>
<mask id="mask0_2129:1060" style="mask-type:alpha" maskUnits="userSpaceOnUse" x="4" y="5" width="137" height="135">
<rect x="4.75" y="5.2821" width="136" height="134" rx="67" fill="#BAEAF8"/>
</mask>
<g mask="url(#mask0_2129:1060)">
<rect x="5.75" y="6.2821" width="134" height="132" rx="66" fill="white" stroke="#E4F9FF" stroke-width="2"/>
<path fill-rule="evenodd" clip-rule="evenodd" d="M71.9793 5.5422L72.8861 5.54218V75.2295H5.07687C5.04055 74.324 5.02222 73.4138 5.02222 72.4993C5.02222 35.5199 34.9999 5.5422 71.9793 5.5422ZM71.9002 139.456C71.9266 139.456 71.953 139.456 71.9793 139.456H73.7928L73.8575 139.456L73.0388 139.456L72.8861 139.456L71.9002 139.456Z" fill="#E4F9FF"/>
</g>
<mask id="mask1_2129:1060" style="mask-type:alpha" maskUnits="userSpaceOnUse" x="-6" y="-5" width="81" height="81">
<path d="M64.75 70.2821H69.75V65.2821V5.34204C69.75 2.54127 67.4783 0.282104 64.69 0.282104C28.8641 0.282104 -0.25 29.3235 -0.25 65.1623C-0.25 67.9898 2.04213 70.2821 4.86976 70.2821H64.75Z" fill="#E4F9FF" stroke="#3B5ADC" stroke-width="10"/>
</mask>
<g mask="url(#mask1_2129:1060)">
<circle cx="72.75" cy="74.2821" r="41" fill="white"/>
</g>
<path fill-rule="evenodd" clip-rule="evenodd" d="M94.8884 43.8801C92.3068 45.26 90.2063 48.898 90.2063 51.9896C90.2063 55.0813 92.3068 56.4738 94.8884 55.0939C97.4702 53.7139 99.5704 50.076 99.5704 46.9843C99.5704 43.8927 97.4702 42.5 94.8884 43.8801ZM94.8884 51.356C94.0278 51.816 93.3277 51.3518 93.3277 50.3212C93.3277 49.2907 94.0278 48.078 94.8884 47.618C95.7491 47.158 96.449 47.6222 96.449 48.6528C96.449 49.6833 95.7491 50.8959 94.8884 51.356Z" fill="#31B5CB"/>
<path fill-rule="evenodd" clip-rule="evenodd" d="M76.1602 60.0993C76.1602 57.0076 78.2605 53.3697 80.8422 51.9897C83.4239 50.6097 85.5242 52.0023 85.5242 55.094C85.5242 58.1856 83.4239 61.8236 80.8422 63.2035C78.2605 64.5835 76.1602 63.1909 76.1602 60.0993ZM79.2815 58.4308C79.2815 59.4614 79.9816 59.9256 80.8422 59.4656C81.7029 59.0055 82.4029 57.7929 82.4029 56.7624C82.4029 55.7318 81.7029 55.2676 80.8422 55.7276C79.9816 56.1876 79.2815 57.4003 79.2815 58.4308Z" fill="#31B5CB"/>
<path fill-rule="evenodd" clip-rule="evenodd" d="M62.114 68.2088C62.114 65.1171 64.2144 61.4792 66.7961 60.0992C69.3777 58.7192 71.4781 60.1118 71.4781 63.2035C71.4781 66.2951 69.3777 69.9331 66.7961 71.313C64.2144 72.693 62.114 71.3004 62.114 68.2088ZM65.2354 66.5403C65.2354 67.5709 65.9355 68.0351 66.7961 67.5751C67.6568 67.115 68.3567 65.9024 68.3567 64.8719C68.3567 63.8413 67.6568 63.3771 66.7961 63.8371C65.9355 64.2971 65.2354 65.5098 65.2354 66.5403Z" fill="#31B5CB"/>
<path fill-rule="evenodd" clip-rule="evenodd" d="M73.0388 102.749C73.0388 90.382 81.4403 75.8302 91.767 70.3104C102.094 64.7905 110.495 70.3608 110.495 82.7274C110.495 95.094 102.094 109.646 91.767 115.166C81.4403 120.685 73.0388 115.115 73.0388 102.749ZM76.1602 101.08C76.1602 111.386 83.1614 116.027 91.767 111.428C100.373 106.828 107.374 94.7015 107.374 84.3958C107.374 74.0901 100.373 69.4484 91.767 74.0483C83.1614 78.6482 76.1602 90.7744 76.1602 101.08Z" fill="#31B5CB"/>
<path fill-rule="evenodd" clip-rule="evenodd" d="M98.5299 84.3188C98.5299 84.9617 98.9957 85.2353 99.5703 84.9299C100.432 84.4717 101.131 84.9324 101.131 85.9584V98.3455C101.131 99.3715 100.432 100.575 99.5703 101.033L83.9635 109.329C83.1016 109.787 82.4028 109.326 82.4028 108.3V95.9134C82.4028 94.8874 83.1016 93.6838 83.9635 93.2257C84.5381 92.9203 85.004 92.1514 85.004 91.5084V88.3373C85.004 83.8976 88.0378 78.6731 91.7669 76.6909C95.4961 74.7087 98.5299 76.7079 98.5299 81.1475V84.3188ZM91.7669 80.407C89.7589 81.4744 88.1253 84.2875 88.1253 86.6781V89.0135C88.1253 90.1181 88.9255 90.5881 89.9127 90.0634L93.6212 88.0922C94.6083 87.5675 95.4086 86.2467 95.4086 85.1421V82.8067C95.4086 80.4161 93.7748 79.3397 91.7669 80.407ZM96.2222 99.0967C97.2094 98.572 98.0096 97.2512 98.0096 96.1466V91.4756C98.0096 90.371 97.2125 89.8993 96.2254 90.424L87.3083 95.1639C86.3212 95.6886 85.5241 97.0077 85.5241 98.1123V102.783C85.5241 103.888 86.3244 104.358 87.3115 103.833L96.2222 99.0967Z" fill="#3B5ADC"/>
<path fill-rule="evenodd" clip-rule="evenodd" d="M55.8712 56.2569L127.663 17.8831C128.525 17.4223 129.223 17.8856 129.223 18.9178V104.89C129.223 105.922 128.525 107.133 127.663 107.593L55.8712 145.967C55.0094 146.428 54.3105 145.965 54.3105 144.933V58.9601C54.3105 57.9279 55.0094 56.7176 55.8712 56.2569ZM59.2191 58.2053C58.232 58.7329 57.4319 60.0561 57.4319 61.1606V75.8503C57.4319 76.9549 58.232 77.4226 59.2191 76.895L124.315 42.1002C125.302 41.5726 126.102 40.2495 126.102 39.1449V24.4552C126.102 23.3507 125.302 22.8829 124.315 23.4105L59.2191 58.2053ZM57.4319 139.395C57.4319 140.5 58.232 140.967 59.2191 140.44L124.315 105.645C125.302 105.117 126.102 103.794 126.102 102.69V46.8828C126.102 45.7783 125.302 45.3105 124.315 45.8381L59.2191 80.633C58.232 81.1605 57.4319 82.4837 57.4319 83.5882V139.395Z" fill="#3B5ADC"/>
</svg>
