<svg width="141" height="139" viewBox="0 0 141 139" fill="none" xmlns="http://www.w3.org/2000/svg">
<path fill-rule="evenodd" clip-rule="evenodd" d="M0 72.0016C0 32.2362 32.3708 0 72.1361 0C72.187 0 72.2379 5.28116e-05 72.2888 0.000158383V74.4474H0.0409289C0.0137156 73.6354 0 72.8201 0 72.0016Z" fill="#31B5CB"/>
<mask id="mask0_2129:969" style="mask-type:alpha" maskUnits="userSpaceOnUse" x="4" y="4" width="137" height="135">
<rect x="4.40906" y="4.5" width="136" height="134" rx="67" fill="#BAEAF8"/>
</mask>
<g mask="url(#mask0_2129:969)">
<rect x="5.40906" y="5.5" width="134" height="132" rx="66" fill="white" stroke="#E4F9FF" stroke-width="2"/>
<path fill-rule="evenodd" clip-rule="evenodd" d="M71.2294 4.76004L72.1361 4.76001V74.4474H4.32693C4.29061 73.5418 4.27228 72.6316 4.27228 71.7172C4.27228 34.7378 34.25 4.76004 71.2294 4.76004ZM71.1503 138.674C71.1766 138.674 71.203 138.674 71.2294 138.674H73.0429L73.1075 138.674L72.2889 138.674L72.1361 138.674L71.1503 138.674Z" fill="#E4F9FF"/>
</g>
<mask id="mask1_2129:969" style="mask-type:alpha" maskUnits="userSpaceOnUse" x="-6" y="-6" width="81" height="81">
<path d="M64.4091 69.5H69.4091V64.5V4.55994C69.4091 1.75917 67.1373 -0.5 64.3491 -0.5C28.5232 -0.5 -0.590942 28.5414 -0.590942 64.3802C-0.590942 67.2077 1.70119 69.5 4.52882 69.5H64.4091Z" fill="#E4F9FF" stroke="#3B5ADC" stroke-width="10"/>
</mask>
<g mask="url(#mask1_2129:969)">
<circle cx="72.4091" cy="73.5" r="41" fill="white"/>
</g>
<mask id="path-7-outside-1_2129:969" maskUnits="userSpaceOnUse" x="31.0852" y="60.7866" width="55.6487" height="76.4368" fill="black">
<rect fill="white" x="31.0852" y="60.7866" width="55.6487" height="76.4368"/>
<path fill-rule="evenodd" clip-rule="evenodd" d="M76.6408 62.0336L35.417 85.9425C33.6783 86.9508 32.3257 89.2559 32.3428 91.1811L32.7015 131.474L32.7015 131.479L32.7108 132.518C32.7279 134.443 34.1075 135.163 35.8461 134.155L50.0037 125.944L50.0483 130.951L48.6822 131.743C48.083 132.091 47.6476 132.701 47.5038 133.356L47.4499 133.357L47.4535 133.757C47.4526 133.784 47.4523 133.812 47.4526 133.839C47.4528 133.866 47.4536 133.893 47.4549 133.919L47.4628 134.801C47.4619 134.828 47.4616 134.855 47.4619 134.882C47.4621 134.91 47.4629 134.936 47.4642 134.962L47.4645 134.998L47.4664 134.998C47.5182 135.731 48.0068 135.949 48.716 135.537L70.0766 123.149C70.8218 122.716 71.3136 121.878 71.3063 121.053C71.306 121.025 71.3052 120.998 71.3039 120.972L71.296 120.093C71.2969 120.065 71.2972 120.037 71.297 120.01C71.2967 119.982 71.2959 119.955 71.2946 119.928L71.2903 119.448L71.1796 119.451C70.9889 119.092 70.5789 119.044 70.0429 119.355L68.6768 120.147L68.6322 115.14L82.7898 106.929C84.5285 105.92 85.8811 103.615 85.864 101.69L85.6977 83.0139L83.2139 84.4544L83.3146 95.761L35.129 123.708L34.8359 90.7842C34.8322 90.3717 35.0782 89.9526 35.4507 89.7365L76.6745 65.8276L76.6408 62.0336ZM66.193 121.587L52.5321 129.51L52.4875 124.503L66.1484 116.58L66.193 121.587ZM82.7561 103.135L35.8123 130.361C35.4405 130.577 35.1899 130.447 35.1853 130.036L35.1627 127.502L83.4725 99.483L83.4951 102.015C83.4987 102.427 83.1286 102.919 82.7561 103.135Z"/>
</mask>
<path fill-rule="evenodd" clip-rule="evenodd" d="M76.6408 62.0336L35.417 85.9425C33.6783 86.9508 32.3257 89.2559 32.3428 91.1811L32.7015 131.474L32.7015 131.479L32.7108 132.518C32.7279 134.443 34.1075 135.163 35.8461 134.155L50.0037 125.944L50.0483 130.951L48.6822 131.743C48.083 132.091 47.6476 132.701 47.5038 133.356L47.4499 133.357L47.4535 133.757C47.4526 133.784 47.4523 133.812 47.4526 133.839C47.4528 133.866 47.4536 133.893 47.4549 133.919L47.4628 134.801C47.4619 134.828 47.4616 134.855 47.4619 134.882C47.4621 134.91 47.4629 134.936 47.4642 134.962L47.4645 134.998L47.4664 134.998C47.5182 135.731 48.0068 135.949 48.716 135.537L70.0766 123.149C70.8218 122.716 71.3136 121.878 71.3063 121.053C71.306 121.025 71.3052 120.998 71.3039 120.972L71.296 120.093C71.2969 120.065 71.2972 120.037 71.297 120.01C71.2967 119.982 71.2959 119.955 71.2946 119.928L71.2903 119.448L71.1796 119.451C70.9889 119.092 70.5789 119.044 70.0429 119.355L68.6768 120.147L68.6322 115.14L82.7898 106.929C84.5285 105.92 85.8811 103.615 85.864 101.69L85.6977 83.0139L83.2139 84.4544L83.3146 95.761L35.129 123.708L34.8359 90.7842C34.8322 90.3717 35.0782 89.9526 35.4507 89.7365L76.6745 65.8276L76.6408 62.0336ZM66.193 121.587L52.5321 129.51L52.4875 124.503L66.1484 116.58L66.193 121.587ZM82.7561 103.135L35.8123 130.361C35.4405 130.577 35.1899 130.447 35.1853 130.036L35.1627 127.502L83.4725 99.483L83.4951 102.015C83.4987 102.427 83.1286 102.919 82.7561 103.135Z" fill="#3B5ADC"/>
<path d="M35.417 85.9425L35.2699 85.6835L35.2699 85.6835L35.417 85.9425ZM76.6408 62.0336L76.9407 62.0257L76.9361 61.518L76.4937 61.7746L76.6408 62.0336ZM32.7015 131.474L32.4016 131.482L32.4016 131.482L32.7015 131.474ZM32.7015 131.479L33.0014 131.471L33.0014 131.471L32.7015 131.479ZM35.8461 134.155L35.6991 133.896L35.6991 133.896L35.8461 134.155ZM50.0037 125.944L50.3036 125.936L50.2991 125.428L49.8567 125.685L50.0037 125.944ZM50.0483 130.951L50.1953 131.21L50.3498 131.12L50.3482 130.943L50.0483 130.951ZM48.6822 131.743L48.8292 132.002L48.8293 132.002L48.6822 131.743ZM47.5038 133.356L47.5065 133.656L47.7453 133.649L47.7967 133.415L47.5038 133.356ZM47.4499 133.357L47.4472 133.057L47.1473 133.065L47.15 133.365L47.4499 133.357ZM47.4535 133.757L47.7535 133.761L47.7534 133.749L47.4535 133.757ZM47.4549 133.919L47.7551 133.911L47.7544 133.898L47.4549 133.919ZM47.4628 134.801L47.7628 134.805L47.7627 134.793L47.4628 134.801ZM47.4642 134.962L47.7644 134.954L47.7637 134.942L47.4642 134.962ZM47.4645 134.998L47.1646 135.006L47.1673 135.306L47.4672 135.298L47.4645 134.998ZM47.4664 134.998L47.7655 134.972L47.7457 134.691L47.4637 134.698L47.4664 134.998ZM48.716 135.537L48.569 135.278L48.569 135.278L48.716 135.537ZM70.0766 123.149L70.2237 123.408L70.0766 123.149ZM71.3039 120.972L71.0037 120.979L71.0044 120.992L71.3039 120.972ZM71.296 120.093L70.996 120.089L70.9962 120.101L71.296 120.093ZM71.2946 119.928L70.9944 119.936L70.9951 119.949L71.2946 119.928ZM71.2903 119.448L71.5902 119.44L71.5875 119.14L71.2876 119.148L71.2903 119.448ZM71.1796 119.451L70.9142 119.595L70.9994 119.756L71.1822 119.751L71.1796 119.451ZM70.0429 119.355L69.8958 119.096L70.0429 119.355ZM68.6768 120.147L68.3769 120.155L68.3814 120.662L68.8238 120.406L68.6768 120.147ZM68.6322 115.14L68.4852 114.881L68.3307 114.97L68.3323 115.148L68.6322 115.14ZM82.7898 106.929L82.6428 106.67L82.7898 106.929ZM85.6977 83.0139L85.9976 83.006L85.9931 82.4983L85.5507 82.7549L85.6977 83.0139ZM83.2139 84.4544L83.0669 84.1954L82.9125 84.285L82.914 84.4623L83.2139 84.4544ZM83.3146 95.761L83.4616 96.02L83.616 95.9304L83.6145 95.7532L83.3146 95.761ZM35.129 123.708L34.8291 123.715L34.8336 124.223L35.276 123.967L35.129 123.708ZM34.8359 90.7842L35.1358 90.7764L34.8359 90.7842ZM35.4507 89.7365L35.3037 89.4775L35.3037 89.4775L35.4507 89.7365ZM76.6745 65.8276L76.8216 66.0866L76.976 65.997L76.9744 65.8198L76.6745 65.8276ZM52.5321 129.51L52.2322 129.518L52.2367 130.026L52.6791 129.769L52.5321 129.51ZM66.193 121.587L66.34 121.846L66.4944 121.757L66.4929 121.58L66.193 121.587ZM52.4875 124.503L52.3405 124.244L52.1861 124.334L52.1876 124.511L52.4875 124.503ZM66.1484 116.58L66.4483 116.572L66.4438 116.065L66.0014 116.321L66.1484 116.58ZM35.8123 130.361L35.9594 130.62L35.9594 130.62L35.8123 130.361ZM82.7561 103.135L82.609 102.876L82.609 102.876L82.7561 103.135ZM35.1853 130.036L34.8854 130.044L34.8854 130.044L35.1853 130.036ZM35.1627 127.502L35.0157 127.243L34.8613 127.332L34.8628 127.51L35.1627 127.502ZM83.4725 99.483L83.7724 99.4752L83.7679 98.9675L83.3255 99.2241L83.4725 99.483ZM83.4951 102.015L83.1952 102.023L83.4951 102.015ZM35.564 86.2014L76.7878 62.2925L76.4937 61.7746L35.2699 85.6835L35.564 86.2014ZM32.6427 91.1733C32.6347 90.2776 32.947 89.2738 33.4794 88.3666C34.0115 87.4598 34.7492 86.674 35.564 86.2014L35.2699 85.6835C34.3461 86.2193 33.5381 87.0902 32.9635 88.0694C32.3892 89.048 32.0338 90.1593 32.0429 91.189L32.6427 91.1733ZM33.0014 131.466L32.6427 91.1733L32.0429 91.189L32.4016 131.482L33.0014 131.466ZM33.0014 131.471L33.0014 131.466L32.4016 131.482L32.4016 131.487L33.0014 131.471ZM33.0107 132.51L33.0014 131.471L32.4016 131.486L32.4109 132.526L33.0107 132.51ZM35.6991 133.896C34.88 134.371 34.2154 134.4 33.7752 134.17C33.3403 133.943 33.0187 133.407 33.0107 132.51L32.4109 132.526C32.42 133.554 32.7967 134.341 33.4905 134.703C34.1791 135.063 35.0736 134.947 35.9931 134.414L35.6991 133.896ZM49.8567 125.685L35.6991 133.896L35.9931 134.414L50.1508 126.203L49.8567 125.685ZM50.3482 130.943L50.3036 125.936L49.7039 125.952L49.7484 130.959L50.3482 130.943ZM48.8293 132.002L50.1953 131.21L49.9013 130.692L48.5352 131.484L48.8293 132.002ZM47.7967 133.415C47.9224 132.843 48.3058 132.306 48.8292 132.002L48.5352 131.484C47.8603 131.876 47.3728 132.559 47.211 133.296L47.7967 133.415ZM47.4526 133.657L47.5065 133.656L47.5012 133.056L47.4472 133.057L47.4526 133.657ZM47.7534 133.749L47.7498 133.349L47.15 133.365L47.1536 133.765L47.7534 133.749ZM47.7525 133.831C47.7523 133.808 47.7525 133.784 47.7532 133.761L47.1537 133.753C47.1527 133.784 47.1524 133.815 47.1527 133.847L47.7525 133.831ZM47.7544 133.898C47.7533 133.877 47.7527 133.854 47.7525 133.831L47.1527 133.847C47.153 133.878 47.1539 133.909 47.1554 133.939L47.7544 133.898ZM47.7627 134.793L47.7548 133.911L47.155 133.926L47.1629 134.809L47.7627 134.793ZM47.7618 134.875C47.7616 134.851 47.7618 134.828 47.7625 134.805L47.163 134.797C47.162 134.828 47.1617 134.859 47.162 134.89L47.7618 134.875ZM47.7637 134.942C47.7626 134.92 47.762 134.898 47.7618 134.875L47.162 134.89C47.1622 134.921 47.1631 134.952 47.1647 134.983L47.7637 134.942ZM47.7644 134.99L47.7641 134.954L47.1643 134.97L47.1646 135.006L47.7644 134.99ZM47.4637 134.698L47.4618 134.698L47.4672 135.298L47.469 135.298L47.4637 134.698ZM48.569 135.278C48.2476 135.465 48.057 135.46 47.9683 135.421C47.8938 135.389 47.7876 135.284 47.7655 134.972L47.1672 135.024C47.1969 135.445 47.3609 135.816 47.721 135.972C48.0669 136.123 48.4753 136.021 48.863 135.796L48.569 135.278ZM69.9296 122.89L48.569 135.278L48.863 135.796L70.2237 123.408L69.9296 122.89ZM71.0064 121.061C71.0127 121.772 70.5838 122.51 69.9296 122.89L70.2237 123.408C71.0598 122.923 71.6145 121.985 71.6062 121.045L71.0064 121.061ZM71.0044 120.992C71.0055 121.014 71.0062 121.037 71.0064 121.061L71.6062 121.045C71.6059 121.013 71.605 120.982 71.6034 120.951L71.0044 120.992ZM70.9962 120.101L71.004 120.979L71.6038 120.964L71.5959 120.085L70.9962 120.101ZM70.9971 120.017C70.9973 120.041 70.997 120.065 70.9963 120.089L71.5958 120.097C71.5968 120.065 71.5972 120.034 71.5969 120.002L70.9971 120.017ZM70.9951 119.949C70.9962 119.971 70.9969 119.994 70.9971 120.017L71.5969 120.002C71.5966 119.97 71.5957 119.938 71.5941 119.907L70.9951 119.949ZM70.9904 119.456L70.9947 119.936L71.5945 119.92L71.5902 119.44L70.9904 119.456ZM71.1822 119.751L71.293 119.748L71.2876 119.148L71.1769 119.151L71.1822 119.751ZM70.1899 119.614C70.4284 119.475 70.6004 119.44 70.7077 119.45C70.7972 119.459 70.8629 119.499 70.9142 119.595L71.4449 119.306C71.3055 119.044 71.0709 118.881 70.7737 118.853C70.4944 118.827 70.1933 118.923 69.8958 119.096L70.1899 119.614ZM68.8238 120.406L70.1899 119.614L69.8958 119.096L68.5297 119.888L68.8238 120.406ZM68.3323 115.148L68.3769 120.155L68.9767 120.139L68.9321 115.132L68.3323 115.148ZM82.6428 106.67L68.4852 114.881L68.7792 115.399L82.9369 107.188L82.6428 106.67ZM85.5641 101.698C85.572 102.593 85.2598 103.597 84.7274 104.505C84.1953 105.411 83.4576 106.197 82.6428 106.67L82.9369 107.188C83.8607 106.652 84.6687 105.781 85.2433 104.802C85.8176 103.823 86.173 102.712 86.1639 101.682L85.5641 101.698ZM85.3978 83.0217L85.5641 101.698L86.1639 101.682L85.9976 83.006L85.3978 83.0217ZM85.5507 82.7549L83.0669 84.1954L83.361 84.7134L85.8447 83.2729L85.5507 82.7549ZM83.6145 95.7532L83.5138 84.4466L82.914 84.4623L83.0147 95.7689L83.6145 95.7532ZM35.276 123.967L83.4616 96.02L83.1676 95.5021L34.9819 123.449L35.276 123.967ZM34.536 90.7921L34.8291 123.715L35.4289 123.7L35.1358 90.7764L34.536 90.7921ZM35.3037 89.4775C34.8402 89.7464 34.5313 90.2653 34.536 90.7921L35.1358 90.7764C35.1331 90.478 35.3161 90.1588 35.5978 89.9955L35.3037 89.4775ZM76.5275 65.5686L35.3037 89.4775L35.5978 89.9955L76.8216 66.0866L76.5275 65.5686ZM76.9744 65.8198L76.9407 62.0257L76.3409 62.0414L76.3746 65.8355L76.9744 65.8198ZM52.6791 129.769L66.34 121.846L66.046 121.328L52.3851 129.251L52.6791 129.769ZM52.1876 124.511L52.2322 129.518L52.832 129.503L52.7874 124.495L52.1876 124.511ZM66.0014 116.321L52.3405 124.244L52.6346 124.762L66.2954 116.839L66.0014 116.321ZM66.4929 121.58L66.4483 116.572L65.8485 116.588L65.8931 121.595L66.4929 121.58ZM35.9594 130.62L82.9031 103.394L82.609 102.876L35.6653 130.102L35.9594 130.62ZM34.8854 130.044C34.8882 130.295 34.9677 130.57 35.2195 130.7C35.4643 130.827 35.7398 130.747 35.9594 130.62L35.6653 130.102C35.5951 130.143 35.5459 130.158 35.5174 130.162C35.4909 130.166 35.4909 130.16 35.5027 130.166C35.5156 130.173 35.5141 130.179 35.5068 130.163C35.4981 130.144 35.486 130.102 35.4852 130.027L34.8854 130.044ZM34.8628 127.51L34.8854 130.044L35.4852 130.028L35.4626 127.494L34.8628 127.51ZM83.3255 99.2241L35.0157 127.243L35.3098 127.761L83.6196 99.742L83.3255 99.2241ZM83.795 102.007L83.7724 99.4752L83.1726 99.4909L83.1952 102.023L83.795 102.007ZM82.9031 103.394C83.1337 103.26 83.3517 103.05 83.5127 102.816C83.6715 102.585 83.7976 102.298 83.795 102.007L83.1952 102.023C83.1963 102.144 83.1391 102.309 83.0206 102.481C82.9043 102.65 82.751 102.793 82.609 102.876L82.9031 103.394Z" fill="#3B5ADC" mask="url(#path-7-outside-1_2129:969)"/>
<mask id="path-9-inside-2_2129:969" fill="white">
<path fill-rule="evenodd" clip-rule="evenodd" d="M109.157 69.4083C110.764 68.0989 111.885 65.8497 111.869 64.0493L111.429 14.6802C111.437 14.5238 111.435 14.3742 111.425 14.2318L111.418 13.4269C111.524 11.2921 109.893 10.4407 108.03 11.5211L79.9636 27.7993C77.9765 28.9517 76.5022 31.6038 76.5205 33.6666L76.7715 61.8579L76.64 61.9341L76.6756 65.9378L76.6829 65.9336L76.8346 82.9702L76.835 83.0025L76.8458 84.2235C76.8654 86.4238 78.4946 87.1376 80.3574 86.0572L83.2137 84.4007L83.2142 84.4545L109.157 69.4083ZM109.421 55.5009L109.069 16.034C109.056 15.494 108.558 15.2392 108.066 15.5248L79.9993 31.8029C79.3784 32.1631 79.0107 32.9292 79.0156 33.4793L79.3668 72.9314L109.421 55.5009ZM108.514 65.8409L80.4471 82.1191C79.8325 82.4755 79.4564 82.152 79.444 81.6119L79.4036 77.0726L109.457 59.6421L109.498 64.1646C109.503 64.7146 109.011 65.5528 108.514 65.8409Z"/>
</mask>
<path fill-rule="evenodd" clip-rule="evenodd" d="M109.157 69.4083C110.764 68.0989 111.885 65.8497 111.869 64.0493L111.429 14.6802C111.437 14.5238 111.435 14.3742 111.425 14.2318L111.418 13.4269C111.524 11.2921 109.893 10.4407 108.03 11.5211L79.9636 27.7993C77.9765 28.9517 76.5022 31.6038 76.5205 33.6666L76.7715 61.8579L76.64 61.9341L76.6756 65.9378L76.6829 65.9336L76.8346 82.9702L76.835 83.0025L76.8458 84.2235C76.8654 86.4238 78.4946 87.1376 80.3574 86.0572L83.2137 84.4007L83.2142 84.4545L109.157 69.4083ZM109.421 55.5009L109.069 16.034C109.056 15.494 108.558 15.2392 108.066 15.5248L79.9993 31.8029C79.3784 32.1631 79.0107 32.9292 79.0156 33.4793L79.3668 72.9314L109.421 55.5009ZM108.514 65.8409L80.4471 82.1191C79.8325 82.4755 79.4564 82.152 79.444 81.6119L79.4036 77.0726L109.457 59.6421L109.498 64.1646C109.503 64.7146 109.011 65.5528 108.514 65.8409Z" fill="#31B5CB"/>
<path d="M111.869 64.0493L111.569 64.0571L111.869 64.0493ZM109.157 69.4083L109.304 69.6672L109.325 69.655L109.344 69.6396L109.157 69.4083ZM111.429 14.6802L111.13 14.6705L111.129 14.6793L111.129 14.688L111.429 14.6802ZM111.425 14.2318L111.125 14.2397L111.125 14.2492L111.126 14.2586L111.425 14.2318ZM111.418 13.4269L111.118 13.4172L111.118 13.426L111.118 13.4348L111.418 13.4269ZM108.03 11.5211L107.883 11.2622L107.883 11.2622L108.03 11.5211ZM79.9636 27.7993L79.8165 27.5403L79.9636 27.7993ZM76.7715 61.8579L76.9185 62.1168L77.0729 62.0273L77.0714 61.85L76.7715 61.8579ZM76.64 61.9341L76.4929 61.6752L76.3385 61.7647L76.3401 61.942L76.64 61.9341ZM76.6756 65.9378L76.3757 65.9457L76.3802 66.4533L76.8226 66.1968L76.6756 65.9378ZM76.6829 65.9336L76.9828 65.9257L76.9783 65.4181L76.536 65.6746L76.6829 65.9336ZM76.8346 82.9702L76.5347 82.9781L76.5347 82.9791L76.8346 82.9702ZM76.835 83.0025L77.1349 82.9946L77.1349 82.9935L76.835 83.0025ZM80.3574 86.0572L80.2104 85.7982L80.2104 85.7982L80.3574 86.0572ZM83.2137 84.4007L83.5136 84.3928L83.5091 83.8851L83.0667 84.1417L83.2137 84.4007ZM83.2142 84.4545L82.9143 84.4624L82.9188 84.9701L83.3612 84.7135L83.2142 84.4545ZM109.069 16.034L109.369 16.0261L109.369 16.0212L109.069 16.034ZM109.421 55.5009L109.568 55.7599L109.722 55.6703L109.72 55.493L109.421 55.5009ZM108.066 15.5248L108.213 15.7838L108.066 15.5248ZM79.9993 31.8029L80.1463 32.0619L80.1463 32.0619L79.9993 31.8029ZM79.0156 33.4793L79.3155 33.4714L79.0156 33.4793ZM79.3668 72.9314L79.0669 72.9393L79.0714 73.447L79.5138 73.1904L79.3668 72.9314ZM80.4471 82.1191L80.3001 81.8601L80.3001 81.8601L80.4471 82.1191ZM108.514 65.8409L108.367 65.5819L108.367 65.5819L108.514 65.8409ZM79.444 81.6119L79.1441 81.6198L79.1442 81.624L79.444 81.6119ZM79.4036 77.0726L79.2566 76.8137L79.1022 76.9032L79.1037 77.0805L79.4036 77.0726ZM109.457 59.6421L109.757 59.6343L109.753 59.1266L109.31 59.3831L109.457 59.6421ZM111.569 64.0571C111.584 65.754 110.514 67.9188 108.97 69.1769L109.344 69.6396C111.013 68.2791 112.185 65.9453 112.168 64.0414L111.569 64.0571ZM111.129 14.688L111.569 64.0571L112.168 64.0414L111.729 14.6723L111.129 14.688ZM111.126 14.2586C111.135 14.3882 111.137 14.5255 111.13 14.6705L111.729 14.6899C111.737 14.522 111.735 14.3603 111.724 14.205L111.126 14.2586ZM111.118 13.4348L111.125 14.2397L111.725 14.224L111.718 13.4191L111.118 13.4348ZM108.177 11.7801C109.051 11.2737 109.808 11.2534 110.315 11.5319C110.815 11.8067 111.167 12.4261 111.118 13.4172L111.717 13.4366C111.774 12.2929 111.365 11.4193 110.61 11.0047C109.863 10.5939 108.873 10.6882 107.883 11.2622L108.177 11.7801ZM80.1106 28.0583L108.177 11.7801L107.883 11.2622L79.8165 27.5403L80.1106 28.0583ZM76.8204 33.6587C76.8118 32.6942 77.1543 31.5687 77.7491 30.5383C78.3433 29.5088 79.1735 28.6018 80.1106 28.0583L79.8165 27.5403C78.7666 28.1493 77.8661 29.1445 77.231 30.2449C76.5964 31.3443 76.2109 32.5762 76.2206 33.6744L76.8204 33.6587ZM77.0714 61.85L76.8204 33.6587L76.2206 33.6744L76.4716 61.8657L77.0714 61.85ZM76.787 62.1931L76.9185 62.1168L76.6244 61.5989L76.4929 61.6752L76.787 62.1931ZM76.9755 65.93L76.9399 61.9263L76.3401 61.942L76.3757 65.9457L76.9755 65.93ZM76.536 65.6746L76.5286 65.6788L76.8226 66.1968L76.8299 66.1926L76.536 65.6746ZM77.1345 82.9624L76.9828 65.9257L76.383 65.9414L76.5347 82.9781L77.1345 82.9624ZM77.1349 82.9935L77.1345 82.9613L76.5347 82.9791L76.5351 83.0114L77.1349 82.9935ZM77.1457 84.2156L77.1349 82.9946L76.5351 83.0103L76.546 84.2313L77.1457 84.2156ZM80.2104 85.7982C79.3305 86.3086 78.5687 86.3597 78.0472 86.1012C77.5357 85.8477 77.1549 85.2451 77.1457 84.2156L76.546 84.2313C76.5564 85.4022 77 86.2566 77.7736 86.64C78.5373 87.0185 79.5216 86.8863 80.5045 86.3162L80.2104 85.7982ZM83.0667 84.1417L80.2104 85.7982L80.5045 86.3162L83.3607 84.6596L83.0667 84.1417ZM83.5141 84.4467L83.5136 84.3928L82.9138 84.4085L82.9143 84.4624L83.5141 84.4467ZM109.01 69.1493L83.0671 84.1955L83.3612 84.7135L109.304 69.6672L109.01 69.1493ZM108.769 16.0418L109.121 55.5088L109.72 55.493L109.369 16.0261L108.769 16.0418ZM108.213 15.7838C108.386 15.6838 108.524 15.6953 108.608 15.7377C108.688 15.7787 108.765 15.8724 108.769 16.0467L109.369 16.0212C109.36 15.6556 109.182 15.3519 108.887 15.2019C108.595 15.0533 108.239 15.0802 107.919 15.2658L108.213 15.7838ZM80.1463 32.0619L108.213 15.7838L107.919 15.2658L79.8523 31.544L80.1463 32.0619ZM79.3155 33.4714C79.3136 33.2584 79.3858 32.9806 79.5346 32.7117C79.6824 32.4446 79.8934 32.2086 80.1463 32.0619L79.8523 31.544C79.4843 31.7574 79.201 32.0845 79.011 32.428C78.8219 32.7698 78.7127 33.1502 78.7157 33.4872L79.3155 33.4714ZM79.6667 72.9236L79.3155 33.4714L78.7157 33.4872L79.0669 72.9393L79.6667 72.9236ZM109.274 55.2419L79.2198 72.6725L79.5138 73.1904L109.568 55.7599L109.274 55.2419ZM80.5941 82.3781L108.661 66.0999L108.367 65.5819L80.3001 81.8601L80.5941 82.3781ZM79.1442 81.624C79.1517 81.9516 79.2717 82.2847 79.5618 82.4595C79.8621 82.6404 80.2339 82.587 80.5941 82.3781L80.3001 81.8601C80.0457 82.0077 79.9221 81.9707 79.8776 81.9439C79.823 81.911 79.7487 81.8123 79.7439 81.5999L79.1442 81.624ZM79.1037 77.0805L79.1442 81.6198L79.7439 81.6041L79.7035 77.0648L79.1037 77.0805ZM109.31 59.3831L79.2566 76.8137L79.5507 77.3316L109.604 59.9011L109.31 59.3831ZM109.798 64.1567L109.757 59.6343L109.158 59.65L109.198 64.1724L109.798 64.1567ZM108.661 66.0999C108.972 65.9195 109.253 65.5892 109.452 65.2496C109.651 64.9111 109.801 64.5083 109.798 64.1567L109.198 64.1724C109.2 64.3709 109.106 64.6622 108.936 64.9524C108.766 65.2414 108.553 65.4743 108.367 65.5819L108.661 66.0999Z" fill="#31B5CB" mask="url(#path-9-inside-2_2129:969)"/>
<path d="M94.4271 58.5393C100.664 54.5685 105.726 46.0204 105.679 39.4291C105.632 32.8378 100.494 30.7847 94.2576 34.7555C88.0211 38.7263 82.9583 47.2743 83.0053 53.8656C83.0523 60.4569 88.1906 62.51 94.4271 58.5393ZM94.2771 37.5016C99.1428 34.4036 103.07 36.0391 103.106 41.0675C103.142 46.0958 99.2733 52.6952 94.4076 55.7932C89.5419 58.8912 85.6144 57.2556 85.5785 52.2273C85.5427 47.199 89.4114 40.5996 94.2771 37.5016Z" fill="#3B5ADC" stroke="#3B5ADC" stroke-width="0.3"/>
<path d="M91.9621 52.5231L91.962 52.5231L91.9636 52.5237C92.2193 52.6281 92.48 52.5992 92.8585 52.3618C93.237 52.1243 93.4957 51.8273 93.7477 51.4044L93.7485 51.403L99.8911 40.9703C99.8912 40.9701 99.8914 40.9698 99.8915 40.9696C100.146 40.5427 100.28 40.1132 100.278 39.758C100.275 39.4027 100.136 39.1452 99.8773 39.0397C99.363 38.8298 98.5999 39.3085 98.0932 40.1591L92.8344 48.9857L90.321 47.9597C89.8066 47.7497 89.0436 48.2284 88.5368 49.079C88.2823 49.5062 88.1475 49.9359 88.15 50.2913C88.1525 50.6463 88.292 50.9036 88.5498 51.0093L91.9621 52.5231Z" fill="#31B5CB" stroke="#31B5CB" stroke-width="0.3"/>
<path d="M56.8755 89.5159L67.3891 82.8684L67.4756 94.9944L49.3692 106.443L49.2584 90.9057L53.9912 87.9132L55.8456 89.6221C56.1133 89.8688 56.5061 89.7495 56.8755 89.5159ZM68.7726 79.245L57.6131 86.301L55.7587 84.5921C55.491 84.3454 55.0981 84.4647 54.7288 84.6982L47.9527 88.9826C47.5816 89.2172 47.262 89.5489 47.0336 89.9344C46.8031 90.3234 46.6733 90.7543 46.6763 91.164L46.8066 109.437C46.8095 109.847 46.9442 110.111 47.1782 110.206C47.41 110.3 47.7315 110.227 48.1025 109.992L68.8981 96.8436C69.2692 96.609 69.5888 96.2774 69.8172 95.8919C70.0477 95.5029 70.1774 95.0719 70.1745 94.6623L70.0685 79.8C70.0659 79.4352 69.8906 79.2013 69.6535 79.1046C69.4145 79.0073 69.0954 79.0409 68.7726 79.245Z" fill="#31B5CB" stroke="#31B5CB" stroke-width="0.3"/>
</svg>
