<svg width="427" height="104" viewBox="0 0 427 104" fill="none" xmlns="http://www.w3.org/2000/svg">
<mask id="mask0" mask-type="alpha" maskUnits="userSpaceOnUse" x="0" y="0" width="102" height="104">
<path fill-rule="evenodd" clip-rule="evenodd" d="M101.154 34.8211C100.991 34.6923 100.827 34.565 100.662 34.437L100.619 34.4038C97.7551 32.1791 93.516 34.2375 93.516 34.2375C93.516 34.2375 76.5484 43.478 72.8302 46.0837C70.0492 48.0319 70.1241 50.6243 70.1556 51.7116C70.1576 51.7809 70.1594 51.844 70.1603 51.9005C70.1621 52.0162 70.1621 52.1319 70.1621 52.2476V52.2837H70.1664C70.1321 53.3672 70.1945 56.3957 73.0995 58.4163C76.8426 61.0265 93.8081 70.2713 93.8081 70.2713C93.8081 70.2713 97.7055 71.979 100.589 69.7543L100.62 69.7299C100.821 69.5751 101.02 69.4215 101.217 69.265C94.1422 89.4885 74.8919 103.994 52.2536 103.994C23.6121 103.994 0.393555 80.7753 0.393555 52.1338C0.393555 23.4922 23.6121 0.273682 52.2536 0.273682C74.8241 0.273682 94.027 14.6923 101.154 34.8211Z" fill="#24FF00"/>
</mask>
<g mask="url(#mask0)">
<path fill-rule="evenodd" clip-rule="evenodd" d="M52.2536 100.487C78.9585 100.487 100.607 78.8387 100.607 52.1338C100.607 25.4288 78.9585 3.78024 52.2536 3.78024C25.5487 3.78024 3.90011 25.4288 3.90011 52.1338C3.90011 78.8387 25.5487 100.487 52.2536 100.487ZM52.2536 103.994C80.8951 103.994 104.114 80.7753 104.114 52.1338C104.114 23.4922 80.8951 0.273682 52.2536 0.273682C23.6121 0.273682 0.393555 23.4922 0.393555 52.1338C0.393555 80.7753 23.6121 103.994 52.2536 103.994Z" fill="#383C50"/>
<path fill-rule="evenodd" clip-rule="evenodd" d="M52.2532 84.9292C70.3657 84.9292 85.0487 70.2462 85.0487 52.1337C85.0487 34.0213 70.3657 19.3382 52.2532 19.3382C34.1408 19.3382 19.4577 34.0213 19.4577 52.1337C19.4577 70.2462 34.1408 84.9292 52.2532 84.9292ZM52.2532 88.4358C72.3023 88.4358 88.5553 72.1828 88.5553 52.1337C88.5553 32.0846 72.3023 15.8317 52.2532 15.8317C32.2042 15.8317 15.9512 32.0846 15.9512 52.1337C15.9512 72.1828 32.2042 88.4358 52.2532 88.4358Z" fill="#383C50"/>
<mask id="mask1" mask-type="alpha" maskUnits="userSpaceOnUse" x="0" y="0" width="104" height="104">
<path fill-rule="evenodd" clip-rule="evenodd" d="M52.2829 103.474C80.638 103.474 103.624 80.4881 103.624 52.133C103.624 23.7779 80.638 0.791504 52.2829 0.791504C23.9278 0.791504 0.941406 23.7779 0.941406 52.133C0.941406 80.4881 23.9278 103.474 52.2829 103.474ZM52.2829 88.0719C72.1315 88.0719 88.2219 71.9815 88.2219 52.1329C88.2219 32.2843 72.1315 16.1939 52.2829 16.1939C32.4343 16.1939 16.3439 32.2843 16.3439 52.1329C16.3439 71.9815 32.4343 88.0719 52.2829 88.0719Z" fill="black"/>
</mask>
<g mask="url(#mask1)">
<path d="M0.423828 0.273682H52.2538V52.2861H0.423828V0.273682Z" fill="#383C50"/>
<path d="M52.3145 52.2893H104.144V104.302H52.3145V52.2893Z" fill="#383C50"/>
</g>
<path fill-rule="evenodd" clip-rule="evenodd" d="M52.2541 66.4145C60.1412 66.4145 66.5349 60.0208 66.5349 52.1337C66.5349 44.2467 60.1412 37.853 52.2541 37.853C44.3671 37.853 37.9734 44.2467 37.9734 52.1337C37.9734 60.0208 44.3671 66.4145 52.2541 66.4145ZM52.2541 69.9211C62.0778 69.9211 70.0414 61.9574 70.0414 52.1337C70.0414 42.3101 62.0778 34.3464 52.2541 34.3464C42.4304 34.3464 34.4668 42.3101 34.4668 52.1337C34.4668 61.9574 42.4304 69.9211 52.2541 69.9211Z" fill="#383C50"/>
<mask id="mask2" mask-type="alpha" maskUnits="userSpaceOnUse" x="34" y="34" width="36" height="36">
<path d="M69.8859 52.1338C69.8859 61.8719 61.9916 69.7662 52.2535 69.7662C42.5154 69.7662 34.6211 61.8719 34.6211 52.1338C34.6211 42.3956 42.5154 34.5013 52.2535 34.5013C61.9916 34.5013 69.8859 42.3956 69.8859 52.1338Z" fill="black"/>
</mask>
<g mask="url(#mask2)">
<path d="M34.4668 34.3468H52.2541V69.9214H34.4668V34.3468Z" fill="#383C50"/>
</g>
</g>
<path fill-rule="evenodd" clip-rule="evenodd" d="M104.009 48.8202C104.051 49.4269 104.089 50.0667 104.122 50.7419C104.149 50.8946 104.163 51.3569 104.166 51.8537C104.167 52.0108 104.167 52.1714 104.166 52.3268H71.5021V52.1257C71.5021 52.0834 71.5013 52.0353 71.5004 51.9818C71.4983 51.8545 71.4957 51.6968 71.5021 51.5143C71.5251 50.8516 71.6658 49.8623 72.3756 48.8202C72.775 48.2338 73.3546 47.6306 74.1948 47.0595C77.6445 44.7137 93.387 36.395 93.387 36.395L95.0252 39.4954L94.3478 39.8544C93.9126 40.0853 93.2867 40.4181 92.5245 40.8249C90.9997 41.6388 88.9322 42.7476 86.7588 43.9287C83.5074 45.6954 80.168 47.5443 78.0059 48.8202H100.494C100.201 44.8018 99.724 42.6552 99.2203 41.4044C98.7544 40.2475 98.2787 39.8238 97.2149 39.0226L97.2139 39.0218C97.0547 38.9019 96.8087 38.8064 96.2254 38.9551C95.9474 39.026 95.6888 39.1338 95.4963 39.229C95.4044 39.2746 95.3386 39.3117 95.3059 39.3309C95.3014 39.3335 95.2976 39.3357 95.2946 39.3375L95.1799 39.4136L95.0252 39.4954L93.387 36.395C93.387 36.395 96.6672 34.2188 99.3244 36.2216C101.707 38.0157 103.367 39.5912 104.009 48.8202Z" fill="#383C50"/>
<path d="M74.1058 57.1999C77.5785 59.5496 93.319 67.8723 93.319 67.8723C93.319 67.8723 96.6211 70.0486 99.2961 68.0458C101.852 66.1336 103.583 64.4581 104.126 53.5136C104.154 53.3481 104.166 52.9696 104.17 52.323H71.5062C71.4744 53.2968 71.407 55.3785 74.1058 57.1999Z" fill="#383C50"/>
<path fill-rule="evenodd" clip-rule="evenodd" d="M72.5752 55.8296C71.7463 54.8035 71.5451 53.8005 71.5062 53.0477C71.4917 52.7676 71.4997 52.5221 71.5062 52.323H104.17C104.166 52.9696 104.154 53.3481 104.126 53.5136C104.085 54.3367 104.038 55.1073 103.984 55.8296C103.318 64.7114 101.66 66.2774 99.2961 68.0458C96.6211 70.0486 93.319 67.8723 93.319 67.8723L94.9581 64.7724L95.1075 64.8514L95.2179 64.9242C95.2212 64.9261 95.2252 64.9285 95.2301 64.9313C95.2635 64.9508 95.3304 64.9883 95.4238 65.0342C95.6189 65.1301 95.8818 65.2391 96.1652 65.3108C96.761 65.4617 97.0239 65.3665 97.1945 65.2388L97.1956 65.238C98.2655 64.4376 98.7462 64.0103 99.2154 62.8511C99.7052 61.641 100.17 59.594 100.466 55.8296H78.5905C80.7455 57.0791 83.7553 58.742 86.689 60.3363C88.8638 61.5181 90.932 62.6276 92.457 63.442C93.2193 63.849 93.8454 64.1821 94.2805 64.4131L94.9581 64.7724L93.319 67.8723C93.319 67.8723 77.5785 59.5496 74.1058 57.1999C73.4422 56.7521 72.9459 56.2885 72.5752 55.8296Z" fill="#383C50"/>
<path d="M135.204 51.7396C135.204 49.0799 134.864 47.1662 134.184 45.9985C133.536 44.7984 132.305 44.1984 130.491 44.1984C129.844 44.1984 129.131 44.247 128.354 44.3443C127.577 44.4416 126.994 44.5227 126.605 44.5876V65.1192H120.727V40.5007C121.86 40.1764 123.334 39.8682 125.147 39.5763C126.994 39.2844 128.937 39.1384 130.977 39.1384C132.726 39.1384 134.151 39.3655 135.252 39.8196C136.386 40.2737 137.325 40.8737 138.07 41.6198C138.426 41.3603 138.88 41.0846 139.43 40.7927C139.981 40.5007 140.596 40.2413 141.277 40.0142C141.957 39.7547 142.669 39.5439 143.414 39.3817C144.191 39.2195 144.969 39.1384 145.746 39.1384C147.722 39.1384 149.341 39.4304 150.604 40.0142C151.9 40.5656 152.904 41.3603 153.616 42.3982C154.361 43.4037 154.863 44.6363 155.122 46.0958C155.414 47.523 155.56 49.0961 155.56 50.8152V65.1192H149.681V51.7396C149.681 49.0799 149.357 47.1662 148.71 45.9985C148.062 44.7984 146.815 44.1984 144.969 44.1984C144.03 44.1984 143.139 44.3606 142.297 44.6849C141.455 44.9768 140.823 45.2687 140.402 45.5607C140.661 46.3716 140.839 47.2311 140.936 48.1393C141.034 49.0475 141.082 50.0205 141.082 51.0585V65.1192H135.204V51.7396Z" fill="#383C50"/>
<path d="M182.145 64.3408C181.011 64.6327 179.538 64.9246 177.724 65.2166C175.91 65.5409 173.919 65.7031 171.749 65.7031C169.708 65.7031 167.992 65.4112 166.599 64.8273C165.239 64.2435 164.137 63.4326 163.295 62.3947C162.486 61.3567 161.903 60.1242 161.546 58.697C161.19 57.2374 161.012 55.6481 161.012 53.929V39.6736H166.89V53.0046C166.89 55.7292 167.279 57.6753 168.056 58.843C168.866 60.0107 170.259 60.5945 172.234 60.5945C172.947 60.5945 173.692 60.5621 174.469 60.4972C175.279 60.4323 175.878 60.3512 176.267 60.2539V39.6736H182.145V64.3408Z" fill="#383C50"/>
<path d="M197.011 65.6058C195.262 65.5733 193.805 65.3787 192.639 65.0219C191.505 64.6651 190.599 64.1624 189.918 63.5137C189.238 62.8325 188.752 62.0054 188.461 61.0324C188.202 60.0269 188.072 58.8916 188.072 57.6267V28.3374L193.951 27.3644V56.5076C193.951 57.2212 193.999 57.8213 194.096 58.3078C194.226 58.7943 194.437 59.216 194.728 59.5728C195.02 59.8971 195.408 60.1566 195.894 60.3512C196.412 60.5134 197.06 60.6432 197.837 60.7405L197.011 65.6058Z" fill="#383C50"/>
<path d="M200.843 32.9595L206.722 31.9864V39.6736H215.758V44.5876H206.722V54.9507C206.722 56.9942 207.045 58.4538 207.693 59.3295C208.341 60.2053 209.442 60.6432 210.997 60.6432C212.066 60.6432 213.005 60.5296 213.814 60.3026C214.657 60.0755 215.32 59.8647 215.806 59.6701L216.778 64.3408C216.098 64.6327 215.207 64.9246 214.106 65.2166C213.005 65.5409 211.709 65.7031 210.219 65.7031C208.406 65.7031 206.884 65.4598 205.653 64.9733C204.454 64.4868 203.499 63.7894 202.786 62.8812C202.074 61.9406 201.572 60.8215 201.28 59.5241C200.989 58.1943 200.843 56.686 200.843 54.9994V32.9595Z" fill="#383C50"/>
<path d="M225.91 65.1192H220.031V39.6736H225.91V65.1192ZM226.541 32.2297C226.541 33.3325 226.185 34.2083 225.473 34.857C224.76 35.5057 223.918 35.83 222.946 35.83C221.942 35.83 221.084 35.5057 220.371 34.857C219.659 34.2083 219.303 33.3325 219.303 32.2297C219.303 31.0945 219.659 30.2025 220.371 29.5538C221.084 28.9051 221.942 28.5807 222.946 28.5807C223.918 28.5807 224.76 28.9051 225.473 29.5538C226.185 30.2025 226.541 31.0945 226.541 32.2297Z" fill="#383C50"/>
<path d="M247.534 51.0581C247.534 48.4729 246.936 46.4622 245.74 45.026C244.576 43.5898 242.684 42.8717 240.065 42.8717C239.516 42.8717 238.934 42.9036 238.319 42.9675C237.737 42.9994 237.155 43.0951 236.573 43.2547V57.5689C237.091 57.92 237.77 58.2551 238.61 58.5742C239.483 58.8615 240.405 59.0051 241.375 59.0051C243.509 59.0051 245.061 58.287 246.031 56.8508C247.033 55.4146 247.534 53.4837 247.534 51.0581ZM253.548 50.9623C253.548 52.8773 253.289 54.6326 252.772 56.2284C252.287 57.8242 251.576 59.1966 250.638 60.3456C249.7 61.4945 248.52 62.3882 247.098 63.0265C245.707 63.6648 244.123 63.9839 242.345 63.9839C241.148 63.9839 240.049 63.8403 239.047 63.5531C238.045 63.2658 237.22 62.9467 236.573 62.5956V72.3139H230.705V39.2333C231.901 38.9142 233.372 38.611 235.118 38.3237C236.864 38.0365 238.707 37.8929 240.647 37.8929C242.652 37.8929 244.446 38.1961 246.031 38.8025C247.615 39.4089 248.957 40.2866 250.056 41.4355C251.188 42.5526 252.044 43.9249 252.626 45.5526C253.241 47.1484 253.548 48.9517 253.548 50.9623Z" fill="#383C50"/>
<path d="M267.065 59.3881C268.875 59.3881 270.249 59.2923 271.187 59.1008V52.6858C270.864 52.59 270.395 52.4943 269.78 52.3986C269.166 52.3028 268.487 52.2549 267.744 52.2549C267.097 52.2549 266.434 52.3028 265.755 52.3986C265.108 52.4943 264.51 52.6698 263.961 52.9252C263.443 53.1805 263.023 53.5475 262.7 54.0262C262.376 54.4731 262.215 55.0475 262.215 55.7497C262.215 57.1221 262.651 58.0795 263.524 58.6221C264.397 59.1328 265.577 59.3881 267.065 59.3881ZM266.58 37.7971C268.519 37.7971 270.152 38.0365 271.478 38.5152C272.804 38.994 273.854 39.6642 274.63 40.5259C275.439 41.3876 276.004 42.4409 276.328 43.6856C276.683 44.8984 276.861 46.2388 276.861 47.7069V62.8828C275.956 63.0743 274.582 63.2977 272.739 63.5531C270.928 63.8403 268.875 63.9839 266.58 63.9839C265.06 63.9839 263.67 63.8403 262.409 63.5531C261.148 63.2658 260.065 62.8031 259.159 62.1647C258.286 61.5264 257.591 60.6966 257.074 59.6753C256.589 58.654 256.346 57.3934 256.346 55.8933C256.346 54.4571 256.621 53.2443 257.171 52.2549C257.753 51.2655 258.529 50.4677 259.499 49.8613C260.469 49.2229 261.584 48.7761 262.845 48.5208C264.138 48.2336 265.48 48.0899 266.871 48.0899C267.517 48.0899 268.196 48.1378 268.907 48.2336C269.619 48.2974 270.379 48.4251 271.187 48.6165V47.6591C271.187 46.9888 271.106 46.3505 270.944 45.7441C270.783 45.1377 270.492 44.6111 270.071 44.1643C269.683 43.6856 269.15 43.3185 268.471 43.0632C267.824 42.8079 267 42.6802 265.998 42.6802C264.64 42.6802 263.395 42.776 262.263 42.9675C261.132 43.159 260.21 43.3824 259.499 43.6377L258.771 38.9461C259.515 38.6908 260.598 38.4354 262.021 38.1801C263.443 37.9248 264.963 37.7971 266.58 37.7971Z" fill="#383C50"/>
<path d="M288.946 59.2923C290.498 59.2923 291.63 59.1168 292.341 58.7657C293.052 58.3827 293.408 57.7444 293.408 56.8508C293.408 56.021 293.02 55.3348 292.244 54.7922C291.5 54.2497 290.256 53.6592 288.51 53.0209C287.443 52.6379 286.456 52.239 285.551 51.8241C284.678 51.3772 283.918 50.8666 283.272 50.2921C282.625 49.7176 282.108 49.0314 281.72 48.2336C281.364 47.4037 281.186 46.3984 281.186 45.2175C281.186 42.9196 282.043 41.1164 283.757 39.8078C285.47 38.4674 287.798 37.7971 290.74 37.7971C292.228 37.7971 293.65 37.9408 295.008 38.228C296.366 38.4833 297.385 38.7386 298.064 38.994L296.997 43.6856C296.35 43.3983 295.526 43.143 294.523 42.9196C293.521 42.6643 292.357 42.5366 291.031 42.5366C289.835 42.5366 288.865 42.7441 288.122 43.159C287.378 43.542 287.006 44.1483 287.006 44.9782C287.006 45.3931 287.071 45.7601 287.2 46.0792C287.362 46.3984 287.62 46.7016 287.976 46.9888C288.332 47.2442 288.801 47.5155 289.383 47.8027C289.965 48.058 290.676 48.3293 291.516 48.6165C292.907 49.1272 294.087 49.6378 295.057 50.1485C296.027 50.6272 296.819 51.1858 297.433 51.8241C298.08 52.4305 298.549 53.1326 298.84 53.9305C299.131 54.7284 299.276 55.6859 299.276 56.8029C299.276 59.1966 298.371 61.0158 296.56 62.2605C294.782 63.4733 292.228 64.0797 288.898 64.0797C286.667 64.0797 284.872 63.8882 283.514 63.5052C282.156 63.1541 281.202 62.8669 280.653 62.6435L281.671 57.8083C282.544 58.1593 283.579 58.4944 284.775 58.8136C286.004 59.1328 287.394 59.2923 288.946 59.2923Z" fill="#383C50"/>
<path d="M309.656 59.2923C311.208 59.2923 312.34 59.1168 313.051 58.7657C313.763 58.3827 314.118 57.7444 314.118 56.8508C314.118 56.021 313.73 55.3348 312.954 54.7922C312.211 54.2497 310.966 53.6592 309.22 53.0209C308.153 52.6379 307.167 52.239 306.262 51.8241C305.389 51.3772 304.629 50.8666 303.982 50.2921C303.335 49.7176 302.818 49.0314 302.43 48.2336C302.074 47.4037 301.897 46.3984 301.897 45.2175C301.897 42.9196 302.753 41.1164 304.467 39.8078C306.181 38.4674 308.509 37.7971 311.451 37.7971C312.938 37.7971 314.361 37.9408 315.719 38.228C317.077 38.4833 318.095 38.7386 318.774 38.994L317.707 43.6856C317.061 43.3983 316.236 43.143 315.234 42.9196C314.231 42.6643 313.067 42.5366 311.742 42.5366C310.546 42.5366 309.576 42.7441 308.832 43.159C308.088 43.542 307.716 44.1483 307.716 44.9782C307.716 45.3931 307.781 45.7601 307.91 46.0792C308.072 46.3984 308.331 46.7016 308.686 46.9888C309.042 47.2442 309.511 47.5155 310.093 47.8027C310.675 48.058 311.386 48.3293 312.227 48.6165C313.617 49.1272 314.797 49.6378 315.767 50.1485C316.737 50.6272 317.529 51.1858 318.144 51.8241C318.79 52.4305 319.259 53.1326 319.55 53.9305C319.841 54.7284 319.987 55.6859 319.987 56.8029C319.987 59.1966 319.081 61.0158 317.271 62.2605C315.492 63.4733 312.938 64.0797 309.608 64.0797C307.377 64.0797 305.583 63.8882 304.225 63.5052C302.867 63.1541 301.913 62.8669 301.363 62.6435L302.382 57.8083C303.255 58.1593 304.289 58.4944 305.486 58.8136C306.714 59.1328 308.104 59.2923 309.656 59.2923Z" fill="#383C50"/>
<path d="M339.145 47.7069C338.401 50.5155 337.593 53.2603 336.72 55.9412C335.879 58.5902 335.039 61.0956 334.198 63.4573H329.397C328.75 61.9892 328.071 60.3136 327.36 58.4306C326.649 56.5476 325.937 54.5369 325.226 52.3986C324.515 50.2602 323.803 48.0101 323.092 45.6484C322.381 43.2866 321.686 40.877 321.007 38.4195H327.214C327.505 39.7599 327.845 41.2121 328.233 42.776C328.621 44.3079 329.025 45.8878 329.445 47.5155C329.866 49.1112 330.302 50.6751 330.755 52.2071C331.207 53.739 331.66 55.1433 332.113 56.4199C332.598 54.9518 333.067 53.4358 333.519 51.8719C334.004 50.3081 334.457 48.7442 334.877 47.1803C335.297 45.6165 335.685 44.1005 336.041 42.6324C336.429 41.1323 336.769 39.728 337.06 38.4195H341.57C341.861 39.728 342.184 41.1323 342.54 42.6324C342.896 44.1005 343.267 45.6165 343.655 47.1803C344.076 48.7442 344.512 50.3081 344.965 51.8719C345.45 53.4358 345.935 54.9518 346.42 56.4199C346.84 55.1433 347.277 53.739 347.729 52.2071C348.182 50.6751 348.618 49.1112 349.039 47.5155C349.491 45.8878 349.912 44.3079 350.3 42.776C350.688 41.2121 351.027 39.7599 351.318 38.4195H357.38C356.701 40.877 356.006 43.2866 355.295 45.6484C354.584 48.0101 353.872 50.2602 353.161 52.3986C352.45 54.5369 351.738 56.5476 351.027 58.4306C350.316 60.3136 349.621 61.9892 348.942 63.4573H344.189C343.348 61.0956 342.475 58.5902 341.57 55.9412C340.697 53.2603 339.889 50.5155 339.145 47.7069Z" fill="#383C50"/>
<path d="M382.867 50.9145C382.867 52.8932 382.576 54.6965 381.994 56.3242C381.412 57.9519 380.587 59.3402 379.52 60.4892C378.453 61.6381 377.16 62.5318 375.64 63.1701C374.153 63.8084 372.504 64.1276 370.694 64.1276C368.883 64.1276 367.234 63.8084 365.747 63.1701C364.259 62.5318 362.982 61.6381 361.915 60.4892C360.848 59.3402 360.008 57.9519 359.393 56.3242C358.811 54.6965 358.52 52.8932 358.52 50.9145C358.52 48.9357 358.811 47.1484 359.393 45.5526C360.008 43.9249 360.848 42.5366 361.915 41.3876C363.015 40.2387 364.308 39.361 365.795 38.7546C367.283 38.1163 368.915 37.7971 370.694 37.7971C372.472 37.7971 374.105 38.1163 375.592 38.7546C377.112 39.361 378.405 40.2387 379.472 41.3876C380.539 42.5366 381.363 43.9249 381.945 45.5526C382.56 47.1484 382.867 48.9357 382.867 50.9145ZM376.853 50.9145C376.853 48.425 376.303 46.4622 375.204 45.026C374.137 43.5579 372.634 42.8239 370.694 42.8239C368.754 42.8239 367.234 43.5579 366.135 45.026C365.068 46.4622 364.534 48.425 364.534 50.9145C364.534 53.4358 365.068 55.4305 366.135 56.8987C367.234 58.3668 368.754 59.1008 370.694 59.1008C372.634 59.1008 374.137 58.3668 375.204 56.8987C376.303 55.4305 376.853 53.4358 376.853 50.9145Z" fill="#383C50"/>
<path d="M401.91 43.6377C401.425 43.4781 400.746 43.3185 399.873 43.159C399.032 42.9675 398.046 42.8717 396.915 42.8717C396.268 42.8717 395.573 42.9356 394.829 43.0632C394.118 43.1909 393.617 43.3026 393.326 43.3983V63.4573H387.457V39.6163C388.589 39.2014 389.995 38.8184 391.677 38.4674C393.39 38.0844 395.282 37.8929 397.351 37.8929C397.739 37.8929 398.192 37.9248 398.709 37.9886C399.226 38.0205 399.744 38.0844 400.261 38.1801C400.778 38.244 401.279 38.3397 401.764 38.4674C402.249 38.5631 402.637 38.6589 402.928 38.7546L401.91 43.6377Z" fill="#383C50"/>
<path d="M410.17 50.8666C410.17 53.4198 410.785 55.4305 412.013 56.8987C413.242 58.3349 414.939 59.053 417.105 59.053C418.043 59.053 418.835 59.021 419.482 58.9572C420.161 58.8615 420.711 58.7657 421.131 58.67V44.3079C420.614 43.9569 419.918 43.6377 419.045 43.3505C418.205 43.0313 417.299 42.8717 416.33 42.8717C414.196 42.8717 412.627 43.5898 411.625 45.026C410.655 46.4622 410.17 48.4091 410.17 50.8666ZM426.999 62.6913C425.835 63.0424 424.364 63.3616 422.586 63.6488C420.84 63.9361 418.997 64.0797 417.057 64.0797C415.052 64.0797 413.258 63.7765 411.674 63.1701C410.089 62.5637 408.731 61.702 407.6 60.5849C406.5 59.436 405.644 58.0636 405.029 56.4678C404.447 54.8401 404.156 53.0209 404.156 51.0102C404.156 49.0314 404.399 47.2442 404.884 45.6484C405.401 44.0207 406.145 42.6324 407.115 41.4834C408.085 40.3344 409.265 39.4567 410.655 38.8504C412.045 38.212 413.646 37.8929 415.457 37.8929C416.685 37.8929 417.768 38.0365 418.706 38.3237C419.644 38.611 420.452 38.9301 421.131 39.2812V27.265L426.999 26.3075V62.6913Z" fill="#383C50"/>
</svg>
