<svg width="168" height="166" viewBox="0 0 168 166" fill="none" xmlns="http://www.w3.org/2000/svg">
<path d="M167.805 83C167.805 128.369 130.452 165.105 84.3214 165.105C38.1908 165.105 0.837891 128.369 0.837891 83C0.837891 37.631 38.1908 0.894753 84.3214 0.894753C130.452 0.894753 167.805 37.631 167.805 83Z" fill="#3B5ADC"/>
<path d="M84.3213 19.6265V83.0001H148.874C148.798 48.0428 119.865 19.7008 84.3213 19.6265Z" fill="#9CB5BE"/>
<path d="M84.2342 19.6148C48.5907 19.6148 19.761 48.0428 19.6895 83.0001H84.3216V19.6265C84.3216 19.6265 84.2779 19.6148 84.2342 19.6148Z" fill="#E1EBEE"/>
<path d="M84.3208 145.556V83H19.7324C19.8159 118.188 44.5668 145.482 84.3208 145.556Z" fill="#9CB5BE"/>
<path d="M84.3213 51.9409V83.0002H52.2716C52.2716 83.3208 52.2637 83.2817 52.2637 83.4185C52.2637 100.809 66.595 114.912 84.2856 114.912C101.968 114.912 116.256 100.821 116.256 83.4224C116.252 66.0786 101.932 52.0152 84.3213 51.9409Z" fill="#DAE6E9"/>
<path d="M84.3212 51.9407C84.3212 51.9407 84.2775 51.9289 84.2338 51.9289C66.6903 51.9289 52.4981 66.0041 52.2715 82.9999H84.3212V51.9407Z" fill="white"/>
<path d="M84.2819 99.5853C93.5098 99.5853 100.99 92.2281 100.99 83.1525C100.99 74.0769 93.5098 66.7197 84.2819 66.7197C75.0539 66.7197 67.5732 74.0769 67.5732 83.1525C67.5732 92.2281 75.0539 99.5853 84.2819 99.5853Z" fill="white"/>
<path d="M149.017 81.4282C148.472 70.5747 146.739 68.9248 144.179 67.0285C141.499 65.0424 138.192 67.2006 138.192 67.2006C138.192 67.2006 122.318 75.4502 118.839 77.7765C115.898 79.7431 116.124 82.0929 116.124 82.8005C116.124 82.8592 116.124 82.9999 116.124 82.9999H149.06C149.064 82.3587 149.052 81.6276 149.017 81.4282Z" fill="white"/>
<path d="M118.951 87.8326C122.429 90.1628 138.196 98.4164 138.196 98.4164C138.196 98.4164 141.503 100.575 144.183 98.5884C146.743 96.6921 148.476 95.0305 149.021 84.177C149.049 84.0128 149.061 83.6374 149.065 82.9962H116.347C116.315 83.9619 116.248 86.0263 118.951 87.8326Z" fill="#AFC7CF"/>
</svg>
