<svg width="533" height="135" viewBox="0 0 533 135" fill="none" xmlns="http://www.w3.org/2000/svg">
<path d="M167.75 66.9629C167.75 63.641 167.325 61.2509 166.475 59.7925C165.666 58.2936 164.129 57.5441 161.864 57.5441C161.055 57.5441 160.165 57.6049 159.194 57.7264C158.223 57.848 157.495 57.9493 157.01 58.0303V83.6736H149.668V52.9259C151.084 52.5208 152.924 52.136 155.19 51.7714C157.495 51.4068 159.922 51.2245 162.471 51.2245C164.655 51.2245 166.435 51.508 167.81 52.0752C169.226 52.6423 170.399 53.3918 171.33 54.3235C171.775 53.9995 172.341 53.6551 173.029 53.2905C173.716 52.9259 174.485 52.6018 175.334 52.3183C176.184 51.9942 177.074 51.7308 178.004 51.5283C178.975 51.3257 179.946 51.2245 180.916 51.2245C183.384 51.2245 185.407 51.5891 186.984 52.3183C188.602 53.0069 189.856 53.9995 190.746 55.2958C191.676 56.5516 192.303 58.091 192.627 59.914C192.991 61.6965 193.173 63.6613 193.173 65.8083V83.6736H185.831V66.9629C185.831 63.641 185.427 61.2509 184.618 59.7925C183.809 58.2936 182.251 57.5441 179.946 57.5441C178.773 57.5441 177.66 57.7467 176.608 58.1518C175.557 58.5164 174.768 58.881 174.242 59.2456C174.566 60.2584 174.788 61.3319 174.909 62.4662C175.031 63.6005 175.092 64.8158 175.092 66.1122V83.6736H167.75V66.9629Z" fill="#3B5ADC"/>
<path d="M226.378 82.7013C224.962 83.0659 223.121 83.4305 220.856 83.7951C218.591 84.2002 216.103 84.4028 213.393 84.4028C210.844 84.4028 208.7 84.0382 206.961 83.309C205.262 82.5798 203.887 81.5671 202.835 80.2707C201.824 78.9744 201.096 77.4349 200.651 75.6525C200.206 73.8295 199.983 71.8445 199.983 69.6974V51.8929H207.325V68.5428C207.325 71.9457 207.81 74.3764 208.781 75.8348C209.793 77.2932 211.532 78.0224 214 78.0224C214.889 78.0224 215.82 77.9818 216.791 77.9008C217.802 77.8198 218.55 77.7185 219.036 77.597V51.8929H226.378V82.7013Z" fill="#3B5ADC"/>
<path d="M244.945 84.2813C242.761 84.2408 240.94 83.9977 239.484 83.5521C238.068 83.1065 236.936 82.4785 236.086 81.6683C235.237 80.8176 234.63 79.7846 234.266 78.5693C233.942 77.3134 233.781 75.8955 233.781 74.3156V37.7344L241.122 36.519V72.918C241.122 73.8092 241.183 74.5587 241.305 75.1663C241.466 75.774 241.729 76.3006 242.093 76.7463C242.457 77.1514 242.943 77.4755 243.55 77.7185C244.197 77.9211 245.006 78.0831 245.977 78.2047L244.945 84.2813Z" fill="#3B5ADC"/>
<path d="M249.731 43.5072L257.073 42.2918V51.8929H268.359V58.0303H257.073V70.9735C257.073 73.5257 257.477 75.3486 258.286 76.4424C259.095 77.5362 260.471 78.0831 262.412 78.0831C263.747 78.0831 264.92 77.9413 265.932 77.6578C266.983 77.3742 267.813 77.1109 268.419 76.8678L269.633 82.7013C268.783 83.0659 267.671 83.4305 266.296 83.7951C264.92 84.2002 263.302 84.4028 261.442 84.4028C259.176 84.4028 257.275 84.099 255.738 83.4913C254.241 82.8836 253.048 82.0127 252.158 80.8784C251.268 79.7036 250.641 78.3059 250.277 76.6855C249.913 75.0246 249.731 73.1408 249.731 71.0342V43.5072Z" fill="#3B5ADC"/>
<path d="M281.038 83.6736H273.696V51.8929H281.038V83.6736ZM281.827 42.5957C281.827 43.973 281.382 45.0668 280.492 45.877C279.602 46.6873 278.551 47.0924 277.337 47.0924C276.083 47.0924 275.011 46.6873 274.121 45.877C273.231 45.0668 272.786 43.973 272.786 42.5957C272.786 41.1778 273.231 40.0637 274.121 39.2535C275.011 38.4433 276.083 38.0382 277.337 38.0382C278.551 38.0382 279.602 38.4433 280.492 39.2535C281.382 40.0637 281.827 41.1778 281.827 42.5957Z" fill="#3B5ADC"/>
<path d="M308.046 66.1117C308.046 62.8829 307.299 60.3716 305.805 58.5778C304.351 56.784 301.989 55.8872 298.718 55.8872C298.031 55.8872 297.305 55.927 296.537 56.0067C295.81 56.0466 295.084 56.1662 294.357 56.3655V74.2434C295.003 74.6819 295.851 75.1004 296.901 75.4991C297.991 75.8578 299.142 76.0372 300.353 76.0372C303.019 76.0372 304.957 75.1403 306.168 73.3465C307.42 71.5528 308.046 69.1411 308.046 66.1117ZM315.557 65.9921C315.557 68.3838 315.234 70.5762 314.588 72.5692C313.982 74.5623 313.094 76.2764 311.923 77.7114C310.752 79.1464 309.278 80.2625 307.501 81.0598C305.765 81.857 303.786 82.2556 301.565 82.2556C300.071 82.2556 298.698 82.0762 297.446 81.7175C296.194 81.3587 295.164 80.9601 294.357 80.5216V92.6595H287.027V51.3429C288.521 50.9443 290.359 50.5656 292.539 50.2069C294.72 49.8481 297.022 49.6687 299.445 49.6687C301.948 49.6687 304.19 50.0474 306.168 50.8048C308.147 51.5622 309.823 52.6584 311.196 54.0934C312.609 55.4885 313.679 57.2026 314.406 59.2355C315.174 61.2286 315.557 63.4808 315.557 65.9921Z" fill="#3B5ADC"/>
<path d="M332.439 76.5155C334.7 76.5155 336.417 76.396 337.588 76.1568V68.1446C337.184 68.025 336.598 67.9054 335.831 67.7858C335.064 67.6663 334.216 67.6065 333.287 67.6065C332.479 67.6065 331.652 67.6663 330.804 67.7858C329.996 67.9054 329.249 68.1247 328.562 68.4436C327.916 68.7625 327.391 69.2209 326.988 69.8188C326.584 70.3768 326.382 71.0944 326.382 71.9713C326.382 73.6854 326.927 74.8812 328.017 75.5589C329.108 76.1966 330.582 76.5155 332.439 76.5155ZM331.833 49.5492C334.256 49.5492 336.296 49.8481 337.951 50.446C339.607 51.044 340.919 51.8811 341.888 52.9573C342.898 54.0336 343.605 55.349 344.009 56.9036C344.453 58.4184 344.675 60.0926 344.675 61.9262V80.8804C343.544 81.1196 341.828 81.3986 339.526 81.7175C337.265 82.0762 334.7 82.2556 331.833 82.2556C329.935 82.2556 328.199 82.0762 326.624 81.7175C325.049 81.3587 323.696 80.7807 322.566 79.9835C321.475 79.1863 320.607 78.1499 319.961 76.8743C319.355 75.5987 319.052 74.0242 319.052 72.1507C319.052 70.3569 319.396 68.8422 320.082 67.6065C320.809 66.3708 321.778 65.3742 322.99 64.6168C324.201 63.8196 325.594 63.2615 327.169 62.9427C328.785 62.5839 330.46 62.4045 332.197 62.4045C333.004 62.4045 333.852 62.4643 334.741 62.5839C335.629 62.6636 336.578 62.8231 337.588 63.0622V61.8664C337.588 61.0293 337.487 60.2321 337.285 59.4747C337.083 58.7173 336.72 58.0596 336.195 57.5015C335.71 56.9036 335.044 56.4452 334.196 56.1263C333.388 55.8074 332.358 55.648 331.106 55.648C329.41 55.648 327.856 55.7676 326.442 56.0067C325.029 56.2459 323.878 56.5249 322.99 56.8438L322.081 50.9842C323.01 50.6653 324.363 50.3464 326.139 50.0275C327.916 49.7086 329.814 49.5492 331.833 49.5492Z" fill="#3B5ADC"/>
<path d="M359.768 76.3959C361.707 76.3959 363.12 76.1767 364.008 75.7382C364.897 75.2599 365.341 74.4627 365.341 73.3465C365.341 72.3101 364.857 71.4531 363.887 70.7755C362.959 70.0978 361.404 69.3604 359.223 68.5631C357.891 68.0848 356.659 67.5865 355.528 67.0683C354.438 66.5103 353.489 65.8725 352.681 65.155C351.874 64.4375 351.228 63.5804 350.743 62.5839C350.299 61.5475 350.077 60.2919 350.077 58.817C350.077 55.9469 351.147 53.6948 353.287 52.0604C355.427 50.3862 358.335 49.5492 362.01 49.5492C363.867 49.5492 365.644 49.7285 367.34 50.0873C369.036 50.4062 370.308 50.7251 371.156 51.044L369.823 56.9036C369.016 56.5449 367.986 56.226 366.734 55.9469C365.482 55.6281 364.029 55.4686 362.373 55.4686C360.879 55.4686 359.667 55.7277 358.739 56.2459C357.81 56.7242 357.345 57.4816 357.345 58.518C357.345 59.0362 357.426 59.4946 357.588 59.8932C357.79 60.2919 358.113 60.6705 358.557 61.0293C359.001 61.3482 359.587 61.687 360.314 62.0458C361.04 62.3647 361.929 62.7035 362.979 63.0622C364.715 63.7 366.189 64.3378 367.401 64.9756C368.612 65.5735 369.601 66.2711 370.369 67.0683C371.176 67.8257 371.762 68.7027 372.125 69.6992C372.489 70.6957 372.67 71.8916 372.67 73.2867C372.67 76.2764 371.54 78.5485 369.278 80.1031C367.057 81.6178 363.867 82.3752 359.708 82.3752C356.921 82.3752 354.68 82.136 352.984 81.6577C351.288 81.2192 350.097 80.8605 349.41 80.5814L350.682 74.5424C351.773 74.9809 353.065 75.3994 354.559 75.798C356.094 76.1966 357.83 76.3959 359.768 76.3959Z" fill="#3B5ADC"/>
<path d="M385.635 76.3959C387.573 76.3959 388.987 76.1767 389.875 75.7382C390.763 75.2599 391.208 74.4627 391.208 73.3465C391.208 72.3101 390.723 71.4531 389.754 70.7755C388.825 70.0978 387.27 69.3604 385.09 68.5631C383.757 68.0848 382.526 67.5865 381.395 67.0683C380.305 66.5103 379.356 65.8725 378.548 65.155C377.74 64.4375 377.094 63.5804 376.61 62.5839C376.165 61.5475 375.943 60.2919 375.943 58.817C375.943 55.9469 377.013 53.6948 379.154 52.0604C381.294 50.3862 384.201 49.5492 387.876 49.5492C389.734 49.5492 391.51 49.7285 393.207 50.0873C394.903 50.4062 396.175 50.7251 397.023 51.044L395.69 56.9036C394.882 56.5449 393.853 56.226 392.601 55.9469C391.349 55.6281 389.895 55.4686 388.24 55.4686C386.745 55.4686 385.534 55.7277 384.605 56.2459C383.676 56.7242 383.212 57.4816 383.212 58.518C383.212 59.0362 383.293 59.4946 383.454 59.8932C383.656 60.2919 383.979 60.6705 384.423 61.0293C384.868 61.3482 385.453 61.687 386.18 62.0458C386.907 62.3647 387.795 62.7035 388.845 63.0622C390.582 63.7 392.056 64.3378 393.267 64.9756C394.479 65.5735 395.468 66.2711 396.235 67.0683C397.043 67.8257 397.628 68.7027 397.992 69.6992C398.355 70.6957 398.537 71.8916 398.537 73.2867C398.537 76.2764 397.406 78.5485 395.145 80.1031C392.924 81.6178 389.734 82.3752 385.574 82.3752C382.788 82.3752 380.547 82.136 378.851 81.6577C377.155 81.2192 375.963 80.8605 375.277 80.5814L376.549 74.5424C377.639 74.9809 378.932 75.3994 380.426 75.798C381.96 76.1966 383.697 76.3959 385.635 76.3959Z" fill="#3B5ADC"/>
<path d="M422.465 61.9262C421.536 65.434 420.527 68.8621 419.437 72.2105C418.387 75.519 417.337 78.6481 416.287 81.5979H410.29C409.482 79.7643 408.634 77.6715 407.746 75.3197C406.858 72.9679 405.969 70.4566 405.081 67.7858C404.192 65.1151 403.304 62.3049 402.416 59.3551C401.527 56.4054 400.659 53.3958 399.811 50.3265H407.564C407.928 52.0006 408.352 53.8143 408.836 55.7676C409.321 57.6809 409.826 59.6541 410.351 61.687C410.876 63.6801 411.421 65.6333 411.986 67.5467C412.551 69.46 413.117 71.2139 413.682 72.8084C414.288 70.9748 414.873 69.0813 415.439 67.1281C416.044 65.1749 416.61 63.2217 417.135 61.2685C417.66 59.3152 418.144 57.4218 418.589 55.5882C419.073 53.7147 419.497 51.9608 419.861 50.3265H425.494C425.857 51.9608 426.261 53.7147 426.705 55.5882C427.15 57.4218 427.614 59.3152 428.098 61.2685C428.623 63.2217 429.169 65.1749 429.734 67.1281C430.34 69.0813 430.945 70.9748 431.551 72.8084C432.076 71.2139 432.621 69.46 433.187 67.5467C433.752 65.6333 434.297 63.6801 434.822 61.687C435.387 59.6541 435.912 57.6809 436.397 55.7676C436.882 53.8143 437.306 52.0006 437.669 50.3265H445.241C444.393 53.3958 443.524 56.4054 442.636 59.3551C441.748 62.3049 440.859 65.1151 439.971 67.7858C439.082 70.4566 438.194 72.9679 437.306 75.3197C436.417 77.6715 435.549 79.7643 434.701 81.5979H428.765C427.715 78.6481 426.625 75.519 425.494 72.2105C424.404 68.8621 423.394 65.434 422.465 61.9262Z" fill="#3B5ADC"/>
<path d="M477.072 65.9323C477.072 68.4037 476.709 70.6559 475.982 72.6888C475.255 74.7218 474.225 76.4557 472.893 77.8908C471.56 79.3258 469.945 80.4419 468.047 81.2391C466.189 82.0364 464.13 82.435 461.868 82.435C459.607 82.435 457.547 82.0364 455.69 81.2391C453.832 80.4419 452.237 79.3258 450.905 77.8908C449.572 76.4557 448.522 74.7218 447.755 72.6888C447.028 70.6559 446.665 68.4037 446.665 65.9323C446.665 63.4609 447.028 61.2286 447.755 59.2355C448.522 57.2026 449.572 55.4686 450.905 54.0336C452.278 52.5986 453.893 51.5024 455.751 50.745C457.608 49.9478 459.647 49.5492 461.868 49.5492C464.089 49.5492 466.129 49.9478 467.986 50.745C469.884 51.5024 471.499 52.5986 472.832 54.0336C474.165 55.4686 475.194 57.2026 475.921 59.2355C476.689 61.2286 477.072 63.4609 477.072 65.9323ZM469.561 65.9323C469.561 62.8231 468.875 60.3716 467.502 58.5778C466.169 56.7442 464.291 55.8274 461.868 55.8274C459.445 55.8274 457.548 56.7442 456.175 58.5778C454.842 60.3716 454.176 62.8231 454.176 65.9323C454.176 69.0813 454.842 71.5727 456.175 73.4063C457.548 75.24 459.445 76.1568 461.868 76.1568C464.291 76.1568 466.169 75.24 467.502 73.4063C468.875 71.5727 469.561 69.0813 469.561 65.9323Z" fill="#3B5ADC"/>
<path d="M500.857 56.8438C500.251 56.6445 499.403 56.4452 498.312 56.2459C497.263 56.0067 496.031 55.8872 494.618 55.8872C493.81 55.8872 492.942 55.9669 492.013 56.1263C491.124 56.2858 490.499 56.4253 490.135 56.5449V81.5979H482.806V51.8213C484.219 51.3031 485.976 50.8247 488.076 50.3862C490.216 49.9079 492.578 49.6687 495.163 49.6687C495.647 49.6687 496.213 49.7086 496.859 49.7883C497.505 49.8282 498.151 49.9079 498.797 50.0275C499.443 50.1072 500.069 50.2268 500.675 50.3862C501.281 50.5058 501.765 50.6254 502.129 50.745L500.857 56.8438Z" fill="#3B5ADC"/>
<path d="M511.173 65.8725C511.173 69.0614 511.941 71.5727 513.475 73.4063C515.01 75.2001 517.13 76.097 519.835 76.097C521.006 76.097 521.996 76.0571 522.803 75.9774C523.651 75.8578 524.338 75.7382 524.863 75.6186V57.6809C524.217 57.2424 523.348 56.8438 522.258 56.4851C521.208 56.0865 520.078 55.8872 518.866 55.8872C516.201 55.8872 514.242 56.784 512.991 58.5778C511.779 60.3716 511.173 62.8031 511.173 65.8725ZM532.192 80.6412C530.738 81.0797 528.901 81.4783 526.68 81.8371C524.499 82.1958 522.198 82.3752 519.775 82.3752C517.271 82.3752 515.03 81.9965 513.051 81.2391C511.072 80.4818 509.376 79.4055 507.963 78.0103C506.59 76.5753 505.52 74.8613 504.753 72.8682C504.026 70.8353 503.662 68.5631 503.662 66.0519C503.662 63.5804 503.965 61.3482 504.571 59.3551C505.217 57.3222 506.146 55.5882 507.357 54.1532C508.569 52.7182 510.043 51.622 511.779 50.8646C513.515 50.0674 515.514 49.6687 517.776 49.6687C519.31 49.6687 520.663 49.8481 521.834 50.2069C523.005 50.5656 524.015 50.9642 524.863 51.4027V36.3948L532.192 35.199V80.6412Z" fill="#3B5ADC"/>
<path d="M134.491 67.1639C134.491 104.145 104.547 134.09 67.5654 134.09C30.5841 134.09 0.639648 104.145 0.639648 67.1639C0.639648 30.1826 30.5841 0.238159 67.5654 0.238159C104.547 0.238159 134.491 30.1826 134.491 67.1639Z" fill="#3B5ADC"/>
<path d="M67.5645 15.5068V67.1639H119.314C119.253 38.6695 96.0589 15.5674 67.5645 15.5068Z" fill="#9CB5BE"/>
<path d="M67.4951 15.4973C38.921 15.4973 15.8093 38.6696 15.752 67.164H67.5652V15.5069C67.5652 15.5069 67.5302 15.4973 67.4951 15.4973Z" fill="#E1EBEE"/>
<path d="M67.5653 118.155V67.1638H15.7871C15.854 95.8463 35.6959 118.094 67.5653 118.155Z" fill="#9CB5BE"/>
<path d="M67.5657 41.8469V67.164H41.8726C41.8726 67.4253 41.8662 67.3934 41.8662 67.505C41.8662 81.6805 53.3551 93.1758 67.537 93.1758C81.7125 93.1758 93.1664 81.69 93.1664 67.5082C93.1632 53.3709 81.6838 41.9075 67.5657 41.8469Z" fill="#DAE6E9"/>
<path d="M67.5652 41.8467C67.5652 41.8467 67.5301 41.8372 67.4951 41.8372C53.4311 41.8372 42.0537 53.3101 41.8721 67.1638H67.5652V41.8467Z" fill="white"/>
<path d="M67.5334 80.6828C74.9311 80.6828 80.9281 74.6858 80.9281 67.2881C80.9281 59.8904 74.9311 53.8934 67.5334 53.8934C60.1357 53.8934 54.1387 59.8904 54.1387 67.2881C54.1387 74.6858 60.1357 80.6828 67.5334 80.6828Z" fill="white"/>
<path d="M119.431 65.8827C118.994 57.0358 117.604 55.6909 115.552 54.1452C113.404 52.5263 110.753 54.2855 110.753 54.2855C110.753 54.2855 98.0271 61.0099 95.2385 62.9061C92.8802 64.5092 93.0618 66.4245 93.0618 67.0013C93.0618 67.0491 93.0618 67.1639 93.0618 67.1639H119.466C119.469 66.6412 119.459 66.0453 119.431 65.8827Z" fill="white"/>
<path d="M95.3264 71.103C98.115 73.0024 110.754 79.7301 110.754 79.7301C110.754 79.7301 113.406 81.4892 115.554 79.8703C117.606 78.3246 118.996 76.9702 119.432 68.1232C119.455 67.9894 119.464 67.6834 119.467 67.1608H93.239C93.2135 67.9479 93.1593 69.6306 95.3264 71.103Z" fill="#AFC7CF"/>
</svg>
