<svg width="2053" height="500" viewBox="0 0 2053 500" fill="none" xmlns="http://www.w3.org/2000/svg">
<g clip-path="url(#clip0_1936_709)">
<path fill-rule="evenodd" clip-rule="evenodd" d="M483.375 164.701L483.154 164.53C477.567 160.19 470.894 159.231 464.93 159.628C429.629 75.7749 346.69 16.9039 250 16.9039L250 75.0002C323.306 75.0002 386.084 120.073 412.134 184.017C407.301 186.712 402.279 189.525 397.258 192.356C374.22 133.549 316.973 91.9042 250 91.9042C162.686 91.9042 91.9039 162.686 91.9039 250C91.9039 337.314 162.686 408.096 250 408.096C316.861 408.096 374.028 366.591 397.142 307.94C401.655 310.488 406.183 313.029 410.589 315.491C431.885 327.39 450.32 337.435 450.32 337.435C450.32 337.435 456.766 340.259 464.899 340.444C470.504 340.572 476.91 339.446 482.561 335.279C482.662 335.205 482.762 335.13 482.862 335.054C482.911 335.017 482.959 334.98 483.007 334.943L483.16 334.825L483.165 334.821L483.168 334.819C484.133 334.075 485.091 333.336 486.038 332.584C451.931 430.075 359.131 500 250 500C111.929 500 0 388.071 0 250C0 111.929 111.929 0 250 0C358.805 0 451.375 69.5075 485.73 166.542C484.957 165.929 484.178 165.324 483.394 164.716L483.387 164.71L483.375 164.701ZM250.291 483.096V425L250 425C153.595 425 75.3968 347.046 75.0015 250.734H16.9051C17.3008 379.132 121.509 483.096 250 483.096L250.291 483.096Z" fill="black"/>
<path fill-rule="evenodd" clip-rule="evenodd" d="M335.747 250C335.747 297.357 297.356 335.747 250 335.747C202.643 335.747 164.253 297.357 164.253 250C164.253 202.644 202.643 164.253 250 164.253C297.356 164.253 335.747 202.644 335.747 250ZM318.843 250C318.843 288.021 288.021 318.843 250 318.843L249.999 181.157C288.02 181.157 318.843 211.979 318.843 250Z" fill="black"/>
<path fill-rule="evenodd" clip-rule="evenodd" d="M447.962 175.954C447.962 175.954 372.083 216.075 355.342 227.402C342.739 235.908 342.65 245.591 342.796 250.456C342.65 255.321 342.739 265.004 355.342 273.51C372.083 284.837 447.962 324.958 447.962 324.958C447.962 324.958 463.881 335.449 476.776 325.794C489.097 316.577 497.439 308.499 500.06 255.74C500.181 255.023 500.239 253.478 500.264 250.912H500.271C500.27 250.828 500.27 250.745 500.27 250.662C500.269 250.442 500.269 250.226 500.271 250H500.264C500.239 247.435 500.181 245.89 500.06 245.173C497.439 192.413 489.097 184.336 476.776 175.118C463.881 165.463 447.962 175.954 447.962 175.954ZM373.999 233.856L457.338 188.075C464.88 184.133 468.165 187.546 470.717 190.198C470.819 190.303 470.919 190.407 471.018 190.51C471.119 190.614 471.219 190.716 471.319 190.816C477.038 196.583 481.873 216.859 482.147 233.856H373.999Z" fill="black"/>
<path d="M649.879 248.1C649.879 235.279 648.24 226.054 644.961 220.425C641.839 214.639 635.906 211.747 627.162 211.747C624.04 211.747 620.605 211.981 616.858 212.45C613.111 212.919 610.3 213.31 608.427 213.623V312.599H580.089V193.922C585.554 192.358 592.658 190.873 601.401 189.465C610.3 188.058 619.668 187.354 629.504 187.354C637.935 187.354 644.805 188.449 650.114 190.638C655.578 192.827 660.106 195.72 663.697 199.316C665.414 198.065 667.6 196.736 670.254 195.329C672.909 193.922 675.875 192.671 679.154 191.576C682.433 190.325 685.867 189.309 689.458 188.527C693.206 187.745 696.953 187.354 700.7 187.354C710.224 187.354 718.03 188.762 724.119 191.576C730.365 194.234 735.205 198.065 738.639 203.069C742.23 207.916 744.65 213.857 745.899 220.894C747.305 227.774 748.007 235.357 748.007 243.644V312.599H719.67V248.1C719.67 235.279 718.108 226.054 714.986 220.425C711.863 214.639 705.852 211.747 696.953 211.747C692.425 211.747 688.131 212.528 684.072 214.092C680.013 215.499 676.968 216.907 674.938 218.314C676.187 222.223 677.046 226.366 677.514 230.744C677.983 235.123 678.217 239.813 678.217 244.817V312.599H649.879V248.1Z" fill="black"/>
<path d="M876.167 308.846C870.702 310.254 863.598 311.661 854.855 313.068C846.112 314.632 836.51 315.414 826.049 315.414C816.213 315.414 807.938 314.006 801.224 311.192C794.667 308.377 789.359 304.468 785.299 299.465C781.396 294.461 778.586 288.52 776.868 281.64C775.151 274.604 774.292 266.942 774.292 258.655V189.934H802.63V254.199C802.63 267.333 804.503 276.714 808.25 282.343C812.154 287.972 818.867 290.787 828.391 290.787C831.826 290.787 835.417 290.63 839.164 290.318C843.067 290.005 845.956 289.614 847.829 289.145V189.934H876.167V308.846Z" fill="black"/>
<path d="M947.833 314.945C939.401 314.788 932.376 313.85 926.755 312.13C921.29 310.41 916.919 307.986 913.64 304.859C910.361 301.576 908.019 297.589 906.614 292.898C905.365 288.051 904.741 282.578 904.741 276.48V135.286L933.078 130.596V271.085C933.078 274.525 933.312 277.418 933.781 279.763C934.405 282.109 935.42 284.142 936.825 285.861C938.231 287.425 940.104 288.676 942.446 289.614C944.944 290.396 948.067 291.021 951.814 291.49L947.833 314.945Z" fill="black"/>
<path d="M966.305 157.568L994.642 152.877V189.934H1038.2V213.623H994.642V263.58C994.642 273.431 996.204 280.467 999.326 284.689C1002.45 288.911 1007.76 291.021 1015.25 291.021C1020.4 291.021 1024.93 290.474 1028.83 289.38C1032.89 288.285 1036.09 287.269 1038.44 286.331L1043.12 308.846C1039.84 310.254 1035.55 311.661 1030.24 313.068C1024.93 314.632 1018.69 315.414 1011.5 315.414C1002.76 315.414 995.423 314.241 989.49 311.895C983.713 309.55 979.107 306.188 975.673 301.81C972.238 297.276 969.818 291.881 968.412 285.627C967.007 279.216 966.305 271.945 966.305 263.815V157.568Z" fill="black"/>
<path d="M1087.14 312.599H1058.8V189.934H1087.14V312.599ZM1090.19 154.05C1090.19 159.366 1088.47 163.588 1085.03 166.715C1081.6 169.842 1077.54 171.406 1072.86 171.406C1068.02 171.406 1063.88 169.842 1060.44 166.715C1057.01 163.588 1055.29 159.366 1055.29 154.05C1055.29 148.577 1057.01 144.277 1060.44 141.15C1063.88 138.023 1068.02 136.459 1072.86 136.459C1077.54 136.459 1081.6 138.023 1085.03 141.15C1088.47 144.277 1090.19 148.577 1090.19 154.05Z" fill="black"/>
<path d="M1191.39 244.815C1191.39 232.353 1188.5 222.66 1182.74 215.737C1177.13 208.813 1168.01 205.351 1155.38 205.351C1152.73 205.351 1149.93 205.505 1146.97 205.813C1144.16 205.967 1141.35 206.428 1138.55 207.198V276.202C1141.04 277.894 1144.32 279.509 1148.37 281.048C1152.58 282.433 1157.02 283.125 1161.69 283.125C1171.98 283.125 1179.46 279.663 1184.14 272.74C1188.97 265.816 1191.39 256.508 1191.39 244.815ZM1220.38 244.354C1220.38 253.585 1219.13 262.047 1216.64 269.74C1214.3 277.432 1210.87 284.048 1206.35 289.587C1201.83 295.126 1196.14 299.434 1189.28 302.511C1182.58 305.588 1174.94 307.126 1166.37 307.126C1160.6 307.126 1155.3 306.434 1150.47 305.049C1145.64 303.665 1141.67 302.126 1138.55 300.434V347.282H1110.26V187.812C1116.03 186.273 1123.12 184.812 1131.54 183.427C1139.95 182.042 1148.84 181.35 1158.19 181.35C1167.85 181.35 1176.5 182.812 1184.14 185.735C1191.78 188.658 1198.24 192.889 1203.54 198.428C1209 203.813 1213.13 210.429 1215.94 218.275C1218.9 225.968 1220.38 234.661 1220.38 244.354Z" fill="black"/>
<path d="M1285.54 284.971C1294.27 284.971 1300.89 284.51 1305.41 283.587V252.662C1303.85 252.2 1301.59 251.739 1298.63 251.277C1295.67 250.816 1292.39 250.585 1288.81 250.585C1285.69 250.585 1282.5 250.816 1279.22 251.277C1276.11 251.739 1273.22 252.585 1270.57 253.816C1268.08 255.047 1266.05 256.816 1264.5 259.124C1262.94 261.278 1262.16 264.047 1262.16 267.432C1262.16 274.048 1264.26 278.663 1268.47 281.279C1272.68 283.74 1278.37 284.971 1285.54 284.971ZM1283.2 180.889C1292.55 180.889 1300.42 182.042 1306.81 184.35C1313.2 186.658 1318.27 189.889 1322.01 194.043C1325.91 198.197 1328.63 203.274 1330.19 209.275C1331.91 215.121 1332.76 221.583 1332.76 228.66V301.818C1328.4 302.742 1321.77 303.818 1312.89 305.049C1304.16 306.434 1294.27 307.126 1283.2 307.126C1275.87 307.126 1269.17 306.434 1263.09 305.049C1257.01 303.665 1251.79 301.434 1247.43 298.357C1243.22 295.28 1239.87 291.279 1237.37 286.356C1235.04 281.433 1233.87 275.355 1233.87 268.124C1233.87 261.201 1235.19 255.354 1237.84 250.585C1240.65 245.815 1244.39 241.969 1249.06 239.046C1253.74 235.969 1259.12 233.815 1265.2 232.584C1271.43 231.199 1277.9 230.507 1284.6 230.507C1287.72 230.507 1290.99 230.737 1294.42 231.199C1297.85 231.507 1301.51 232.122 1305.41 233.045V228.43C1305.41 225.199 1305.02 222.122 1304.24 219.198C1303.46 216.275 1302.06 213.737 1300.03 211.583C1298.16 209.275 1295.59 207.505 1292.32 206.275C1289.2 205.044 1285.22 204.428 1280.39 204.428C1273.85 204.428 1267.85 204.89 1262.39 205.813C1256.94 206.736 1252.49 207.813 1249.06 209.044L1245.56 186.427C1249.14 185.196 1254.36 183.966 1261.22 182.735C1268.08 181.504 1275.41 180.889 1283.2 180.889Z" fill="black"/>
<path d="M1391.02 284.51C1398.5 284.51 1403.96 283.663 1407.39 281.971C1410.81 280.125 1412.53 277.048 1412.53 272.74C1412.53 268.74 1410.66 265.432 1406.92 262.816C1403.33 260.201 1397.33 257.354 1388.92 254.277C1383.77 252.431 1379.02 250.508 1374.65 248.508C1370.45 246.354 1366.78 243.892 1363.67 241.123C1360.55 238.353 1358.06 235.045 1356.18 231.199C1354.47 227.199 1353.61 222.352 1353.61 216.66C1353.61 205.582 1357.74 196.889 1366 190.581C1374.26 184.119 1385.49 180.889 1399.67 180.889C1406.84 180.889 1413.7 181.581 1420.24 182.966C1426.79 184.196 1431.7 185.427 1434.97 186.658L1429.83 209.275C1426.71 207.89 1422.74 206.659 1417.91 205.582C1413.07 204.351 1407.46 203.736 1401.07 203.736C1395.31 203.736 1390.63 204.736 1387.05 206.736C1383.46 208.582 1381.67 211.506 1381.67 215.506C1381.67 217.506 1381.98 219.275 1382.6 220.814C1383.38 222.352 1384.63 223.814 1386.34 225.199C1388.06 226.43 1390.32 227.737 1393.12 229.122C1395.93 230.353 1399.36 231.661 1403.41 233.045C1410.11 235.507 1415.8 237.969 1420.48 240.43C1425.15 242.738 1428.97 245.431 1431.93 248.508C1435.05 251.431 1437.31 254.816 1438.71 258.662C1440.12 262.508 1440.82 267.124 1440.82 272.509C1440.82 284.048 1436.45 292.818 1427.73 298.818C1419.15 304.665 1406.84 307.588 1390.79 307.588C1380.03 307.588 1371.38 306.665 1364.84 304.819C1358.29 303.126 1353.69 301.741 1351.04 300.664L1355.95 277.355C1360.16 279.048 1365.15 280.663 1370.91 282.202C1376.84 283.74 1383.54 284.51 1391.02 284.51Z" fill="black"/>
<path d="M1490.86 284.51C1498.34 284.51 1503.79 283.663 1507.22 281.971C1510.65 280.125 1512.37 277.048 1512.37 272.74C1512.37 268.74 1510.5 265.432 1506.76 262.816C1503.17 260.201 1497.17 257.354 1488.75 254.277C1483.61 252.431 1478.86 250.508 1474.49 248.508C1470.28 246.354 1466.62 243.892 1463.5 241.123C1460.39 238.353 1457.89 235.045 1456.02 231.199C1454.31 227.199 1453.45 222.352 1453.45 216.66C1453.45 205.582 1457.58 196.889 1465.84 190.581C1474.1 184.119 1485.32 180.889 1499.51 180.889C1506.68 180.889 1513.54 181.581 1520.08 182.966C1526.63 184.196 1531.54 185.427 1534.81 186.658L1529.67 209.275C1526.55 207.89 1522.58 206.659 1517.74 205.582C1512.91 204.351 1507.3 203.736 1500.91 203.736C1495.14 203.736 1490.47 204.736 1486.88 206.736C1483.3 208.582 1481.51 211.506 1481.51 215.506C1481.51 217.506 1481.82 219.275 1482.44 220.814C1483.22 222.352 1484.47 223.814 1486.18 225.199C1487.9 226.43 1490.16 227.737 1492.96 229.122C1495.77 230.353 1499.2 231.661 1503.25 233.045C1509.95 235.507 1515.64 237.969 1520.32 240.43C1524.99 242.738 1528.81 245.431 1531.77 248.508C1534.89 251.431 1537.15 254.816 1538.55 258.662C1539.95 262.508 1540.66 267.124 1540.66 272.509C1540.66 284.048 1536.29 292.818 1527.56 298.818C1518.99 304.665 1506.68 307.588 1490.62 307.588C1479.87 307.588 1471.22 306.665 1464.67 304.819C1458.13 303.126 1453.53 301.741 1450.88 300.664L1455.79 277.355C1460 279.048 1464.98 280.663 1470.75 282.202C1476.67 283.74 1483.38 284.51 1490.86 284.51Z" fill="black"/>
<path d="M1633.01 228.66C1629.43 242.2 1625.53 255.431 1621.32 268.355C1617.27 281.125 1613.22 293.202 1609.17 304.588H1586.02C1582.9 297.51 1579.63 289.433 1576.2 280.356C1572.77 271.278 1569.34 261.585 1565.91 251.277C1562.48 240.969 1559.06 230.122 1555.63 218.737C1552.2 207.352 1548.85 195.736 1545.57 183.889H1575.5C1576.9 190.351 1578.54 197.351 1580.41 204.89C1582.28 212.275 1584.23 219.891 1586.25 227.737C1588.28 235.43 1590.38 242.969 1592.57 250.354C1594.75 257.739 1596.93 264.509 1599.11 270.663C1601.45 263.585 1603.71 256.277 1605.89 248.738C1608.23 241.2 1610.41 233.661 1612.44 226.122C1614.46 218.583 1616.34 211.275 1618.05 204.198C1619.92 196.966 1621.56 190.197 1622.96 183.889H1644.7C1646.1 190.197 1647.66 196.966 1649.38 204.198C1651.09 211.275 1652.88 218.583 1654.76 226.122C1656.78 233.661 1658.89 241.2 1661.07 248.738C1663.41 256.277 1665.74 263.585 1668.08 270.663C1670.11 264.509 1672.21 257.739 1674.39 250.354C1676.58 242.969 1678.68 235.43 1680.71 227.737C1682.89 219.891 1684.91 212.275 1686.79 204.89C1688.66 197.351 1690.29 190.351 1691.69 183.889H1720.92C1717.65 195.736 1714.3 207.352 1710.87 218.737C1707.44 230.122 1704.01 240.969 1700.58 251.277C1697.15 261.585 1693.72 271.278 1690.29 280.356C1686.86 289.433 1683.51 297.51 1680.24 304.588H1657.33C1653.27 293.202 1649.07 281.125 1644.7 268.355C1640.49 255.431 1636.6 242.2 1633.01 228.66Z" fill="black"/>
<path d="M1843.78 244.123C1843.78 253.662 1842.38 262.355 1839.57 270.201C1836.77 278.048 1832.79 284.74 1827.65 290.279C1822.5 295.818 1816.27 300.126 1808.94 303.203C1801.78 306.28 1793.83 307.819 1785.1 307.819C1776.37 307.819 1768.42 306.28 1761.25 303.203C1754.08 300.126 1747.92 295.818 1742.78 290.279C1737.64 284.74 1733.58 278.048 1730.62 270.201C1727.82 262.355 1726.42 253.662 1726.42 244.123C1726.42 234.584 1727.82 225.968 1730.62 218.275C1733.58 210.429 1737.64 203.736 1742.78 198.197C1748.08 192.658 1754.31 188.427 1761.48 185.504C1768.65 182.427 1776.53 180.889 1785.1 180.889C1793.67 180.889 1801.54 182.427 1808.71 185.504C1816.04 188.427 1822.27 192.658 1827.41 198.197C1832.56 203.736 1836.53 210.429 1839.34 218.275C1842.3 225.968 1843.78 234.584 1843.78 244.123ZM1814.79 244.123C1814.79 232.122 1812.14 222.66 1806.84 215.737C1801.7 208.659 1794.45 205.121 1785.1 205.121C1775.75 205.121 1768.42 208.659 1763.12 215.737C1757.98 222.66 1755.41 232.122 1755.41 244.123C1755.41 256.277 1757.98 265.893 1763.12 272.971C1768.42 280.048 1775.75 283.587 1785.1 283.587C1794.45 283.587 1801.7 280.048 1806.84 272.971C1812.14 265.893 1814.79 256.277 1814.79 244.123Z" fill="black"/>
<path d="M1935.58 209.044C1933.24 208.275 1929.97 207.505 1925.76 206.736C1921.71 205.813 1916.96 205.351 1911.5 205.351C1908.38 205.351 1905.03 205.659 1901.45 206.275C1898.02 206.89 1895.6 207.428 1894.2 207.89V304.588H1865.91V189.658C1871.37 187.658 1878.15 185.812 1886.25 184.119C1894.51 182.273 1903.63 181.35 1913.6 181.35C1915.47 181.35 1917.66 181.504 1920.15 181.812C1922.64 181.966 1925.14 182.273 1927.63 182.735C1930.13 183.043 1932.54 183.504 1934.88 184.119C1937.22 184.581 1939.09 185.043 1940.49 185.504L1935.58 209.044Z" fill="black"/>
<path d="M1975.4 243.892C1975.4 256.2 1978.36 265.893 1984.29 272.971C1990.21 279.894 1998.39 283.356 2008.83 283.356C2013.35 283.356 2017.17 283.202 2020.29 282.894C2023.56 282.433 2026.21 281.971 2028.24 281.51V212.275C2025.74 210.583 2022.39 209.044 2018.19 207.659C2014.13 206.121 2009.77 205.351 2005.09 205.351C1994.81 205.351 1987.25 208.813 1982.41 215.737C1977.74 222.66 1975.4 232.045 1975.4 243.892ZM2056.53 300.895C2050.92 302.588 2043.83 304.126 2035.25 305.511C2026.84 306.896 2017.95 307.588 2008.6 307.588C1998.94 307.588 1990.29 306.126 1982.65 303.203C1975.01 300.28 1968.47 296.126 1963.01 290.741C1957.71 285.202 1953.58 278.586 1950.62 270.894C1947.81 263.047 1946.41 254.277 1946.41 244.584C1946.41 235.045 1947.58 226.43 1949.92 218.737C1952.41 210.89 1956 204.198 1960.67 198.659C1965.35 193.12 1971.04 188.889 1977.74 185.966C1984.44 182.889 1992.16 181.35 2000.88 181.35C2006.81 181.35 2012.03 182.042 2016.55 183.427C2021.07 184.812 2024.97 186.35 2028.24 188.043V130.116L2056.53 125.501V300.895Z" fill="black"/>
</g>
<defs>
<clipPath id="clip0_1936_709">
<rect width="2052.89" height="500" fill="white"/>
</clipPath>
</defs>
</svg>
