<svg width="768" height="131" viewBox="0 0 768 131" fill="none" xmlns="http://www.w3.org/2000/svg">
<mask id="mask0_2128:1291" style="mask-type:alpha" maskUnits="userSpaceOnUse" x="0" y="0" width="769" height="131">
<rect y="0.186035" width="768.26" height="130" fill="white"/>
</mask>
<g mask="url(#mask0_2128:1291)">
<path d="M187.308 147.394L127.198 112.286L51.2945 156.109L111.405 191.217L187.308 147.394Z" fill="#304DC4" fill-opacity="0.75"/>
<path d="M187.308 147.394L127.198 112.286L51.2945 156.109L111.405 191.217L187.308 147.394Z" fill="url(#paint0_linear_2128:1291)" fill-opacity="0.15"/>
<path d="M299.165 73.2344L239.055 38.1263L163.152 81.9491L223.262 117.057L299.165 73.2344Z" fill="#304DC4" fill-opacity="0.75"/>
<path d="M299.165 73.2344L239.055 38.1263L163.152 81.9491L223.262 117.057L299.165 73.2344Z" fill="url(#paint1_linear_2128:1291)" fill-opacity="0.15"/>
<path d="M359.111 139.36L299.001 104.252L223.097 148.075L283.208 183.183L359.111 139.36Z" fill="#304DC4" fill-opacity="0.75"/>
<path d="M359.111 139.36L299.001 104.252L223.097 148.075L283.208 183.183L359.111 139.36Z" fill="url(#paint2_linear_2128:1291)" fill-opacity="0.15"/>
<path d="M374.561 -0.925049L314.45 -36.0331L238.547 7.78971L298.657 42.8978L374.561 -0.925049Z" fill="#304DC4" fill-opacity="0.75"/>
<path d="M374.561 -0.925049L314.45 -36.0331L238.547 7.78971L298.657 42.8978L374.561 -0.925049Z" fill="url(#paint3_linear_2128:1291)" fill-opacity="0.15"/>
<path d="M453.046 52.8403L392.936 17.7323L317.032 61.5551L377.143 96.6631L453.046 52.8403Z" fill="#304DC4" fill-opacity="0.75"/>
<path d="M453.046 52.8403L392.936 17.7323L317.032 61.5551L377.143 96.6631L453.046 52.8403Z" fill="url(#paint4_linear_2128:1291)" fill-opacity="0.15"/>
<path d="M512.683 118.657L452.572 83.5487L376.669 127.371L436.779 162.48L512.683 118.657Z" fill="#304DC4" fill-opacity="0.75"/>
<path d="M512.683 118.657L452.572 83.5487L376.669 127.371L436.779 162.48L512.683 118.657Z" fill="url(#paint5_linear_2128:1291)" fill-opacity="0.15"/>
<path d="M609.708 178.603L549.598 143.494L473.694 187.317L533.805 222.425L609.708 178.603Z" fill="#304DC4" fill-opacity="0.75"/>
<path d="M609.708 178.603L549.598 143.494L473.694 187.317L533.805 222.425L609.708 178.603Z" fill="url(#paint6_linear_2128:1291)" fill-opacity="0.15"/>
<path d="M583.124 46.2144C583.567 45.8746 584.206 45.6351 584.931 45.5377C585.656 45.4402 586.42 45.4911 587.089 45.6814C615.076 52.047 643.049 58.3588 671.007 64.6169C671.663 64.7444 672.258 64.9572 672.745 65.2384C673.232 65.5196 673.597 65.8612 673.811 66.2359C684.459 82.3234 695.181 98.3691 705.978 114.373C706.323 114.715 706.438 115.116 706.305 115.501C706.171 115.886 705.796 116.23 705.249 116.468C691.946 123.919 678.627 131.378 665.249 138.785C660.863 141.212 656.158 143.446 651.176 145.468C635.293 151.896 616.872 156.022 597.498 157.49C572.658 159.419 548.962 157.367 526.727 150.413C524.292 149.68 522.311 148.536 521.059 147.14C510.017 135.382 505.827 121.957 509.098 108.816C512.328 93.2901 524.784 78.8969 544.408 68.0144C550.163 64.7915 555.903 61.5769 561.658 58.354C568.848 54.3275 576.038 50.3009 583.124 46.2144ZM643.318 133.247L645.321 134.403C645.934 134.06 646.546 133.818 647.055 133.534C659.013 126.837 670.936 120.159 682.825 113.501C683.31 113.323 683.665 113.051 683.825 112.735C683.986 112.419 683.941 112.08 683.7 111.779C675.342 99.4051 667.038 87.0114 658.789 74.5982C658.583 74.292 658.287 74.0021 657.962 73.5934C657.379 73.9199 656.96 74.1543 656.542 74.3887C637.428 85.0927 618.32 95.7939 599.216 106.492C598.798 106.727 598.379 106.961 598.05 107.264C597.634 107.024 597.338 106.717 596.908 106.469L552.085 80.5904C551.729 80.3848 551.358 80.1706 551.002 79.9651C529.82 94.2238 518.047 120.443 537.481 141.184L598.184 107.189L643.318 133.247Z" fill="#2F58C0"/>
<path d="M502.207 70.9214L524.696 51.8628L567.388 76.6389L511.355 108.657L500.301 85.4059L502.207 70.9214Z" fill="#00B3D0"/>
<path d="M634.188 47.3838L655.724 79.1163L621.419 98.4608L599.978 86.6445L582.444 76.4481L634.188 47.3838Z" fill="#00B3D0"/>
<path d="M558.899 21.1907C559.341 20.851 559.981 20.6114 560.706 20.514C561.431 20.4166 562.195 20.4674 562.864 20.6577C590.851 27.0233 618.824 33.3351 646.782 39.5933C647.437 39.7207 648.033 39.9335 648.52 40.2147C649.007 40.4959 649.372 40.8375 649.586 41.2123C658.658 54.9186 672.983 64.5267 682.163 78.1723C682.163 79.2563 682.163 79.7804 682.163 80.2211C682.163 81.6287 682.213 90.0924 682.079 90.4776C681.945 90.8627 681.571 91.2062 681.024 91.4447C667.721 98.8951 654.402 106.354 641.024 113.761C636.637 116.188 631.933 118.422 626.951 120.445C611.068 126.873 592.647 130.998 573.272 132.467C548.433 134.396 524.736 132.344 502.502 125.389C500.066 124.656 498.086 123.513 496.834 122.117C485.792 110.359 481.602 96.9336 484.873 83.7922C488.103 68.2664 500.559 53.8733 520.183 42.9907C525.938 39.7678 531.678 36.5533 537.433 33.3303C544.623 29.3038 551.813 25.2772 558.899 21.1907ZM619.093 108.223L621.096 109.38C621.709 109.036 622.321 108.795 622.829 108.51C634.788 101.813 646.711 95.1357 658.6 88.4778C659.085 88.2994 659.439 88.0275 659.6 87.7115C659.761 87.3956 659.716 87.0565 659.475 86.7558C651.116 74.3815 642.813 61.9877 634.564 49.5745C634.357 49.2683 634.061 48.9784 633.736 48.5698C633.153 48.8962 632.735 49.1306 632.316 49.365C613.203 60.069 594.094 70.7702 574.991 81.4687C574.573 81.703 574.154 81.9374 573.824 82.2402C573.409 82.0003 573.113 81.6935 572.683 81.4451L527.86 55.5667C527.504 55.3611 527.133 55.147 526.777 54.9414C505.595 69.2001 493.822 95.4195 513.256 116.16L573.959 82.1648L619.093 108.223Z" fill="#099FB8"/>
<path d="M498.014 75.9004H567.388L508.687 110.587L498.014 75.9004Z" fill="#099FB8"/>
<path d="M582.444 75.9004H665.223L595.179 110.587L582.444 75.9004Z" fill="#099FB8"/>
<path d="M558.951 9.31156C559.394 8.97182 560.033 8.73228 560.758 8.63484C561.483 8.5374 562.247 8.58827 562.916 8.77855C590.904 15.1441 618.876 21.456 646.834 27.7141C647.49 27.8416 648.085 28.0544 648.572 28.3356C649.059 28.6167 649.424 28.9584 649.638 29.3331C660.286 45.4206 671.008 61.4662 681.805 77.47C682.15 77.8125 682.266 78.2133 682.132 78.5984C681.998 78.9836 681.623 79.3271 681.077 79.5656C667.773 87.016 654.454 94.4747 641.077 101.882C636.69 104.309 631.986 106.543 627.004 108.565C611.12 114.993 592.699 119.119 573.325 120.587C548.485 122.517 524.789 120.464 502.554 113.51C500.119 112.777 498.138 111.633 496.887 110.238C485.844 98.4794 481.654 85.0545 484.925 71.913C488.155 56.3873 500.611 41.9941 520.236 31.1116C525.99 27.8887 531.73 24.6741 537.485 21.4512C544.675 17.4246 551.865 13.3981 558.951 9.31156ZM619.146 96.3439L621.149 97.5004C621.761 97.1572 622.374 96.9156 622.882 96.6309C634.84 89.934 646.764 83.2565 658.652 76.5986C659.137 76.4202 659.492 76.1483 659.652 75.8324C659.813 75.5164 659.769 75.1774 659.527 74.8767C651.169 62.5023 642.865 50.1085 634.616 37.6954C634.41 37.3891 634.114 37.0993 633.789 36.6906C633.206 37.0171 632.787 37.2515 632.369 37.4859C613.255 48.1899 594.147 58.8911 575.043 69.5895C574.625 69.8239 574.206 70.0583 573.877 70.361C573.461 70.1212 573.165 69.8143 572.735 69.5659L527.913 43.6875C527.556 43.482 527.186 43.2678 526.829 43.0622C505.647 57.321 493.874 83.5403 513.308 104.281L574.011 70.2857L619.146 96.3439Z" fill="#22D8F6"/>
<mask id="mask1_2128:1291" style="mask-type:alpha" maskUnits="userSpaceOnUse" x="483" y="8" width="200" height="114">
<path d="M558.951 9.31156C559.394 8.97182 560.033 8.73228 560.758 8.63484C561.483 8.5374 562.247 8.58827 562.916 8.77855C590.904 15.1441 618.876 21.456 646.834 27.7141C647.49 27.8416 648.085 28.0544 648.572 28.3356C649.059 28.6167 649.424 28.9584 649.638 29.3331C660.286 45.4206 671.008 61.4662 681.805 77.47C682.15 77.8125 682.266 78.2133 682.132 78.5984C681.998 78.9836 681.623 79.3271 681.077 79.5656C667.773 87.016 654.454 94.4747 641.077 101.882C636.69 104.309 631.986 106.543 627.004 108.565C611.12 114.993 592.699 119.119 573.325 120.587C548.485 122.517 524.789 120.464 502.554 113.51C500.119 112.777 498.138 111.633 496.887 110.238C485.844 98.4794 481.654 85.0545 484.925 71.913C488.155 56.3873 500.611 41.9941 520.236 31.1116C525.99 27.8887 531.73 24.6741 537.485 21.4512C544.675 17.4246 551.865 13.3981 558.951 9.31156ZM619.146 96.3439L621.149 97.5004C621.761 97.1572 622.374 96.9156 622.882 96.6309C634.84 89.934 646.764 83.2565 658.652 76.5986C659.137 76.4202 659.492 76.1483 659.652 75.8324C659.813 75.5164 659.769 75.1774 659.527 74.8767C651.169 62.5023 642.865 50.1085 634.616 37.6954C634.41 37.3891 634.114 37.0993 633.789 36.6906C633.206 37.0171 632.787 37.2515 632.369 37.4859C613.255 48.1899 594.147 58.8911 575.043 69.5895C574.625 69.8239 574.206 70.0583 573.877 70.361C573.461 70.1212 573.165 69.8143 572.735 69.5659L527.913 43.6875C527.556 43.482 527.186 43.2678 526.829 43.0622C505.647 57.321 493.874 83.5403 513.308 104.281L574.011 70.2857L619.146 96.3439Z" fill="#22D8F6"/>
</mask>
<g mask="url(#mask1_2128:1291)">
<path opacity="0.75" d="M573.677 139.723V6.31274L660.012 23.6561L687.075 73.9707L678.309 104.464L573.677 139.723Z" fill="#35C4DC"/>
<path d="M573.868 70.3495L510.402 33.5664L483.911 56.8179L476.669 95.6974L493.059 137.245L498.967 112.374L573.868 70.3495Z" fill="#00CFF1"/>
<path d="M573.105 70.159L681.739 76.6389L652.389 26.3242L573.105 70.159Z" fill="#3CDAF0"/>
</g>
</g>
<defs>
<linearGradient id="paint0_linear_2128:1291" x1="172.193" y1="121.214" x2="66.4094" y2="182.289" gradientUnits="userSpaceOnUse">
<stop stop-color="#31B5CB"/>
<stop offset="1" stop-color="#3451CC"/>
</linearGradient>
<linearGradient id="paint1_linear_2128:1291" x1="284.05" y1="47.0546" x2="178.267" y2="108.129" gradientUnits="userSpaceOnUse">
<stop stop-color="#31B5CB"/>
<stop offset="1" stop-color="#3451CC"/>
</linearGradient>
<linearGradient id="paint2_linear_2128:1291" x1="343.996" y1="113.18" x2="238.212" y2="174.254" gradientUnits="userSpaceOnUse">
<stop stop-color="#31B5CB"/>
<stop offset="1" stop-color="#3451CC"/>
</linearGradient>
<linearGradient id="paint3_linear_2128:1291" x1="359.446" y1="-27.1048" x2="253.662" y2="33.9695" gradientUnits="userSpaceOnUse">
<stop stop-color="#31B5CB"/>
<stop offset="1" stop-color="#3451CC"/>
</linearGradient>
<linearGradient id="paint4_linear_2128:1291" x1="437.931" y1="26.6606" x2="332.147" y2="87.7349" gradientUnits="userSpaceOnUse">
<stop stop-color="#31B5CB"/>
<stop offset="1" stop-color="#3451CC"/>
</linearGradient>
<linearGradient id="paint5_linear_2128:1291" x1="497.568" y1="92.477" x2="391.784" y2="153.551" gradientUnits="userSpaceOnUse">
<stop stop-color="#31B5CB"/>
<stop offset="1" stop-color="#3451CC"/>
</linearGradient>
<linearGradient id="paint6_linear_2128:1291" x1="594.593" y1="152.423" x2="488.809" y2="213.497" gradientUnits="userSpaceOnUse">
<stop stop-color="#31B5CB"/>
<stop offset="1" stop-color="#3451CC"/>
</linearGradient>
</defs>
</svg>
