<svg width="607" height="300" viewBox="0 0 607 300" fill="none" xmlns="http://www.w3.org/2000/svg">
<mask id="mask0_2123:2105" style="mask-type:alpha" maskUnits="userSpaceOnUse" x="0" y="0" width="607" height="300">
<rect width="607" height="300" fill="white"/>
</mask>
<g mask="url(#mask0_2123:2105)">
<path d="M98.9124 364.461L21.6527 319.337L-75.9059 375.662L1.35387 420.787L98.9124 364.461Z" fill="#304DC4" fill-opacity="0.75"/>
<path d="M98.9124 364.461L21.6527 319.337L-75.9059 375.662L1.35387 420.787L98.9124 364.461Z" fill="url(#paint0_linear_2123:2105)" fill-opacity="0.15"/>
<path d="M242.682 269.144L165.423 224.02L67.8641 280.345L145.124 325.469L242.682 269.144Z" fill="#304DC4" fill-opacity="0.75"/>
<path d="M242.682 269.144L165.423 224.02L67.8641 280.345L145.124 325.469L242.682 269.144Z" fill="url(#paint1_linear_2123:2105)" fill-opacity="0.15"/>
<path d="M319.73 354.135L242.471 309.011L144.912 365.336L222.172 410.461L319.73 354.135Z" fill="#304DC4" fill-opacity="0.75"/>
<path d="M319.73 354.135L242.471 309.011L144.912 365.336L222.172 410.461L319.73 354.135Z" fill="url(#paint2_linear_2123:2105)" fill-opacity="0.15"/>
<path d="M339.588 173.827L262.328 128.703L164.77 185.028L242.03 230.152L339.588 173.827Z" fill="#304DC4" fill-opacity="0.75"/>
<path d="M339.588 173.827L262.328 128.703L164.77 185.028L242.03 230.152L339.588 173.827Z" fill="url(#paint3_linear_2123:2105)" fill-opacity="0.15"/>
<path d="M440.465 242.932L363.206 197.808L265.647 254.133L342.907 299.257L440.465 242.932Z" fill="#304DC4" fill-opacity="0.75"/>
<path d="M440.465 242.932L363.206 197.808L265.647 254.133L342.907 299.257L440.465 242.932Z" fill="url(#paint4_linear_2123:2105)" fill-opacity="0.15"/>
<path d="M517.116 327.526L439.856 282.401L342.298 338.727L419.558 383.851L517.116 327.526Z" fill="#304DC4" fill-opacity="0.75"/>
<path d="M517.116 327.526L439.856 282.401L342.298 338.727L419.558 383.851L517.116 327.526Z" fill="url(#paint5_linear_2123:2105)" fill-opacity="0.15"/>
<path d="M491.308 161.559C491.888 161.113 492.727 160.799 493.678 160.671C494.628 160.544 495.631 160.61 496.509 160.86C533.221 169.21 569.914 177.49 606.588 185.699C607.448 185.866 608.228 186.145 608.867 186.514C609.506 186.883 609.985 187.331 610.266 187.822C624.233 208.925 638.298 229.973 652.461 250.966C652.912 251.415 653.065 251.941 652.889 252.446C652.713 252.951 652.222 253.402 651.505 253.715C634.054 263.488 616.583 273.272 599.035 282.988C593.281 286.172 587.11 289.102 580.575 291.755C559.74 300.187 535.577 305.598 510.162 307.525C477.579 310.055 446.495 307.363 417.329 298.241C414.134 297.279 411.536 295.779 409.894 293.948C395.409 278.525 389.913 260.915 394.204 243.676C398.441 223.311 414.781 204.43 440.522 190.155C448.071 185.928 455.601 181.711 463.15 177.483C472.581 172.201 482.013 166.92 491.308 161.559ZM570.267 275.723L572.895 277.24C573.698 276.79 574.501 276.473 575.168 276.1C590.854 267.315 606.495 258.556 622.09 249.823C622.726 249.589 623.191 249.232 623.402 248.818C623.612 248.403 623.554 247.958 623.238 247.564C612.273 231.332 601.381 215.074 590.561 198.791C590.29 198.39 589.901 198.01 589.475 197.473C588.71 197.902 588.161 198.209 587.612 198.517C562.541 212.558 537.475 226.595 512.416 240.628C511.867 240.936 511.318 241.243 510.886 241.64C510.341 241.326 509.953 240.923 509.389 240.598L450.593 206.652C450.126 206.382 449.639 206.101 449.172 205.831C421.387 224.535 405.943 258.928 431.435 286.135L511.062 241.542L570.267 275.723Z" fill="#2F58C0"/>
<path d="M385.165 183.969L414.665 158.969L470.665 191.469L397.165 233.469L382.665 202.969L385.165 183.969Z" fill="#00B3D0"/>
<path d="M558.29 153.094L586.54 194.719L541.54 220.094L513.415 204.594L490.415 191.219L558.29 153.094Z" fill="#00B3D0"/>
<path d="M459.53 118.735C460.11 118.289 460.949 117.975 461.9 117.847C462.851 117.72 463.853 117.786 464.731 118.036C501.443 126.386 538.136 134.665 574.81 142.874C575.67 143.042 576.451 143.321 577.09 143.69C577.729 144.059 578.208 144.507 578.488 144.998C590.388 162.977 609.179 175.581 621.221 193.48C621.221 194.902 621.221 195.59 621.221 196.168C621.221 198.014 621.287 209.117 621.111 209.622C620.936 210.127 620.444 210.578 619.727 210.89C602.276 220.663 584.806 230.447 567.258 240.164C561.503 243.347 555.332 246.278 548.797 248.931C527.963 257.363 503.799 262.774 478.384 264.701C445.801 267.231 414.718 264.539 385.552 255.417C382.357 254.455 379.759 252.955 378.117 251.124C363.632 235.701 358.136 218.09 362.427 200.852C366.664 180.486 383.003 161.606 408.745 147.331C416.294 143.103 423.823 138.887 431.372 134.659C440.804 129.377 450.235 124.096 459.53 118.735ZM538.49 232.899L541.117 234.416C541.921 233.966 542.724 233.649 543.391 233.276C559.077 224.491 574.717 215.732 590.312 206.999C590.948 206.764 591.414 206.408 591.624 205.993C591.835 205.579 591.777 205.134 591.46 204.74C580.496 188.508 569.604 172.25 558.783 155.967C558.512 155.566 558.124 155.185 557.698 154.649C556.933 155.078 556.384 155.385 555.835 155.693C530.763 169.733 505.698 183.771 480.639 197.804C480.09 198.112 479.541 198.419 479.109 198.816C478.564 198.502 478.175 198.099 477.611 197.773L418.815 163.828C418.348 163.558 417.862 163.277 417.394 163.007C389.609 181.711 374.165 216.104 399.658 243.311L479.285 198.718L538.49 232.899Z" fill="#099FB8"/>
<path d="M379.665 190.5H470.665L393.665 236L379.665 190.5Z" fill="#099FB8"/>
<path d="M490.415 190.5H599L507.121 236L490.415 190.5Z" fill="#099FB8"/>
<path d="M459.599 103.153C460.179 102.707 461.018 102.393 461.969 102.265C462.92 102.137 463.922 102.204 464.8 102.453C501.512 110.803 538.205 119.083 574.879 127.292C575.739 127.459 576.52 127.738 577.158 128.107C577.797 128.476 578.276 128.924 578.557 129.416C592.524 150.518 606.589 171.566 620.752 192.559C621.204 193.008 621.356 193.534 621.18 194.039C621.004 194.545 620.513 194.995 619.796 195.308C602.345 205.081 584.875 214.865 567.326 224.582C561.572 227.765 555.401 230.695 548.866 233.348C528.031 241.78 503.868 247.192 478.453 249.118C445.87 251.649 414.786 248.957 385.62 239.834C382.426 238.873 379.827 237.373 378.186 235.542C363.701 220.118 358.204 202.508 362.495 185.27C366.732 164.904 383.072 146.024 408.814 131.749C416.363 127.521 423.892 123.304 431.441 119.077C440.872 113.795 450.304 108.513 459.599 103.153ZM538.558 217.317L541.186 218.834C541.99 218.384 542.793 218.067 543.459 217.693C559.146 208.909 574.786 200.15 590.381 191.416C591.017 191.182 591.482 190.825 591.693 190.411C591.904 189.997 591.845 189.552 591.529 189.157C580.565 172.925 569.672 156.668 558.852 140.385C558.581 139.983 558.193 139.603 557.766 139.067C557.002 139.495 556.453 139.803 555.904 140.11C530.832 154.151 505.766 168.188 480.708 182.222C480.159 182.529 479.61 182.837 479.177 183.234C478.632 182.919 478.244 182.517 477.68 182.191L418.884 148.245C418.417 147.975 417.93 147.695 417.463 147.425C389.678 166.129 374.234 200.522 399.726 227.729L479.354 183.135L538.558 217.317Z" fill="#22D8F6"/>
<mask id="mask1_2123:2105" style="mask-type:alpha" maskUnits="userSpaceOnUse" x="361" y="102" width="261" height="149">
<path d="M459.599 103.153C460.179 102.707 461.018 102.393 461.969 102.265C462.92 102.137 463.922 102.204 464.8 102.453C501.512 110.803 538.205 119.083 574.879 127.292C575.739 127.459 576.52 127.738 577.158 128.107C577.797 128.476 578.276 128.924 578.557 129.416C592.524 150.518 606.589 171.566 620.752 192.559C621.204 193.008 621.356 193.534 621.18 194.039C621.004 194.545 620.513 194.995 619.796 195.308C602.345 205.081 584.875 214.865 567.326 224.582C561.572 227.765 555.401 230.695 548.866 233.348C528.032 241.78 503.868 247.192 478.453 249.118C445.87 251.649 414.786 248.957 385.62 239.834C382.426 238.873 379.827 237.373 378.186 235.542C363.701 220.118 358.204 202.508 362.495 185.27C366.733 164.904 383.072 146.024 408.814 131.749C416.363 127.521 423.892 123.304 431.441 119.077C440.872 113.795 450.304 108.513 459.599 103.153ZM538.558 217.317L541.186 218.834C541.99 218.384 542.793 218.067 543.459 217.693C559.146 208.909 574.786 200.15 590.381 191.416C591.017 191.182 591.482 190.825 591.693 190.411C591.904 189.997 591.845 189.552 591.529 189.157C580.565 172.925 569.672 156.668 558.852 140.385C558.581 139.983 558.193 139.603 557.766 139.067C557.002 139.495 556.453 139.803 555.904 140.11C530.832 154.151 505.766 168.188 480.708 182.222C480.159 182.529 479.61 182.837 479.177 183.234C478.632 182.919 478.244 182.517 477.68 182.191L418.884 148.245C418.417 147.975 417.93 147.695 417.463 147.425C389.678 166.129 374.234 200.522 399.726 227.729L479.354 183.135L538.558 217.317Z" fill="#22D8F6"/>
</mask>
<g mask="url(#mask1_2123:2105)">
<path opacity="0.75" d="M478.915 274.219V99.2186L592.165 121.969L627.665 187.969L616.165 227.969L478.915 274.219Z" fill="#35C4DC"/>
<path d="M479.165 183.219L395.915 134.969L361.165 165.469L351.665 216.469L373.165 270.969L380.915 238.344L479.165 183.219Z" fill="#00CFF1"/>
<path d="M478.165 182.969L620.665 191.469L582.165 125.469L478.165 182.969Z" fill="#3CDAF0"/>
</g>
</g>
<defs>
<linearGradient id="paint0_linear_2123:2105" x1="79.4852" y1="330.812" x2="-56.4787" y2="409.311" gradientUnits="userSpaceOnUse">
<stop stop-color="#31B5CB"/>
<stop offset="1" stop-color="#3451CC"/>
</linearGradient>
<linearGradient id="paint1_linear_2123:2105" x1="223.255" y1="235.495" x2="87.2913" y2="313.994" gradientUnits="userSpaceOnUse">
<stop stop-color="#31B5CB"/>
<stop offset="1" stop-color="#3451CC"/>
</linearGradient>
<linearGradient id="paint2_linear_2123:2105" x1="300.303" y1="320.486" x2="164.339" y2="398.985" gradientUnits="userSpaceOnUse">
<stop stop-color="#31B5CB"/>
<stop offset="1" stop-color="#3451CC"/>
</linearGradient>
<linearGradient id="paint3_linear_2123:2105" x1="320.161" y1="140.178" x2="184.197" y2="218.677" gradientUnits="userSpaceOnUse">
<stop stop-color="#31B5CB"/>
<stop offset="1" stop-color="#3451CC"/>
</linearGradient>
<linearGradient id="paint4_linear_2123:2105" x1="421.038" y1="209.283" x2="285.074" y2="287.782" gradientUnits="userSpaceOnUse">
<stop stop-color="#31B5CB"/>
<stop offset="1" stop-color="#3451CC"/>
</linearGradient>
<linearGradient id="paint5_linear_2123:2105" x1="497.689" y1="293.877" x2="361.725" y2="372.376" gradientUnits="userSpaceOnUse">
<stop stop-color="#31B5CB"/>
<stop offset="1" stop-color="#3451CC"/>
</linearGradient>
</defs>
</svg>
