<svg width="481" height="252" viewBox="0 0 481 252" fill="none" xmlns="http://www.w3.org/2000/svg">
<mask id="mask0_2126:3319" style="mask-type:alpha" maskUnits="userSpaceOnUse" x="0" y="0" width="481" height="252">
<rect y="0.538574" width="481" height="251" fill="white"/>
</mask>
<g mask="url(#mask0_2126:3319)">
<path d="M116.682 199.683L39.4226 154.558L-58.1359 210.884L19.1238 256.008L116.682 199.683Z" fill="#304DC4" fill-opacity="0.75"/>
<path d="M116.682 199.683L39.4226 154.558L-58.1359 210.884L19.1238 256.008L116.682 199.683Z" fill="url(#paint0_linear_2126:3319)" fill-opacity="0.15"/>
<path d="M193.73 284.674L116.471 239.549L18.9121 295.875L96.1719 340.999L193.73 284.674Z" fill="#304DC4" fill-opacity="0.75"/>
<path d="M193.73 284.674L116.471 239.549L18.9121 295.875L96.1719 340.999L193.73 284.674Z" fill="url(#paint1_linear_2126:3319)" fill-opacity="0.15"/>
<path d="M213.588 104.366L136.328 59.2412L38.7698 115.567L116.03 160.691L213.588 104.366Z" fill="#304DC4" fill-opacity="0.75"/>
<path d="M213.588 104.366L136.328 59.2412L38.7698 115.567L116.03 160.691L213.588 104.366Z" fill="url(#paint2_linear_2126:3319)" fill-opacity="0.15"/>
<path d="M314.465 173.47L237.206 128.346L139.647 184.672L216.907 229.796L314.465 173.47Z" fill="#304DC4" fill-opacity="0.75"/>
<path d="M314.465 173.47L237.206 128.346L139.647 184.672L216.907 229.796L314.465 173.47Z" fill="url(#paint3_linear_2126:3319)" fill-opacity="0.15"/>
<path d="M391.116 258.064L313.856 212.94L216.298 269.265L293.558 314.39L391.116 258.064Z" fill="#304DC4" fill-opacity="0.75"/>
<path d="M391.116 258.064L313.856 212.94L216.298 269.265L293.558 314.39L391.116 258.064Z" fill="url(#paint4_linear_2126:3319)" fill-opacity="0.15"/>
<path d="M365.308 96.0976C365.888 95.652 366.727 95.3378 367.678 95.21C368.628 95.0821 369.631 95.1489 370.509 95.3985C407.221 103.749 443.914 112.028 480.588 120.237C481.448 120.404 482.228 120.683 482.867 121.052C483.506 121.421 483.985 121.869 484.266 122.361C498.233 143.464 512.298 164.511 526.461 185.504C526.912 185.953 527.065 186.479 526.889 186.984C526.713 187.49 526.222 187.94 525.505 188.253C508.054 198.026 490.583 207.81 473.035 217.527C467.281 220.71 461.11 223.64 454.575 226.293C433.74 234.725 409.577 240.137 384.162 242.063C351.579 244.594 320.495 241.902 291.329 232.779C288.134 231.818 285.536 230.318 283.894 228.487C269.409 213.063 263.913 195.453 268.204 178.215C272.441 157.849 288.781 138.969 314.522 124.694C322.071 120.466 329.601 116.249 337.15 112.022C346.581 106.74 356.013 101.458 365.308 96.0976ZM444.267 210.262L446.894 211.779C447.698 211.329 448.501 211.012 449.168 210.638C464.854 201.854 480.495 193.095 496.09 184.361C496.726 184.127 497.191 183.77 497.402 183.356C497.612 182.942 497.554 182.497 497.238 182.102C486.273 165.87 475.381 149.613 464.561 133.33C464.29 132.928 463.901 132.548 463.475 132.012C462.71 132.44 462.161 132.748 461.612 133.055C436.541 147.096 411.475 161.133 386.416 175.167C385.867 175.474 385.318 175.782 384.886 176.179C384.341 175.864 383.953 175.462 383.389 175.136L324.593 141.19C324.126 140.921 323.639 140.64 323.172 140.37C295.387 159.074 279.943 193.467 305.435 220.674L385.062 176.08L444.267 210.262Z" fill="#2F58C0"/>
<path d="M259.165 128.507L288.665 103.507L344.665 136.007L271.165 178.007L256.665 147.507L259.165 128.507Z" fill="#00B3D0"/>
<path d="M432.29 97.6321L460.54 139.257L415.54 164.632L387.415 149.132L364.415 135.757L432.29 97.6321Z" fill="#00B3D0"/>
<path d="M333.53 63.2737C334.11 62.828 334.949 62.5138 335.9 62.386C336.851 62.2582 337.853 62.3249 338.731 62.5745C375.443 70.9245 412.136 79.2041 448.81 87.4131C449.67 87.5803 450.451 87.8595 451.09 88.2283C451.729 88.5971 452.208 89.0453 452.488 89.5369C464.388 107.516 483.179 120.12 495.221 138.019C495.221 139.441 495.221 140.128 495.221 140.707C495.221 142.553 495.287 153.655 495.111 154.16C494.936 154.666 494.444 155.116 493.727 155.429C476.276 165.202 458.806 174.986 441.258 184.703C435.503 187.886 429.332 190.817 422.797 193.469C401.963 201.901 377.799 207.313 352.384 209.239C319.801 211.77 288.718 209.078 259.552 199.955C256.357 198.994 253.759 197.494 252.117 195.663C237.632 180.239 232.136 162.629 236.427 145.391C240.664 125.025 257.003 106.145 282.745 91.8697C290.294 87.6421 297.823 83.4254 305.372 79.1978C314.804 73.916 324.235 68.6341 333.53 63.2737ZM412.49 177.438L415.117 178.955C415.921 178.505 416.724 178.188 417.391 177.814C433.077 169.03 448.717 160.271 464.312 151.537C464.948 151.303 465.414 150.947 465.624 150.532C465.835 150.118 465.777 149.673 465.46 149.278C454.496 133.046 443.604 116.789 432.783 100.506C432.512 100.104 432.124 99.7241 431.698 99.188C430.933 99.6163 430.384 99.9237 429.835 100.231C404.763 114.272 379.698 128.309 354.639 142.343C354.09 142.65 353.541 142.958 353.109 143.355C352.564 143.04 352.175 142.638 351.611 142.312L292.815 108.366C292.348 108.097 291.861 107.816 291.394 107.546C263.609 126.25 248.165 160.643 273.658 187.85L353.285 143.256L412.49 177.438Z" fill="#099FB8"/>
<path d="M253.665 135.039H344.665L267.665 180.539L253.665 135.039Z" fill="#099FB8"/>
<path d="M364.415 135.039H473L381.121 180.539L364.415 135.039Z" fill="#099FB8"/>
<path d="M333.599 47.6912C334.179 47.2455 335.018 46.9313 335.969 46.8035C336.92 46.6757 337.922 46.7424 338.8 46.992C375.512 55.342 412.205 63.6216 448.879 71.8306C449.739 71.9978 450.52 72.277 451.158 72.6458C451.797 73.0146 452.276 73.4628 452.557 73.9543C466.524 95.057 480.589 116.105 494.752 137.098C495.204 137.547 495.356 138.073 495.18 138.578C495.004 139.083 494.513 139.534 493.796 139.847C476.345 149.62 458.875 159.404 441.326 169.12C435.572 172.304 429.401 175.234 422.866 177.887C402.031 186.319 377.868 191.73 352.453 193.657C319.87 196.187 288.786 193.495 259.62 184.373C256.426 183.411 253.827 181.911 252.186 180.08C237.701 164.657 232.204 147.047 236.495 129.808C240.732 109.443 257.072 90.5623 282.814 76.2872C290.363 72.0596 297.892 67.8429 305.441 63.6153C314.872 58.3334 324.304 53.0516 333.599 47.6912ZM412.558 161.855L415.186 163.372C415.99 162.922 416.793 162.605 417.459 162.232C433.146 153.447 448.786 144.688 464.381 135.955C465.017 135.721 465.482 135.364 465.693 134.95C465.904 134.535 465.845 134.09 465.529 133.696C454.565 117.464 443.672 101.206 432.852 84.9235C432.581 84.5218 432.193 84.1415 431.766 83.6055C431.002 84.0338 430.453 84.3412 429.904 84.6487C404.832 98.6896 379.766 112.727 354.708 126.76C354.159 127.068 353.61 127.375 353.177 127.772C352.632 127.458 352.244 127.055 351.68 126.73L292.884 92.7837C292.417 92.514 291.93 92.2331 291.463 91.9634C263.678 110.667 248.234 145.06 273.726 172.267L353.354 127.674L412.558 161.855Z" fill="#22D8F6"/>
<mask id="mask1_2126:3319" style="mask-type:alpha" maskUnits="userSpaceOnUse" x="235" y="46" width="261" height="149">
<path d="M333.599 47.6912C334.179 47.2455 335.018 46.9313 335.969 46.8035C336.92 46.6757 337.922 46.7424 338.8 46.992C375.512 55.342 412.205 63.6216 448.879 71.8306C449.739 71.9978 450.52 72.277 451.158 72.6458C451.797 73.0146 452.276 73.4628 452.557 73.9543C466.524 95.057 480.589 116.105 494.752 137.098C495.204 137.547 495.356 138.073 495.18 138.578C495.004 139.083 494.513 139.534 493.796 139.847C476.345 149.62 458.875 159.404 441.326 169.12C435.572 172.304 429.401 175.234 422.866 177.887C402.031 186.319 377.868 191.73 352.453 193.657C319.87 196.187 288.786 193.495 259.62 184.373C256.426 183.411 253.827 181.911 252.186 180.08C237.701 164.657 232.204 147.047 236.495 129.808C240.732 109.443 257.072 90.5623 282.814 76.2872C290.363 72.0596 297.892 67.8429 305.441 63.6153C314.872 58.3334 324.304 53.0516 333.599 47.6912ZM412.558 161.855L415.186 163.372C415.99 162.922 416.793 162.605 417.459 162.232C433.146 153.447 448.786 144.688 464.381 135.955C465.017 135.721 465.482 135.364 465.693 134.95C465.904 134.535 465.845 134.09 465.529 133.696C454.565 117.464 443.672 101.206 432.852 84.9235C432.581 84.5218 432.193 84.1415 431.766 83.6055C431.002 84.0338 430.453 84.3412 429.904 84.6487C404.832 98.6896 379.766 112.727 354.708 126.76C354.159 127.068 353.61 127.375 353.177 127.772C352.632 127.458 352.244 127.055 351.68 126.73L292.884 92.7837C292.417 92.514 291.93 92.2331 291.463 91.9634C263.678 110.667 248.234 145.06 273.726 172.267L353.354 127.674L412.558 161.855Z" fill="#22D8F6"/>
</mask>
<g mask="url(#mask1_2126:3319)">
<path opacity="0.75" d="M352.915 218.757V43.7571L466.165 66.5071L501.665 132.507L490.165 172.507L352.915 218.757Z" fill="#35C4DC"/>
<path d="M353.165 127.757L269.915 79.5071L235.165 110.007L225.665 161.007L247.165 215.507L254.915 182.882L353.165 127.757Z" fill="#00CFF1"/>
<path d="M352.165 127.507L494.665 136.007L456.165 70.0071L352.165 127.507Z" fill="#3CDAF0"/>
</g>
</g>
<defs>
<linearGradient id="paint0_linear_2126:3319" x1="97.2551" y1="166.034" x2="-38.7087" y2="244.533" gradientUnits="userSpaceOnUse">
<stop stop-color="#31B5CB"/>
<stop offset="1" stop-color="#3451CC"/>
</linearGradient>
<linearGradient id="paint1_linear_2126:3319" x1="174.303" y1="251.025" x2="38.3393" y2="329.524" gradientUnits="userSpaceOnUse">
<stop stop-color="#31B5CB"/>
<stop offset="1" stop-color="#3451CC"/>
</linearGradient>
<linearGradient id="paint2_linear_2126:3319" x1="194.161" y1="70.7167" x2="58.197" y2="149.216" gradientUnits="userSpaceOnUse">
<stop stop-color="#31B5CB"/>
<stop offset="1" stop-color="#3451CC"/>
</linearGradient>
<linearGradient id="paint3_linear_2126:3319" x1="295.038" y1="139.822" x2="159.074" y2="218.32" gradientUnits="userSpaceOnUse">
<stop stop-color="#31B5CB"/>
<stop offset="1" stop-color="#3451CC"/>
</linearGradient>
<linearGradient id="paint4_linear_2126:3319" x1="371.689" y1="224.415" x2="235.725" y2="302.914" gradientUnits="userSpaceOnUse">
<stop stop-color="#31B5CB"/>
<stop offset="1" stop-color="#3451CC"/>
</linearGradient>
</defs>
</svg>
