<svg width="570" height="410" viewBox="0 0 570 410" fill="none" xmlns="http://www.w3.org/2000/svg">
<rect opacity="0.2" width="175" height="175" transform="matrix(0.866025 0.5 -0.873432 0.486945 153.101 0.624023)" fill="#7F8774"/>
<rect opacity="0.4" width="230" height="230" transform="matrix(0.866025 0.5 -0.873432 0.486945 370.652 182.378)" fill="#D9E0CF"/>
<path d="M281.56 200.118L118.906 105.66L276.221 13.8757L438.875 108.333L281.56 200.118Z" stroke="white" stroke-width="7" stroke-linejoin="round"/>
<path d="M118.873 291.195V106.128L282.027 199.205L281.118 384.751L118.873 291.195Z" stroke="white" stroke-width="7" stroke-linejoin="round"/>
<path d="M281.245 385.881L281.896 199.599L438.875 108.278V294.82L281.245 385.881Z" stroke="white" stroke-width="7" stroke-linejoin="round"/>
<path d="M411.43 195.012C411.43 231.414 396.969 266.325 371.229 292.064C345.489 317.804 310.579 332.265 274.177 332.265C237.775 332.265 202.865 317.804 177.125 292.064C151.385 266.325 136.924 231.414 136.924 195.012C136.924 158.611 151.385 123.7 177.125 97.9599C202.865 72.22 237.775 57.7595 274.177 57.7595C310.579 57.7595 345.489 72.22 371.229 97.9599C396.969 123.7 411.43 158.611 411.43 195.012V195.012Z" stroke="white" stroke-width="5" stroke-linejoin="round"/>
<path d="M171.173 285.723C166.425 280.332 172.724 265.604 188.683 244.78C204.643 223.957 228.957 198.742 256.275 174.684C283.593 150.626 311.679 129.695 334.353 116.496C357.027 103.297 372.433 98.91 377.181 104.301" stroke="white" stroke-width="2.5" stroke-linejoin="round"/>
<path fill-rule="evenodd" clip-rule="evenodd" d="M409.005 195.012C409.005 203.975 405.694 212.96 399.069 221.471C397.064 224.046 394.769 226.56 392.197 228.999C392.118 231.321 391.887 233.696 391.509 236.095C395.904 232.423 399.719 228.529 402.895 224.449C410.065 215.239 413.854 205.231 413.854 195.012H409.005ZM330.09 264.199C329.139 264.422 328.184 264.64 327.223 264.851C310.39 268.561 292.367 270.467 274.177 270.467C255.987 270.467 237.964 268.561 221.131 264.851C204.301 261.142 188.957 255.695 175.986 248.793C163.023 241.895 152.617 233.644 145.459 224.449C138.289 215.239 134.5 205.231 134.5 195.012L139.349 195.012C139.349 203.975 142.66 212.96 149.285 221.471C155.923 229.997 165.737 237.847 178.264 244.512C190.783 251.174 205.7 256.485 222.175 260.116C238.646 263.746 256.318 265.618 274.177 265.618C292.036 265.618 309.708 263.746 326.18 260.116C327.235 259.883 328.285 259.644 329.328 259.397C329.494 261.047 329.747 262.652 330.09 264.199Z" fill="white"/>
<path d="M384.816 208.26C389.296 214.309 390.962 223.384 389.731 233.503C388.499 243.617 384.381 254.529 377.576 263.718C370.77 272.908 362.688 278.468 355.198 280.13C347.703 281.794 340.982 279.544 336.501 273.495C332.021 267.446 330.355 258.37 331.587 248.251C332.818 238.138 336.936 227.226 343.742 218.036C350.548 208.847 358.63 203.287 366.12 201.624C373.615 199.961 380.336 202.21 384.816 208.26Z" stroke="white" stroke-width="5"/>
<path fill-rule="evenodd" clip-rule="evenodd" d="M364.477 240.977V250.961L360.187 253.513V243.529C360.187 242.151 361.147 240.462 362.332 239.757C363.516 239.052 364.477 239.599 364.477 240.977ZM347.317 243.698L351.607 241.146L353.752 239.87L358.042 237.318L360.187 236.042L366.622 232.213V224.725C366.622 221.967 364.702 220.876 362.332 222.286C359.961 223.696 358.042 227.072 358.042 229.83V237.318L353.752 239.87V232.382C353.752 226.869 357.593 220.113 362.332 217.294C367.07 214.475 370.912 216.66 370.912 222.173V229.661L377.347 225.832V250.791L347.317 268.657V243.698Z" fill="white"/>
<path fill-rule="evenodd" clip-rule="evenodd" d="M321.97 160.09C311.731 146.078 300.586 133.113 289.125 121.784C287.849 122.747 286.478 123.668 285.014 124.54C296.506 135.82 307.732 148.824 318.055 162.95C329.449 178.544 339.205 194.769 346.814 210.567C348.016 209.294 349.244 208.117 350.49 207.036C342.837 191.382 333.164 175.41 321.97 160.09ZM369.648 275.71C369.616 278.966 369.376 282.051 368.927 284.95C367.384 294.917 363.333 302.858 356.585 307.789L353.724 303.874C359.133 299.922 362.724 293.325 364.135 284.208C364.383 282.61 364.562 280.94 364.672 279.201C366.345 278.206 368.009 277.041 369.648 275.71ZM216.529 82.207C221.425 82.9725 226.771 84.5527 232.485 86.9566C234.1 85.8922 235.842 84.8905 237.705 83.964C230.454 80.6064 223.596 78.4041 217.278 77.4164C207.314 75.8585 198.517 77.3048 191.769 82.2356L194.63 86.1505C200.038 82.1987 207.415 80.7819 216.529 82.207Z" fill="white"/>
<path d="M300.056 95.1322C296.036 88.7677 288.178 83.9326 278.298 81.4218C268.424 78.9124 256.761 78.8055 245.732 81.8277C234.703 84.8498 226.597 90.3741 222.339 96.7563C218.078 103.142 217.744 110.222 221.764 116.587C225.783 122.951 233.642 127.786 243.522 130.297C253.396 132.806 265.059 132.913 276.088 129.891C287.116 126.869 295.223 121.345 299.481 114.963C303.742 108.577 304.076 101.497 300.056 95.1322Z" stroke="white" stroke-width="5"/>
<path fill-rule="evenodd" clip-rule="evenodd" d="M261.293 106.314L252.164 110.356L248.05 107.528L257.179 103.486C258.44 102.928 260.382 103.109 261.518 103.89C262.654 104.671 262.553 105.756 261.293 106.314ZM251.685 91.9711L255.799 94.799L257.855 96.213L261.969 99.041L264.026 100.455L270.196 104.697L277.043 101.665C279.564 100.549 279.766 98.3789 277.493 96.8165C275.221 95.254 271.337 94.8929 268.816 96.0095L261.969 99.041L257.855 96.213L264.702 93.1816C269.743 90.9494 277.515 91.6721 282.058 94.7955C286.601 97.919 286.197 102.261 281.156 104.493L274.309 107.525L280.48 111.767L257.658 121.872L228.863 102.076L251.685 91.9711Z" fill="white"/>
</svg>
