<svg width="544" height="406" viewBox="0 0 544 406" fill="none" xmlns="http://www.w3.org/2000/svg">
<rect opacity="0.3" width="175" height="175" transform="matrix(0.866025 0.5 -0.873432 0.486945 152.893 44.2847)" fill="#2640AD"/>
<rect opacity="0.25" width="230" height="230" transform="matrix(0.866025 0.5 -0.873432 0.486945 344.261 178.977)" fill="#8D9FEC"/>
<path d="M252.005 181.25L96.1978 90.6875L246.89 2.6875L402.698 93.25L252.005 181.25Z" stroke="white" stroke-width="5" stroke-linejoin="round"/>
<path d="M95.1353 290.938L96.0728 90.75L252.198 181.125L251.323 381L95.1353 290.938Z" stroke="white" stroke-width="5" stroke-linejoin="round"/>
<path d="M251.448 380.75L252.073 181.125L402.698 93.5V293.375L251.448 380.75Z" stroke="white" stroke-width="5" stroke-linejoin="round"/>
<path d="M235.073 190.75L110.573 118.75L109.823 279.5L235.073 351.75V190.75Z" stroke="white" stroke-width="3" stroke-linejoin="round"/>
<path d="M164.209 226.921L186.595 240.557C184.743 242.05 183.883 243.201 182.667 245.775L156.353 230.247C156.907 229.873 158.456 228.867 160.219 227.836C161.981 226.805 163.316 226.527 164.209 226.921Z" stroke="white" stroke-width="2"/>
<path d="M182.625 245.754L157.184 230.622C156.103 230.317 153.941 230.605 153.941 234.197C153.941 237.789 156.103 239.574 157.184 240.017L182.625 254.4C182.043 251.503 181.979 249.657 182.625 245.754Z" stroke="white" stroke-width="3"/>
<ellipse cx="195.171" cy="256.028" rx="11.495" ry="18.0371" transform="rotate(-26.8258 195.171 256.028)" stroke="white" stroke-width="3"/>
<path fill-rule="evenodd" clip-rule="evenodd" d="M211.149 248.314C213.349 252.665 214.172 257.091 213.815 260.677C213.544 263.392 212.631 265.461 211.288 266.779V269.308C216.694 265.983 217.472 256.385 212.933 247.411C208.242 238.133 199.645 233.036 193.733 236.026C193.708 236.039 193.684 236.051 193.66 236.063L193.682 236.052L195.504 237.458C197.522 236.824 200.053 237.227 202.771 238.839C205.871 240.677 208.948 243.962 211.149 248.314Z" fill="white"/>
<path d="M186.762 239.58L193.699 236.047L195.518 237.453L192.276 239.086L186.762 239.58Z" fill="white"/>
<path d="M211.34 269.283L203.681 273.185L205.873 269.355L211.288 266.777L211.34 269.283Z" fill="white"/>
<path d="M367.249 162.342L299.522 201.444C298.238 202.185 297.198 203.988 297.198 205.469V308.208C297.198 309.691 298.238 310.291 299.522 309.55L309.905 303.555L314.663 300.808L352.106 279.191L356.865 276.443L367.249 270.448C368.532 269.707 369.573 267.905 369.573 266.423V233.344V228.372V197.135V190.63V163.683C369.573 162.202 368.532 161.601 367.249 162.342ZM315.104 198.964C315.175 198.547 315.218 198.133 315.268 197.72L351.503 176.8C351.552 177.156 351.597 177.518 351.669 177.854C351.739 178.203 351.832 178.529 351.924 178.857L314.849 200.262C314.941 199.828 315.035 199.394 315.104 198.964ZM301.514 205.277L311.308 199.623C311.286 199.767 311.246 199.911 311.224 200.055C311.155 200.486 311.069 200.916 310.974 201.349C310.876 201.797 310.763 202.244 310.636 202.694C309.42 206.99 306.95 211.27 303.838 214.469C303.511 214.805 303.182 215.125 302.842 215.435C302.515 215.732 302.184 216.026 301.846 216.298C301.733 216.389 301.628 216.497 301.514 216.586V205.277V205.277ZM303.838 219.333V286.678C303.508 286.763 303.179 286.845 302.842 286.957C302.515 287.066 302.18 287.207 301.846 287.343V220.967C302.18 220.719 302.515 220.472 302.842 220.204C303.179 219.926 303.508 219.629 303.838 219.333ZM309.087 299.044L301.514 303.416V292.107C301.628 292.066 301.733 292.051 301.846 292.012C302.184 291.897 302.515 291.805 302.842 291.726C303.182 291.643 303.511 291.583 303.838 291.542C305.642 291.312 307.22 291.714 308.474 292.64C309.382 293.312 310.126 294.25 310.636 295.466C310.763 295.77 310.876 296.085 310.974 296.421C311.069 296.744 311.157 297.074 311.224 297.427C311.246 297.544 311.286 297.642 311.308 297.762L309.087 299.044ZM351.666 272.927C351.597 273.344 351.552 273.757 351.503 274.172L315.268 295.092C315.218 294.734 315.173 294.374 315.104 294.036C315.031 293.689 314.938 293.363 314.848 293.034L351.923 271.629C351.83 272.063 351.735 272.498 351.666 272.927ZM353.701 265.236L313.071 288.693L312.687 288.915C311.561 287.664 310.136 286.839 308.488 286.49C308.487 286.49 308.487 286.49 308.486 286.489V214.154C310.134 211.903 311.559 209.433 312.687 206.877L354.083 182.977C355.209 184.23 356.636 185.055 358.285 185.403V257.737C358.284 257.738 358.284 257.74 358.282 257.742C356.634 259.995 355.209 262.463 354.083 265.015L353.701 265.236ZM365.257 266.614L357.683 270.987L355.463 272.269C355.484 272.125 355.524 271.981 355.547 271.837C355.614 271.407 355.702 270.975 355.796 270.543C355.895 270.094 356.007 269.648 356.135 269.197C356.646 267.392 357.389 265.592 358.298 263.871C359.55 261.5 361.128 259.278 362.933 257.423C363.26 257.087 363.59 256.766 363.929 256.457C364.257 256.159 364.586 255.866 364.925 255.594C365.038 255.502 365.143 255.396 365.257 255.305V266.614ZM362.933 252.559V185.214C363.262 185.131 363.592 185.047 363.929 184.935C364.256 184.826 364.591 184.686 364.925 184.55V191.926V194.304V235.037V237.415V250.926C364.591 251.175 364.256 251.421 363.929 251.69C363.592 251.966 363.262 252.265 362.933 252.559ZM365.257 179.784C365.143 179.827 365.038 179.84 364.925 179.879C364.586 179.998 364.257 180.086 363.929 180.166C363.59 180.247 363.26 180.309 362.933 180.35C359.82 180.744 357.349 179.319 356.135 176.425C356.007 176.122 355.896 175.804 355.796 175.471C355.702 175.146 355.61 174.819 355.547 174.465C355.524 174.348 355.484 174.249 355.463 174.13L365.257 168.475V179.784Z" fill="white"/>
<path d="M328.029 240.466C329.185 239.799 330.12 238.178 330.12 236.845C330.12 236.302 329.959 235.9 329.697 235.649C329.316 235.282 328.713 235.244 328.029 235.638C327.037 236.211 326.211 237.487 325.998 238.681C325.962 238.878 325.939 239.072 325.939 239.259C325.939 240.591 326.875 241.132 328.029 240.466Z" fill="white"/>
<path d="M339.077 234.087C340.232 233.42 341.168 231.799 341.168 230.466C341.168 230.288 341.148 230.127 341.118 229.979C340.912 229.013 340.078 228.682 339.077 229.26C338.408 229.647 337.819 230.356 337.437 231.143C337.159 231.712 336.987 232.321 336.987 232.881C336.987 234.213 337.923 234.754 339.077 234.087Z" fill="white"/>
<path d="M342.637 244.445C342.666 244.404 342.7 244.363 342.729 244.32C343.115 243.77 343.478 243.199 343.838 242.625C344.709 241.237 345.491 239.792 346.18 238.311C348.105 234.172 349.263 229.791 349.263 225.755C349.263 215.642 342.138 211.53 333.381 216.586C324.624 221.641 317.5 233.982 317.5 244.093C317.5 248.106 318.645 251.141 320.549 253.059C321.245 253.761 322.04 254.312 322.927 254.7C323.286 254.857 323.647 255.01 324.034 255.114C324.056 255.119 324.079 255.12 324.1 255.126C316.26 262.451 311.868 271.853 311.001 283.221C311.754 283.254 312.472 283.499 313.151 283.828C313.819 284.152 314.448 284.554 315.031 284.913C315.209 270.804 321.034 260.392 333.345 253.284C332.841 253.576 332.344 253.826 331.851 254.053C332.349 253.821 332.853 253.567 333.364 253.272C333.357 253.276 333.351 253.281 333.344 253.285C345.427 246.309 351.338 249.859 351.719 263.11C352.262 261.901 352.888 260.79 353.561 259.773C354.221 258.777 354.929 257.867 355.657 257.047C354.717 246.972 350.35 242.77 342.637 244.445ZM322.66 246.169C322.107 244.928 321.796 243.404 321.796 241.616C321.796 234.238 326.994 225.237 333.381 221.549C339.77 217.861 344.967 220.861 344.967 228.238C344.967 230.041 344.652 231.944 344.089 233.842C342.348 239.7 338.207 245.517 333.381 248.303C328.542 251.097 324.391 250.046 322.66 246.169Z" fill="white"/>
</svg>
