<svg width="622" height="374" viewBox="0 0 622 374" fill="none" xmlns="http://www.w3.org/2000/svg">
<rect opacity="0.3" width="175" height="175" transform="matrix(0.866025 0.5 -0.873432 0.486945 470.446 0.142334)" fill="#525A70"/>
<path opacity="0.25" d="M206.19 146.86L405.376 261.86L204.486 373.858L5.30023 258.858L206.19 146.86Z" fill="#ACB2CC"/>
<path d="M321.279 235.32L225.619 179.717L318.139 125.688L413.799 181.291L321.279 235.32Z" stroke="white" stroke-width="5.5" stroke-linejoin="round"/>
<path d="M224.967 289.886V180.504L321.398 235.516L320.86 345.181L224.967 289.886Z" stroke="white" stroke-width="5.5" stroke-linejoin="round"/>
<path d="M320.937 345.257L321.321 235.516L413.799 181.717V291.612L320.937 345.257Z" stroke="white" stroke-width="5.5" stroke-linejoin="round"/>
<path fill-rule="evenodd" clip-rule="evenodd" d="M77.5252 103.196L20.1128 136.344C19.7315 136.565 19.3048 136.676 18.8762 136.676C18.4495 136.676 18.0222 136.565 17.6391 136.344C16.8747 135.901 16.4026 135.085 16.4026 134.203V86.8666C16.4032 85.9843 16.8753 85.1678 17.6397 84.7251L75.0521 51.571C75.8165 51.1283 76.7602 51.1283 77.5252 51.571C78.2902 52.0125 78.7617 52.8284 78.7617 53.7131V101.055C78.7617 101.939 78.2896 102.756 77.5252 103.196ZM17.9148 135.868C17.3193 135.523 16.9526 134.888 16.9526 134.203V86.867C16.953 86.1814 17.3201 85.5457 17.9153 85.201L75.3272 52.0473C75.921 51.7034 76.6551 51.703 77.2497 52.0471C77.8445 52.3902 78.2117 53.0249 78.2117 53.7131V101.055C78.2117 101.742 77.8444 102.378 77.2507 102.72L19.8377 135.868C19.5414 136.039 19.2096 136.126 18.8762 136.126C18.5455 136.126 18.2134 136.04 17.9148 135.868ZM20.7993 130.87L74.3656 99.9442V57.0422L20.7993 87.9772V130.87ZM21.3493 129.918V88.2947L73.8156 57.9949V99.6266L21.3493 129.918Z" fill="#747A95"/>
<mask id="path-7-inside-1" fill="white">
<path fill-rule="evenodd" clip-rule="evenodd" d="M75.0524 32.6291C75.0524 32.6291 1.21519 75.2671 1.20352 75.2751C0.45694 75.7214 0.000762939 76.5257 0.000152588 77.3957V153.142C0.000152588 154.026 0.470444 154.842 1.23668 155.283L58.6497 188.423C59.031 188.644 59.4589 188.755 59.8863 188.755C60.3136 188.755 60.7397 188.644 61.1234 188.423L118.024 155.578L118.082 149.834L59.8844 183.426L4.94748 151.714H4.94687V81.5277L8.20271 83.2726V148.401C8.20271 149.282 8.67301 150.099 9.4374 150.542L58.6479 178.961C59.031 179.181 59.4589 179.292 59.8863 179.292C60.3136 179.292 60.7397 179.181 61.1234 178.961L118.119 146.047L118.14 143.955L135.973 133.217C135.765 132.736 135.407 132.324 134.938 132.052L86.9639 104.354L86.9707 39.511C86.9725 38.6288 86.5022 37.8122 85.7391 37.3714L85.7342 37.3695V37.3677L77.5254 32.6291C76.7604 32.1865 75.8168 32.1865 75.0524 32.6291ZM7.55928 77.3171L76.2889 37.6274L79.5368 39.5012L10.6359 78.9662L7.55928 77.3171ZM82.0246 43.7763L82.0178 104.354L13.1494 144.116V83.2259L82.0246 43.7763ZM15.6213 148.401L84.4909 108.639L128.755 134.196L109.097 145.547L102.132 141.525C101.368 141.082 100.424 141.082 99.6589 141.525L75.0512 155.737C74.2868 156.18 73.8147 156.997 73.8147 157.88C73.8147 158.762 74.2862 159.58 75.0512 160.021L79.5435 162.614L59.885 173.966L15.6213 148.401ZM104.152 148.401L84.489 159.757L81.2338 157.878L100.895 146.521L104.152 148.401ZM17.6397 84.7251L75.0521 51.571C75.8165 51.1283 76.7602 51.1283 77.5252 51.571C78.2902 52.0125 78.7617 52.8284 78.7617 53.7131V101.055C78.7617 101.939 78.2896 102.756 77.5252 103.196L20.1127 136.344C19.7315 136.565 19.3048 136.676 18.8762 136.676C18.4495 136.676 18.0222 136.565 17.6391 136.344C16.8747 135.901 16.4025 135.085 16.4025 134.203V86.8666C16.4032 85.9843 16.8753 85.1678 17.6397 84.7251ZM21.3493 129.918L73.8156 99.6266V57.9949L21.3493 88.2947V129.918ZM51.684 165.087C52.1114 165.087 52.5381 164.977 52.9212 164.756L110.339 131.606C111.104 131.164 111.576 130.347 111.576 129.463C111.576 128.58 111.104 127.763 110.339 127.322L85.7265 113.119C84.9621 112.677 84.0191 112.677 83.2535 113.119L25.8417 146.259C25.0767 146.699 24.6045 147.517 24.6045 148.4C24.6045 149.284 25.0767 150.1 25.8417 150.543L50.4475 164.756C50.8288 164.977 51.2579 165.087 51.684 165.087ZM95.9515 124.729L43.4852 155.022L40.2318 153.141L92.6963 122.851L95.9515 124.729ZM32.0249 148.401L84.4906 118.116L87.7483 119.997L35.2869 150.285L32.0249 148.401ZM48.43 157.878L100.899 127.585L104.155 129.464L51.684 159.758L48.43 157.878Z"/>
</mask>
<path fill-rule="evenodd" clip-rule="evenodd" d="M75.0524 32.6291C75.0524 32.6291 1.21519 75.2671 1.20352 75.2751C0.45694 75.7214 0.000762939 76.5257 0.000152588 77.3957V153.142C0.000152588 154.026 0.470444 154.842 1.23668 155.283L58.6497 188.423C59.031 188.644 59.4589 188.755 59.8863 188.755C60.3136 188.755 60.7397 188.644 61.1234 188.423L118.024 155.578L118.082 149.834L59.8844 183.426L4.94748 151.714H4.94687V81.5277L8.20271 83.2726V148.401C8.20271 149.282 8.67301 150.099 9.4374 150.542L58.6479 178.961C59.031 179.181 59.4589 179.292 59.8863 179.292C60.3136 179.292 60.7397 179.181 61.1234 178.961L118.119 146.047L118.14 143.955L135.973 133.217C135.765 132.736 135.407 132.324 134.938 132.052L86.9639 104.354L86.9707 39.511C86.9725 38.6288 86.5022 37.8122 85.7391 37.3714L85.7342 37.3695V37.3677L77.5254 32.6291C76.7604 32.1865 75.8168 32.1865 75.0524 32.6291ZM7.55928 77.3171L76.2889 37.6274L79.5368 39.5012L10.6359 78.9662L7.55928 77.3171ZM82.0246 43.7763L82.0178 104.354L13.1494 144.116V83.2259L82.0246 43.7763ZM15.6213 148.401L84.4909 108.639L128.755 134.196L109.097 145.547L102.132 141.525C101.368 141.082 100.424 141.082 99.6589 141.525L75.0512 155.737C74.2868 156.18 73.8147 156.997 73.8147 157.88C73.8147 158.762 74.2862 159.58 75.0512 160.021L79.5435 162.614L59.885 173.966L15.6213 148.401ZM104.152 148.401L84.489 159.757L81.2338 157.878L100.895 146.521L104.152 148.401ZM17.6397 84.7251L75.0521 51.571C75.8165 51.1283 76.7602 51.1283 77.5252 51.571C78.2902 52.0125 78.7617 52.8284 78.7617 53.7131V101.055C78.7617 101.939 78.2896 102.756 77.5252 103.196L20.1127 136.344C19.7315 136.565 19.3048 136.676 18.8762 136.676C18.4495 136.676 18.0222 136.565 17.6391 136.344C16.8747 135.901 16.4025 135.085 16.4025 134.203V86.8666C16.4032 85.9843 16.8753 85.1678 17.6397 84.7251ZM21.3493 129.918L73.8156 99.6266V57.9949L21.3493 88.2947V129.918ZM51.684 165.087C52.1114 165.087 52.5381 164.977 52.9212 164.756L110.339 131.606C111.104 131.164 111.576 130.347 111.576 129.463C111.576 128.58 111.104 127.763 110.339 127.322L85.7265 113.119C84.9621 112.677 84.0191 112.677 83.2535 113.119L25.8417 146.259C25.0767 146.699 24.6045 147.517 24.6045 148.4C24.6045 149.284 25.0767 150.1 25.8417 150.543L50.4475 164.756C50.8288 164.977 51.2579 165.087 51.684 165.087ZM95.9515 124.729L43.4852 155.022L40.2318 153.141L92.6963 122.851L95.9515 124.729ZM32.0249 148.401L84.4906 118.116L87.7483 119.997L35.2869 150.285L32.0249 148.401ZM48.43 157.878L100.899 127.585L104.155 129.464L51.684 159.758L48.43 157.878Z" fill="white"/>
<path d="M1.20352 75.2751L1.51393 75.7291L1.50011 75.7386L1.48575 75.7472L1.20352 75.2751ZM75.0524 32.6291L75.328 33.1051L75.3274 33.1054L75.0524 32.6291ZM0.000152588 77.3957L-0.549848 77.3957L-0.549847 77.3953L0.000152588 77.3957ZM1.23668 155.283L1.51124 154.807L1.51163 154.807L1.23668 155.283ZM58.6497 188.423L58.9247 187.947L58.925 187.947L58.6497 188.423ZM61.1234 188.423L61.3984 188.9L61.3973 188.9L61.1234 188.423ZM118.024 155.578L118.574 155.583L118.571 155.897L118.299 156.054L118.024 155.578ZM118.082 149.834L117.807 149.357L118.641 148.875L118.632 149.839L118.082 149.834ZM59.8844 183.426L60.1594 183.902L59.8844 184.061L59.6094 183.902L59.8844 183.426ZM4.94748 151.714V151.164H5.09482L5.22244 151.238L4.94748 151.714ZM4.94687 151.714V152.264H4.39687V151.714H4.94687ZM4.94687 81.5277H4.39687V80.6089L5.20667 81.0429L4.94687 81.5277ZM8.20271 83.2726L8.46251 82.7878L8.75271 82.9433V83.2726H8.20271ZM9.4374 150.542L9.16235 151.018L9.16177 151.018L9.4374 150.542ZM58.6479 178.961L58.3742 179.438L58.3728 179.437L58.6479 178.961ZM61.1234 178.961L61.3984 179.437L61.3968 179.438L61.1234 178.961ZM118.119 146.047L118.669 146.053L118.666 146.367L118.394 146.524L118.119 146.047ZM118.14 143.955L117.59 143.95L117.593 143.643L117.857 143.484L118.14 143.955ZM135.973 133.217L136.478 133L136.668 133.441L136.257 133.689L135.973 133.217ZM134.938 132.052L135.213 131.576L135.214 131.576L134.938 132.052ZM86.9639 104.354L86.6889 104.831L86.4139 104.672L86.4139 104.354L86.9639 104.354ZM86.9707 39.511L86.4207 39.511L86.4207 39.5099L86.9707 39.511ZM85.7391 37.3714L85.9321 36.8564L85.9748 36.8724L86.0142 36.8951L85.7391 37.3714ZM85.7342 37.3695L85.5411 37.8845L85.1842 37.7507V37.3695H85.7342ZM85.7342 37.3677L86.0091 36.8914L86.2842 37.0501V37.3677H85.7342ZM77.5254 32.6291L77.2505 33.1055L77.25 33.1052L77.5254 32.6291ZM76.2889 37.6274L76.0139 37.1511L76.2888 36.9924L76.5638 37.151L76.2889 37.6274ZM7.55928 77.3171L7.29944 77.8019L6.42847 77.335L7.28424 76.8409L7.55928 77.3171ZM79.5368 39.5012L79.8116 39.0248L80.6404 39.5029L79.8102 39.9785L79.5368 39.5012ZM10.6359 78.9662L10.9092 79.4435L10.6447 79.595L10.376 79.451L10.6359 78.9662ZM82.0178 104.354L82.5678 104.354L82.5678 104.672L82.2928 104.831L82.0178 104.354ZM82.0246 43.7763L81.7512 43.299L82.5747 42.8273L82.5746 43.7763L82.0246 43.7763ZM13.1494 144.116L13.4244 144.593L12.5994 145.069V144.116H13.1494ZM13.1494 83.2259H12.5994V82.9071L12.8761 82.7487L13.1494 83.2259ZM84.4909 108.639L84.2159 108.162L84.4909 108.003L84.7659 108.162L84.4909 108.639ZM15.6213 148.401L15.3462 148.878L14.5214 148.401L15.3462 147.925L15.6213 148.401ZM128.755 134.196L129.03 133.72L129.855 134.196L129.03 134.672L128.755 134.196ZM109.097 145.547L109.372 146.023L109.097 146.182L108.822 146.023L109.097 145.547ZM102.132 141.525L101.857 142.001L101.856 142.001L102.132 141.525ZM99.6589 141.525L99.9343 142.001L99.9339 142.001L99.6589 141.525ZM75.0512 155.737L74.7755 155.261L74.7761 155.261L75.0512 155.737ZM75.0512 160.021L75.3258 159.545L75.3261 159.545L75.0512 160.021ZM79.5435 162.614L79.8185 162.138L80.6436 162.614L79.8186 163.09L79.5435 162.614ZM59.885 173.966L60.1601 174.442L59.885 174.601L59.61 174.442L59.885 173.966ZM84.489 159.757L84.7641 160.233L84.4891 160.392L84.2141 160.234L84.489 159.757ZM104.152 148.401L104.427 147.925L105.252 148.401L104.427 148.878L104.152 148.401ZM81.2338 157.878L80.9589 158.355L80.1339 157.879L80.9587 157.402L81.2338 157.878ZM100.895 146.521L100.62 146.045L100.895 145.886L101.17 146.044L100.895 146.521ZM75.0521 51.571L75.3278 52.047L75.3272 52.0473L75.0521 51.571ZM17.6397 84.7251L17.3641 84.2491L17.3647 84.2488L17.6397 84.7251ZM77.5252 51.571L77.2503 52.0474L77.2497 52.0471L77.5252 51.571ZM77.5252 103.196L77.2502 102.72L77.2507 102.72L77.5252 103.196ZM20.1127 136.344L19.8375 135.868L19.8377 135.868L20.1127 136.344ZM17.6391 136.344L17.3648 136.821L17.3632 136.82L17.6391 136.344ZM16.4025 86.8666L15.8525 86.8666L15.8525 86.8662L16.4025 86.8666ZM73.8156 99.6266H74.3656V99.9442L74.0906 100.103L73.8156 99.6266ZM21.3493 129.918L21.6243 130.394L20.7993 130.87V129.918H21.3493ZM73.8156 57.9949L73.5406 57.5186L74.3656 57.0422V57.9949H73.8156ZM21.3493 88.2947H20.7993V87.9772L21.0742 87.8184L21.3493 88.2947ZM52.9212 164.756L52.6458 164.279L52.6462 164.279L52.9212 164.756ZM110.339 131.606L110.615 132.082L110.614 132.083L110.339 131.606ZM110.339 127.322L110.065 127.799L110.064 127.799L110.339 127.322ZM85.7265 113.119L85.4516 113.595L85.4515 113.595L85.7265 113.119ZM83.2535 113.119L82.9785 112.642L82.9788 112.642L83.2535 113.119ZM25.8417 146.259L26.1166 146.735L26.1163 146.735L25.8417 146.259ZM25.8417 150.543L25.5666 151.019L25.5662 151.019L25.8417 150.543ZM50.4475 164.756L50.7226 164.279L50.7239 164.28L50.4475 164.756ZM43.4852 155.022L43.7602 155.498L43.485 155.657L43.2099 155.498L43.4852 155.022ZM95.9515 124.729L96.2263 124.252L97.0519 124.728L96.2265 125.205L95.9515 124.729ZM40.2318 153.141L39.9565 153.617L39.1322 153.141L39.9568 152.665L40.2318 153.141ZM92.6963 122.851L92.4213 122.375L92.6961 122.216L92.971 122.375L92.6963 122.851ZM84.4906 118.116L84.2157 117.64L84.4906 117.481L84.7656 117.64L84.4906 118.116ZM32.0249 148.401L31.7499 148.878L30.9249 148.401L31.7499 147.925L32.0249 148.401ZM87.7483 119.997L88.0233 119.521L88.8484 119.997L88.0233 120.473L87.7483 119.997ZM35.2869 150.285L35.5619 150.761L35.2869 150.92L35.0119 150.761L35.2869 150.285ZM100.899 127.585L100.624 127.109L100.899 126.95L101.174 127.109L100.899 127.585ZM48.43 157.878L48.1548 158.354L47.3304 157.878L48.155 157.402L48.43 157.878ZM104.155 129.464L104.43 128.988L105.255 129.464L104.43 129.941L104.155 129.464ZM51.684 159.758L51.959 160.235L51.6839 160.394L51.4088 160.235L51.684 159.758ZM0.893116 74.8211C0.909231 74.8104 0.926665 74.7999 0.927926 74.7991C0.92875 74.7986 0.929975 74.7979 0.931242 74.7972C0.933723 74.7958 0.937282 74.7937 0.941827 74.7911C0.950957 74.7858 0.964502 74.778 0.98235 74.7676C1.01807 74.747 1.07123 74.7163 1.14126 74.6758C1.28134 74.5949 1.48899 74.4749 1.75972 74.3186C2.30117 74.0058 3.09495 73.5474 4.10501 72.9641C6.12512 71.7974 9.01034 70.1312 12.4723 68.132C19.3962 64.1336 28.6269 58.8031 37.8573 53.4728C47.0877 48.1426 56.3177 42.8126 63.2401 38.8151C66.7013 36.8164 69.5856 35.1508 71.6046 33.9849C72.6141 33.402 73.4073 32.944 73.9481 32.6317C74.2185 32.4755 74.4258 32.3558 74.5655 32.2751C74.6354 32.2348 74.6884 32.2042 74.7238 32.1837C74.7416 32.1735 74.755 32.1658 74.7639 32.1606C74.7684 32.158 74.7717 32.1561 74.774 32.1548C74.7751 32.1541 74.776 32.1536 74.7765 32.1533C74.7771 32.153 74.7774 32.1528 75.0524 32.6291C75.3274 33.1054 75.3272 33.1056 75.3266 33.1059C75.326 33.1062 75.3252 33.1067 75.3241 33.1074C75.3218 33.1087 75.3185 33.1106 75.314 33.1132C75.305 33.1183 75.2917 33.1261 75.2739 33.1363C75.2384 33.1568 75.1855 33.1874 75.1156 33.2277C74.9759 33.3084 74.7686 33.4281 74.4982 33.5843C73.9574 33.8966 73.1642 34.3546 72.1547 34.9375C70.1357 36.1034 67.2514 37.769 63.7902 39.7677C56.8678 43.7652 47.6378 49.0952 38.4074 54.4254C29.177 59.7557 19.9463 65.0861 13.0224 69.0846C9.56044 71.0838 6.67522 72.75 4.65513 73.9166C3.64508 74.5 2.85132 74.9584 2.30989 75.2711C2.03917 75.4275 1.83155 75.5474 1.69153 75.6283C1.62151 75.6687 1.56842 75.6994 1.5328 75.72C1.51498 75.7303 1.50159 75.738 1.49266 75.7432C1.48817 75.7458 1.48491 75.7477 1.48282 75.7489C1.48179 75.7495 1.48129 75.7498 1.48094 75.75C1.48103 75.7499 1.49786 75.7397 1.51393 75.7291L0.893116 74.8211ZM-0.549847 77.3953C-0.549101 76.3322 0.00857192 75.3487 0.921291 74.803L1.48575 75.7472C0.905307 76.0942 0.550627 76.7193 0.550152 77.3961L-0.549847 77.3953ZM-0.549847 153.142V77.3957H0.550153V153.142H-0.549847ZM0.962122 155.76C0.0250005 155.22 -0.549847 154.222 -0.549847 153.142H0.550153C0.550153 153.83 0.915887 154.464 1.51124 154.807L0.962122 155.76ZM58.3748 188.9L0.961725 155.76L1.51163 154.807L58.9247 187.947L58.3748 188.9ZM59.8863 189.305C59.3639 189.305 58.8408 189.169 58.3745 188.899L58.925 187.947C59.2212 188.118 59.5539 188.205 59.8863 188.205V189.305ZM61.3973 188.9C60.9299 189.169 60.4093 189.305 59.8863 189.305V188.205C60.2179 188.205 60.5495 188.119 60.8494 187.946L61.3973 188.9ZM118.299 156.054L61.3984 188.9L60.8484 187.947L117.749 155.102L118.299 156.054ZM118.632 149.839L118.574 155.583L117.474 155.572L117.532 149.828L118.632 149.839ZM59.6095 182.949L117.807 149.357L118.357 150.31L60.1594 183.902L59.6095 182.949ZM5.22244 151.238L60.1594 182.949L59.6094 183.902L4.67252 152.191L5.22244 151.238ZM4.94687 151.164H4.94748V152.264H4.94687V151.164ZM5.49687 81.5277V151.714H4.39687V81.5277H5.49687ZM7.94291 83.7574L4.68707 82.0125L5.20667 81.0429L8.46251 82.7878L7.94291 83.7574ZM7.65271 148.401V83.2726H8.75271V148.401H7.65271ZM9.16177 151.018C8.22759 150.477 7.65271 149.479 7.65271 148.401H8.75271C8.75271 149.086 9.11844 149.721 9.71303 150.066L9.16177 151.018ZM58.3728 179.437L9.16235 151.018L9.71246 150.065L58.9229 178.485L58.3728 179.437ZM59.8863 179.842C59.3632 179.842 58.8409 179.706 58.3742 179.438L58.9216 178.484C59.2211 178.656 59.5546 178.742 59.8863 178.742V179.842ZM61.3968 179.438C60.9301 179.705 60.4098 179.842 59.8863 179.842V178.742C60.2174 178.742 60.5493 178.656 60.85 178.484L61.3968 179.438ZM118.394 146.524L61.3984 179.437L60.8483 178.485L117.844 145.571L118.394 146.524ZM118.69 143.961L118.669 146.053L117.569 146.042L117.59 143.95L118.69 143.961ZM136.257 133.689L118.424 144.426L117.857 143.484L135.689 132.746L136.257 133.689ZM135.214 131.576C135.786 131.908 136.225 132.411 136.478 133L135.468 133.435C135.306 133.06 135.027 132.739 134.662 132.528L135.214 131.576ZM87.2389 103.878L135.213 131.576L134.663 132.528L86.6889 104.831L87.2389 103.878ZM87.5207 39.5111L87.5139 104.354L86.4139 104.354L86.4207 39.511L87.5207 39.5111ZM86.0142 36.8951C86.9479 37.4345 87.5229 38.4331 87.5207 39.5122L86.4207 39.5099C86.4221 38.8244 86.0566 38.19 85.464 37.8476L86.0142 36.8951ZM85.9272 36.8545L85.9321 36.8564L85.546 37.8864L85.5411 37.8845L85.9272 36.8545ZM86.2842 37.3677V37.3695H85.1842V37.3677H86.2842ZM77.8004 32.1528L86.0091 36.8914L85.4592 37.844L77.2505 33.1055L77.8004 32.1528ZM74.7768 32.1532C75.7117 31.6117 76.8656 31.6118 77.8009 32.1531L77.25 33.1052C76.6553 32.7611 75.9219 32.7612 75.328 33.1051L74.7768 32.1532ZM76.564 38.1037L7.83433 77.7934L7.28424 76.8409L76.0139 37.1511L76.564 38.1037ZM79.2619 39.9776L76.0141 38.1038L76.5638 37.151L79.8116 39.0248L79.2619 39.9776ZM10.3625 78.489L79.2634 39.024L79.8102 39.9785L10.9092 79.4435L10.3625 78.489ZM7.81912 76.8324L10.8957 78.4815L10.376 79.451L7.29944 77.8019L7.81912 76.8324ZM81.4678 104.354L81.4746 43.7762L82.5746 43.7763L82.5678 104.354L81.4678 104.354ZM12.8744 143.64L81.7428 103.878L82.2928 104.831L13.4244 144.593L12.8744 143.64ZM13.6994 83.2259V144.116H12.5994V83.2259H13.6994ZM82.2979 44.2535L13.4228 83.7032L12.8761 82.7487L81.7512 43.299L82.2979 44.2535ZM84.7659 109.115L15.8963 148.878L15.3462 147.925L84.2159 108.162L84.7659 109.115ZM128.48 134.672L84.2159 109.115L84.7659 108.162L129.03 133.72L128.48 134.672ZM108.822 145.071L128.48 133.72L129.03 134.672L109.372 146.023L108.822 145.071ZM102.407 141.049L109.372 145.071L108.822 146.023L101.857 142.001L102.407 141.049ZM99.3834 141.049C100.319 140.508 101.473 140.508 102.408 141.049L101.856 142.001C101.262 141.657 100.529 141.657 99.9343 142.001L99.3834 141.049ZM74.7761 155.261L99.3838 141.049L99.9339 142.001L75.3262 156.213L74.7761 155.261ZM73.2647 157.88C73.2647 156.8 73.8417 155.802 74.7755 155.261L75.3268 156.213C74.7319 156.557 74.3647 157.194 74.3647 157.88H73.2647ZM74.7766 160.498C73.8408 159.959 73.2647 158.958 73.2647 157.88H74.3647C74.3647 158.566 74.7316 159.202 75.3258 159.545L74.7766 160.498ZM79.2686 163.09L74.7762 160.498L75.3261 159.545L79.8185 162.138L79.2686 163.09ZM59.61 173.489L79.2685 162.138L79.8186 163.09L60.1601 174.442L59.61 173.489ZM15.8963 147.925L60.1601 173.489L59.61 174.442L15.3462 148.878L15.8963 147.925ZM84.214 159.281L103.877 147.925L104.427 148.878L84.7641 160.233L84.214 159.281ZM81.5087 157.402L84.764 159.281L84.2141 160.234L80.9589 158.355L81.5087 157.402ZM101.17 146.997L81.5089 158.355L80.9587 157.402L100.62 146.045L101.17 146.997ZM103.877 148.878L100.62 146.997L101.17 146.044L104.427 147.925L103.877 148.878ZM75.3272 52.0473L17.9147 85.2014L17.3647 84.2488L74.7771 51.0947L75.3272 52.0473ZM77.2497 52.0471C76.6551 51.703 75.9216 51.7031 75.3278 52.047L74.7765 51.0951C75.7114 50.5536 76.8653 50.5537 77.8006 51.095L77.2497 52.0471ZM78.2117 53.7131C78.2117 53.0249 77.845 52.3906 77.2503 52.0474L77.8001 51.0946C78.7353 51.6343 79.3117 52.6319 79.3117 53.7131H78.2117ZM78.2117 101.055V53.7131H79.3117V101.055H78.2117ZM77.2507 102.72C77.8444 102.378 78.2117 101.742 78.2117 101.055H79.3117C79.3117 102.135 78.7348 103.134 77.7997 103.673L77.2507 102.72ZM19.8377 135.868L77.2502 102.72L77.8002 103.673L20.3877 136.82L19.8377 135.868ZM18.8762 136.126C19.2096 136.126 19.5412 136.039 19.8375 135.868L20.388 136.82C19.9218 137.09 19.3999 137.226 18.8762 137.226V136.126ZM17.9134 135.867C18.2123 136.039 18.5449 136.126 18.8762 136.126V137.226C18.3541 137.226 17.8321 137.09 17.3648 136.821L17.9134 135.867ZM16.9525 134.203C16.9525 134.888 17.3193 135.523 17.915 135.868L17.3632 136.82C16.4301 136.279 15.8525 135.282 15.8525 134.203H16.9525ZM16.9525 86.8666V134.203H15.8525V86.8666H16.9525ZM17.9153 85.201C17.3201 85.5457 16.953 86.1814 16.9525 86.867L15.8525 86.8662C15.8533 85.7873 16.4305 84.7898 17.3641 84.2491L17.9153 85.201ZM74.0906 100.103L21.6243 130.394L21.0743 129.441L73.5406 99.1503L74.0906 100.103ZM74.3656 57.9949V99.6266H73.2656V57.9949H74.3656ZM21.0742 87.8184L73.5406 57.5186L74.0907 58.4712L21.6243 88.771L21.0742 87.8184ZM20.7993 129.918V88.2947H21.8993V129.918H20.7993ZM53.1966 165.232C52.7279 165.503 52.2058 165.637 51.684 165.637V164.537C52.0169 164.537 52.3483 164.452 52.6458 164.279L53.1966 165.232ZM110.614 132.083L53.1962 165.232L52.6462 164.279L110.064 131.13L110.614 132.083ZM112.126 129.463C112.126 130.544 111.549 131.542 110.615 132.082L110.064 131.13C110.659 130.786 111.026 130.151 111.026 129.463H112.126ZM110.614 126.846C111.549 127.385 112.126 128.383 112.126 129.463H111.026C111.026 128.776 110.659 128.141 110.065 127.799L110.614 126.846ZM86.0014 112.642L110.614 126.846L110.064 127.799L85.4516 113.595L86.0014 112.642ZM82.9788 112.642C83.9143 112.103 85.0669 112.103 86.0016 112.642L85.4515 113.595C84.8574 113.252 84.1239 113.252 83.5282 113.595L82.9788 112.642ZM25.5667 145.782L82.9785 112.642L83.5284 113.595L26.1166 146.735L25.5667 145.782ZM24.0545 148.4C24.0545 147.321 24.6315 146.321 25.5671 145.782L26.1163 146.735C25.5218 147.078 25.1545 147.714 25.1545 148.4H24.0545ZM25.5662 151.019C24.6318 150.478 24.0545 149.481 24.0545 148.4H25.1545C25.1545 149.087 25.5216 149.722 26.1171 150.067L25.5662 151.019ZM50.1724 165.232L25.5666 151.019L26.1168 150.067L50.7226 164.279L50.1724 165.232ZM51.684 165.637C51.1641 165.637 50.6391 165.503 50.1711 165.231L50.7239 164.28C51.0185 164.451 51.3518 164.537 51.684 164.537V165.637ZM43.2102 154.545L95.6765 124.252L96.2265 125.205L43.7602 155.498L43.2102 154.545ZM40.507 152.665L43.7604 154.546L43.2099 155.498L39.9565 153.617L40.507 152.665ZM92.9713 123.328L40.5068 153.617L39.9568 152.665L92.4213 122.375L92.9713 123.328ZM95.6767 125.205L92.4215 123.328L92.971 122.375L96.2263 124.252L95.6767 125.205ZM84.7656 118.593L32.2999 148.878L31.7499 147.925L84.2157 117.64L84.7656 118.593ZM87.4733 120.473L84.2156 118.593L84.7656 117.64L88.0233 119.521L87.4733 120.473ZM35.0119 149.809L87.4733 119.521L88.0233 120.473L35.5619 150.761L35.0119 149.809ZM32.2999 147.925L35.5619 149.809L35.0119 150.761L31.7499 148.878L32.2999 147.925ZM101.174 128.061L48.705 158.354L48.155 157.402L100.624 127.109L101.174 128.061ZM103.88 129.941L100.624 128.061L101.174 127.109L104.43 128.988L103.88 129.941ZM51.409 159.282L103.88 128.988L104.43 129.941L51.959 160.235L51.409 159.282ZM48.7052 157.402L51.9592 159.282L51.4088 160.235L48.1548 158.354L48.7052 157.402Z" fill="#747A95" mask="url(#path-7-inside-1)"/>
<path d="M55.7781 80.4749C55.7781 84.092 53.8731 88.2931 51.1629 91.1925V107.12L48.4948 112.467L45.2292 109.024L46.8775 105.788L45.2292 104.456L46.8775 101.22L45.2292 99.888L45.2292 94.6184C42.519 94.8484 40.6141 92.8469 40.6141 89.2298C40.614 84.3946 44.0086 78.515 48.1961 76.0974C52.3835 73.6798 55.7781 75.6397 55.7781 80.4749ZM50.174 81.0458C50.174 79.7845 49.2884 79.2732 48.196 79.9039C47.1037 80.5346 46.2181 82.0684 46.2181 83.3298C46.2181 84.5911 47.1037 85.1024 48.196 84.4717C49.2884 83.841 50.174 82.3072 50.174 81.0458Z" fill="white"/>
<path d="M132.243 152.76L117.527 143.954L189.668 100.938L204.918 109.747L132.243 152.76Z" stroke="white" stroke-width="5" stroke-linejoin="round"/>
<path d="M117.526 220.953V144.261L132.469 152.916L131.878 229.218L117.526 220.953Z" stroke="white" stroke-width="5" stroke-linejoin="round"/>
<path d="M132.009 229.065V153.202L204.92 109.744V187.087L132.009 229.065Z" stroke="white" stroke-width="5" stroke-linejoin="round"/>
<path fill-rule="evenodd" clip-rule="evenodd" d="M170.424 169.27V178.392L166.505 180.724V171.602C166.505 170.342 167.382 168.799 168.464 168.155C169.547 167.511 170.424 168.01 170.424 169.27ZM154.746 171.756L158.665 169.424L160.625 168.258L164.545 165.926L166.505 164.76L172.384 161.263V154.421C172.384 151.901 170.63 150.904 168.464 152.192C166.299 153.481 164.545 156.565 164.545 159.085V165.926L160.625 168.258V161.417C160.625 156.38 164.135 150.207 168.464 147.631C172.794 145.056 176.304 147.052 176.304 152.089V158.931L182.183 155.433V178.237L154.746 194.561V171.756Z" fill="white"/>
<path fill-rule="evenodd" clip-rule="evenodd" d="M472.575 171.045V180.167L476.495 182.499V173.377C476.495 172.118 475.618 170.575 474.535 169.931C473.453 169.287 472.575 169.786 472.575 171.045ZM488.254 173.532L484.334 171.2L482.374 170.034L478.455 167.702L476.495 166.536L470.615 163.038V156.197C470.615 153.677 472.37 152.679 474.535 153.968C476.701 155.256 478.455 158.341 478.455 160.86V167.702L482.374 170.034V163.192C482.374 158.155 478.864 151.982 474.535 149.407C470.206 146.831 466.696 148.827 466.696 153.865V160.706L460.816 157.208V180.012L488.254 196.336V173.532Z" fill="white"/>
<path d="M510.757 153.577L525.473 144.771L453.333 101.755L438.083 110.564L510.757 153.577Z" stroke="white" stroke-width="5" stroke-linejoin="round"/>
<path d="M525.473 221.77V145.077L510.531 153.733L511.122 230.035L525.473 221.77Z" stroke="white" stroke-width="5" stroke-linejoin="round"/>
<path d="M510.991 229.881V154.018L438.079 110.561V187.904L510.991 229.881Z" stroke="white" stroke-width="5" stroke-linejoin="round"/>
<path d="M171.045 206.252L224.817 237.276" stroke="white" stroke-width="3" stroke-linejoin="round"/>
<path d="M470.801 206.252L413.611 239.732" stroke="white" stroke-width="3" stroke-linejoin="round"/>
<path d="M555.301 154.834L525.375 172.358" stroke="white" stroke-width="3" stroke-linejoin="round"/>
<path d="M98.6255 164.084L117.125 174.608" stroke="white" stroke-width="3" stroke-linejoin="round"/>
<path d="M582.508 77.6668L543.669 55.2437C543.13 54.9324 542.467 54.9324 541.93 55.2437L536.388 58.4496H536.387C535.849 58.7609 535.519 59.3332 535.519 59.9545V143.227C535.519 143.848 535.85 144.421 536.388 144.731L575.216 167.156C575.485 167.311 575.785 167.388 576.085 167.388C576.385 167.388 576.954 167.156 576.954 167.156L582.502 163.951C583.039 163.642 583.371 163.068 583.371 162.447L583.375 79.1726C583.377 78.5513 583.046 77.9777 582.508 77.6668ZM542.801 58.7552L578.164 79.1726L576.092 80.3684L540.731 59.9537L542.801 58.7552ZM574.353 92.1503L538.995 71.7351V62.9635L574.354 83.3787L574.353 92.1503ZM538.995 75.7482L574.353 96.1629L574.35 149.83L538.995 129.417V75.7482V75.7482ZM538.995 142.223V133.43L574.35 153.843V162.641L538.995 142.223ZM577.825 162.64L577.829 83.3787L579.902 82.1816L579.897 161.443L577.825 162.64Z" fill="white"/>
<path d="M553.033 77.4745L558.581 80.6724C558.855 80.8296 559.152 80.9043 559.447 80.9043C560.048 80.9043 560.633 80.5916 560.954 80.0343C561.433 79.2028 561.148 78.1404 560.316 77.6608L554.769 74.4629C553.937 73.9847 552.875 74.2695 552.396 75.101C551.916 75.9329 552.202 76.9954 553.033 77.4745Z" fill="white"/>
<path d="M549.093 98.617C549.093 102.234 550.998 106.435 553.708 109.335V125.262L556.376 130.609L559.642 127.166L557.993 123.93L559.642 122.598L557.993 119.362L559.642 118.03L559.642 112.76C562.352 112.99 564.257 110.989 564.257 107.372C564.257 102.537 560.862 96.6571 556.675 94.2395C552.487 91.8219 549.093 93.7818 549.093 98.617ZM554.697 99.1879C554.697 97.9266 555.582 97.4153 556.675 98.046C557.767 98.6767 558.653 100.21 558.653 101.472C558.653 102.733 557.767 103.244 556.675 102.614C555.582 101.983 554.697 100.449 554.697 99.1879Z" fill="white"/>
<path d="M321.551 273.02L413.185 219.759" stroke="white" stroke-width="5"/>
<path d="M320.937 273.02L224.816 217.399" stroke="white" stroke-width="5"/>
<path d="M320.937 309.305L224.816 253.684" stroke="white" stroke-width="5"/>
<path d="M334.588 254.285C338.575 251.913 341.675 246.46 341.675 241.821C341.675 237.182 338.575 235.419 334.588 237.791C330.601 240.163 327.5 245.615 327.5 250.254C327.5 254.636 330.601 256.657 334.588 254.285ZM334.588 242.687C336.138 241.765 337.246 242.395 337.246 244.199C337.246 246.003 336.138 247.95 334.588 248.873C333.037 250.053 331.93 249.165 331.93 247.619C331.93 245.815 333.037 243.61 334.588 242.687Z" fill="white"/>
<path d="M382.429 216.03L385.53 214.185C386.858 213.394 387.744 211.836 387.744 210.29C387.744 208.744 386.858 208.24 385.53 209.031L382.429 210.875C381.1 211.666 380.214 213.224 380.214 214.77C380.214 216.317 381.321 216.689 382.429 216.03Z" fill="white"/>
<path d="M392.175 210.231L395.276 208.386C396.605 207.596 397.491 206.038 397.491 204.491C397.491 202.945 396.605 202.441 395.276 203.232L392.175 205.077C390.846 205.867 389.96 207.425 389.96 208.971C389.96 210.518 391.068 210.89 392.175 210.231Z" fill="white"/>
<path d="M401.92 204.433L405.021 202.589C406.35 201.798 407.236 200.24 407.236 198.694C407.236 197.147 406.35 196.644 405.021 197.434L401.92 199.279C400.591 200.07 399.705 201.628 399.705 203.174C399.705 204.72 400.591 205.224 401.92 204.433Z" fill="white"/>
<path d="M382.429 225.05L385.53 223.205C386.858 222.414 387.744 220.856 387.744 219.31C387.744 217.764 386.858 217.26 385.53 218.05L382.429 219.895C381.1 220.686 380.214 222.244 380.214 223.79C380.214 225.336 381.321 225.708 382.429 225.05Z" fill="white"/>
<path d="M392.175 219.252L395.276 217.407C396.605 216.616 397.491 215.058 397.491 213.512C397.491 211.965 396.605 211.462 395.276 212.252L392.175 214.097C390.846 214.888 389.96 216.446 389.96 217.992C389.96 219.538 391.068 219.91 392.175 219.252Z" fill="white"/>
<path d="M401.92 213.453L405.021 211.609C406.35 210.818 407.236 209.26 407.236 207.714C407.236 206.167 406.35 205.664 405.021 206.454L401.92 208.299C400.591 209.09 399.705 210.648 399.705 212.194C399.705 213.74 400.591 214.244 401.92 213.453Z" fill="white"/>
<path d="M321.551 308.956L413.185 255.695" stroke="white" stroke-width="5"/>
<path d="M334.588 291.236C338.575 288.865 341.675 283.412 341.675 278.773C341.675 274.134 338.575 272.37 334.588 274.742C330.601 277.114 327.5 282.567 327.5 287.206C327.5 291.587 330.601 293.608 334.588 291.236ZM334.588 279.639C336.138 278.717 337.246 279.346 337.246 281.15C337.246 282.954 336.138 284.902 334.588 285.824C333.037 287.004 331.93 286.117 331.93 284.571C331.93 282.767 333.037 280.561 334.588 279.639Z" fill="white"/>
<path d="M382.429 252.981L385.53 251.136C386.858 250.346 387.744 248.788 387.744 247.242C387.744 245.695 386.858 245.191 385.53 245.982L382.429 247.827C381.1 248.617 380.214 250.175 380.214 251.722C380.214 253.268 381.321 253.64 382.429 252.981Z" fill="white"/>
<path d="M392.175 247.182L395.276 245.338C396.605 244.547 397.491 242.989 397.491 241.443C397.491 239.896 396.605 239.393 395.276 240.183L392.175 242.028C390.846 242.819 389.96 244.377 389.96 245.923C389.96 247.469 391.068 247.841 392.175 247.182Z" fill="white"/>
<path d="M401.92 241.385L405.021 239.54C406.35 238.749 407.236 237.191 407.236 235.645C407.236 234.099 406.35 233.595 405.021 234.386L401.92 236.23C400.591 237.021 399.705 238.579 399.705 240.125C399.705 241.672 400.591 242.175 401.92 241.385Z" fill="white"/>
<path d="M382.429 262.001L385.53 260.156C386.858 259.366 387.744 257.808 387.744 256.261C387.744 254.715 386.858 254.211 385.53 255.002L382.429 256.847C381.1 257.637 380.214 259.195 380.214 260.742C380.214 262.288 381.321 262.66 382.429 262.001Z" fill="white"/>
<path d="M392.175 256.203L395.276 254.358C396.605 253.568 397.491 252.01 397.491 250.463C397.491 248.917 396.605 248.413 395.276 249.204L392.175 251.049C390.846 251.839 389.96 253.397 389.96 254.943C389.96 256.49 391.068 256.862 392.175 256.203Z" fill="white"/>
<path d="M401.92 250.405L405.021 248.56C406.35 247.77 407.236 246.212 407.236 244.665C407.236 243.119 406.35 242.615 405.021 243.406L401.92 245.251C400.591 246.041 399.705 247.599 399.705 249.146C399.705 250.692 400.591 251.196 401.92 250.405Z" fill="white"/>
<path d="M334.588 327.923C338.575 325.551 341.676 320.098 341.676 315.459C341.676 310.821 338.575 309.057 334.588 311.429C330.601 313.801 327.5 319.254 327.5 323.893C327.5 328.274 330.601 330.295 334.588 327.923ZM334.588 316.326C336.138 315.403 337.246 316.033 337.246 317.837C337.246 319.641 336.138 321.589 334.588 322.511C333.038 323.691 331.93 322.804 331.93 321.257C331.93 319.453 333.038 317.248 334.588 316.326Z" fill="white"/>
<path d="M382.429 289.668L385.53 287.823C386.859 287.033 387.745 285.475 387.745 283.928C387.745 282.382 386.859 281.878 385.53 282.669L382.429 284.514C381.1 285.304 380.214 286.862 380.214 288.409C380.214 289.955 381.322 290.327 382.429 289.668Z" fill="white"/>
<path d="M392.175 283.869L395.276 282.025C396.605 281.234 397.491 279.676 397.491 278.13C397.491 276.583 396.605 276.08 395.276 276.87L392.175 278.715C390.846 279.506 389.96 281.064 389.96 282.61C389.96 284.156 391.068 284.528 392.175 283.869Z" fill="white"/>
<path d="M401.92 278.072L405.021 276.227C406.35 275.436 407.236 273.878 407.236 272.332C407.236 270.786 406.35 270.282 405.021 271.073L401.92 272.917C400.592 273.708 399.706 275.266 399.706 276.812C399.706 278.359 400.592 278.862 401.92 278.072Z" fill="white"/>
<path d="M382.429 298.688L385.53 296.843C386.859 296.053 387.745 294.495 387.745 292.948C387.745 291.402 386.859 290.898 385.53 291.689L382.429 293.534C381.1 294.324 380.214 295.882 380.214 297.429C380.214 298.975 381.322 299.347 382.429 298.688Z" fill="white"/>
<path d="M392.175 292.89L395.276 291.045C396.605 290.254 397.491 288.696 397.491 287.15C397.491 285.604 396.605 285.1 395.276 285.89L392.175 287.735C390.846 288.526 389.96 290.084 389.96 291.63C389.96 293.177 391.068 293.549 392.175 292.89Z" fill="white"/>
<path d="M401.92 287.092L405.021 285.247C406.35 284.456 407.236 282.898 407.236 281.352C407.236 279.806 406.35 279.302 405.021 280.093L401.92 281.937C400.592 282.728 399.706 284.286 399.706 285.832C399.706 287.379 400.592 287.882 401.92 287.092Z" fill="white"/>
<path d="M290.454 230.151L288.572 234.273L286.782 228.06L284.012 228.237L287.336 234.861L282.116 231.078L282.084 234.67L287.063 236.746L283.812 239.277L286.524 242.678L288.586 238.424L290.324 244.754L293.094 244.489L289.97 238.424L294.833 242.03L294.866 238.35L289.784 236.275L293.191 233.566L290.454 230.151Z" fill="white"/>
<path d="M275.165 221.324L273.283 225.446L271.493 219.233L268.724 219.41L272.048 226.034L266.827 222.251L266.795 225.843L271.775 227.919L268.523 230.451L271.235 233.851L273.297 229.597L275.035 235.927L277.805 235.662L274.681 229.597L279.544 233.204L279.577 229.523L274.496 227.448L277.903 224.739L275.165 221.324Z" fill="white"/>
<path d="M259.876 212.497L257.994 216.619L256.204 210.406L253.435 210.583L256.759 217.207L251.539 213.424L251.507 217.016L256.486 219.092L253.234 221.624L255.946 225.024L258.009 220.77L259.746 227.1L262.517 226.835L259.393 220.77L264.256 224.377L264.288 220.696L259.207 218.621L262.614 215.912L259.876 212.497Z" fill="white"/>
<path d="M290.148 266.058L288.266 270.18L286.477 263.967L283.707 264.144L287.031 270.768L281.811 266.985L281.779 270.577L286.758 272.653L283.506 275.184L286.218 278.585L288.281 274.331L290.018 280.661L292.789 280.396L289.665 274.331L294.528 277.937L294.561 274.257L289.479 272.182L292.886 269.473L290.148 266.058Z" fill="white"/>
<path d="M274.86 257.231L272.978 261.353L271.188 255.14L268.418 255.317L271.742 261.941L266.522 258.158L266.49 261.75L271.469 263.826L268.217 266.357L270.929 269.758L272.992 265.504L274.73 271.834L277.5 271.569L274.376 265.504L279.239 269.11L279.272 265.43L274.19 263.355L277.597 260.646L274.86 257.231Z" fill="white"/>
<path d="M259.571 248.404L257.689 252.526L255.899 246.313L253.129 246.49L256.454 253.114L251.233 249.331L251.201 252.923L256.18 254.999L252.929 257.531L255.641 260.931L257.703 256.677L259.441 263.007L262.211 262.742L259.087 256.677L263.95 260.284L263.983 256.603L258.901 254.528L262.308 251.819L259.571 248.404Z" fill="white"/>
<path d="M290.143 301.828L288.261 305.949L286.471 299.737L283.702 299.914L287.026 306.538L281.806 302.755L281.774 306.347L286.753 308.422L283.501 310.954L286.213 314.355L288.276 310.101L290.013 316.43L292.784 316.166L289.66 310.101L294.523 313.707L294.555 310.027L289.474 307.951L292.881 305.243L290.143 301.828Z" fill="white"/>
<path d="M274.855 293.001L272.973 297.122L271.183 290.91L268.413 291.087L271.737 297.711L266.517 293.928L266.485 297.52L271.464 299.595L268.212 302.127L270.924 305.528L272.987 301.274L274.725 307.603L277.495 307.339L274.371 301.274L279.234 304.88L279.267 301.2L274.185 299.124L277.592 296.416L274.855 293.001Z" fill="white"/>
<path d="M259.566 284.174L257.684 288.295L255.894 282.083L253.124 282.26L256.448 288.884L251.228 285.101L251.196 288.693L256.175 290.768L252.924 293.3L255.636 296.701L257.698 292.447L259.436 298.777L262.206 298.512L259.082 292.447L263.945 296.053L263.978 292.373L258.896 290.297L262.303 287.589L259.566 284.174Z" fill="white"/>
</svg>
