<svg width="141" height="144" viewBox="0 0 141 144" fill="none" xmlns="http://www.w3.org/2000/svg">
<path fill-rule="evenodd" clip-rule="evenodd" d="M0.805176 72.5257C0.805176 32.7604 33.176 0.52417 72.9413 0.52417C72.9922 0.52417 73.0431 0.524223 73.094 0.524328V74.9715H0.846105C0.818891 74.1596 0.805176 73.3443 0.805176 72.5257Z" fill="#31B5CB"/>
<mask id="mask0_2160:942" style="mask-type:alpha" maskUnits="userSpaceOnUse" x="4" y="5" width="137" height="135">
<rect x="4.80518" y="5.02417" width="136" height="134" rx="67" fill="#BAEAF8"/>
</mask>
<g mask="url(#mask0_2160:942)">
<rect x="5.80518" y="6.02417" width="134" height="132" rx="66" fill="white" stroke="#E4F9FF" stroke-width="2"/>
<path fill-rule="evenodd" clip-rule="evenodd" d="M72.0345 5.28424L72.9413 5.28421V74.9716H5.13204C5.09572 74.066 5.07739 73.1558 5.07739 72.2414C5.07739 35.262 35.0551 5.28424 72.0345 5.28424ZM71.9554 139.198C71.9818 139.198 72.0081 139.199 72.0345 139.199H73.848L73.9126 139.198L73.094 139.198L72.9413 139.198L71.9554 139.198Z" fill="#E4F9FF"/>
</g>
<mask id="mask1_2160:942" style="mask-type:alpha" maskUnits="userSpaceOnUse" x="-6" y="-5" width="81" height="81">
<path d="M64.8052 70.0242H69.8052V65.0242V5.08411C69.8052 2.28334 67.5335 0.0241699 64.7452 0.0241699C28.9193 0.0241699 -0.194824 29.0656 -0.194824 64.9044C-0.194824 67.7319 2.09731 70.0242 4.92493 70.0242H64.8052Z" fill="#E4F9FF" stroke="#3B5ADC" stroke-width="10"/>
</mask>
<g mask="url(#mask1_2160:942)">
<circle cx="72.8052" cy="74.0242" r="41" fill="white"/>
</g>
<path d="M95.7599 101.967L95.7599 127.366L118.525 112.126L118.525 94.6296L111.752 97.2636L106.108 93.1246L95.7599 101.967Z" fill="white"/>
<path fill-rule="evenodd" clip-rule="evenodd" d="M67.8776 91.1807C67.8263 91.0827 67.7983 90.9558 67.7995 90.8036L67.8206 88.2315C67.8323 86.8105 68.3286 85.159 69.2005 83.6404C70.0723 82.1217 71.2482 80.8604 72.4695 80.1338L77.0744 77.3941C77.4815 77.1521 77.8703 77.1081 78.1554 77.2718L83.6348 80.4175C83.6828 80.4451 83.7237 80.4819 83.7577 80.5264L90.8309 76.3183C91.238 76.0761 91.6269 76.032 91.912 76.1957C92.1971 76.3593 92.3551 76.7174 92.3512 77.1911L92.2047 95.0514C92.2008 95.5251 92.0354 96.0756 91.7447 96.5818C91.4541 97.088 91.0622 97.5084 90.6551 97.7506L69.1654 110.536C68.7583 110.778 68.3694 110.822 68.0843 110.658C67.7992 110.495 67.6412 110.136 67.6451 109.663L67.7916 91.8025C67.7932 91.6056 67.8227 91.3955 67.8776 91.1807ZM79.4496 83.0895L76.659 81.4874C76.4993 81.3958 76.2816 81.4205 76.0537 81.5561L72.4402 83.7058C72.0331 83.948 71.6412 84.3685 71.3505 84.8747C71.0599 85.3809 70.8945 85.9314 70.8906 86.4051L70.876 88.1902L79.4496 83.0895ZM71.5891 105.539C71.1145 105.821 70.7334 105.603 70.7379 105.05L70.8387 92.7621C70.8432 92.2098 71.2317 91.5332 71.7063 91.2508L88.4072 81.3148C88.8818 81.0325 89.2629 81.2513 89.2584 81.8035L89.1576 94.0918C89.1531 94.6441 88.7646 95.3207 88.29 95.6031L71.5891 105.539Z" fill="#3B5ADC"/>
<path fill-rule="evenodd" clip-rule="evenodd" d="M91.0491 130.211L69.5595 142.996C69.1524 143.238 68.7635 143.282 68.4784 143.118C68.1932 142.955 68.0352 142.596 68.0391 142.123L68.1856 124.262C68.1873 124.066 68.2168 123.855 68.2716 123.641C68.2204 123.543 68.1923 123.416 68.1936 123.264L68.2147 120.691C68.2263 119.27 68.7227 117.619 69.5945 116.1C70.4664 114.582 71.6423 113.32 72.8636 112.594L77.4685 109.854C77.8756 109.612 78.2644 109.568 78.5494 109.732L84.0288 112.877C84.0768 112.905 84.1178 112.942 84.1517 112.986L91.2249 108.778C91.632 108.536 92.0209 108.492 92.306 108.656C92.5911 108.819 92.7491 109.177 92.7452 109.651L92.5987 127.511C92.5948 127.985 92.4294 128.536 92.1388 129.042C91.8482 129.548 91.4562 129.968 91.0491 130.211ZM71.27 120.65L79.8436 115.549L77.053 113.947C76.8934 113.856 76.6757 113.88 76.4477 114.016L72.8343 116.166C72.4272 116.408 72.0352 116.828 71.7446 117.335C71.454 117.841 71.2885 118.391 71.2846 118.865L71.27 120.65ZM71.1319 137.51C71.1274 138.063 71.5085 138.281 71.9831 137.999L88.684 128.063C89.1587 127.781 89.5471 127.104 89.5516 126.552L89.6524 114.263C89.657 113.711 89.2759 113.492 88.8012 113.775L72.1003 123.711C71.6257 123.993 71.2373 124.67 71.2327 125.222L71.1319 137.51Z" fill="#3B5ADC"/>
<path fill-rule="evenodd" clip-rule="evenodd" d="M118.61 113.988L97.12 126.773C96.7129 127.015 96.324 127.059 96.0389 126.896C95.7538 126.732 95.5958 126.374 95.5997 125.9L95.7462 108.04C95.7478 107.843 95.7773 107.633 95.8322 107.418C95.7809 107.32 95.7529 107.193 95.7541 107.041L95.7752 104.469C95.7869 103.048 96.2832 101.397 97.1551 99.8779C98.0269 98.3593 99.2028 97.0979 100.424 96.3713L105.029 93.6317C105.436 93.3896 105.825 93.3456 106.11 93.5094L111.589 96.6551C111.637 96.6826 111.678 96.7194 111.712 96.7639L118.785 92.5558C119.193 92.3136 119.581 92.2695 119.867 92.4332C120.152 92.5969 120.31 92.955 120.306 93.4287L120.159 111.289C120.155 111.763 119.99 112.313 119.699 112.819C119.409 113.326 119.017 113.746 118.61 113.988ZM98.8305 104.428L107.404 99.327L104.614 97.725C104.454 97.6333 104.236 97.658 104.008 97.7936L100.395 99.9434C99.9877 100.186 99.5957 100.606 99.3051 101.112C99.0145 101.618 98.8491 102.169 98.8452 102.643L98.8305 104.428ZM98.6925 121.288C98.688 121.84 99.069 122.059 99.5437 121.777L116.245 111.841C116.719 111.558 117.108 110.882 117.112 110.329L117.213 98.0411C117.218 97.4888 116.836 97.27 116.362 97.5524L99.6609 107.488C99.1863 107.771 98.7978 108.447 98.7933 109L98.6925 121.288Z" fill="#3B5ADC"/>
<path fill-rule="evenodd" clip-rule="evenodd" d="M95.4382 74.4025C95.387 74.3045 95.359 74.1776 95.3602 74.0254L95.3813 71.4533C95.393 70.0322 95.8893 68.3807 96.7612 66.8621C97.633 65.3435 98.8089 64.0822 100.03 63.3556L104.635 60.6159C105.042 60.3738 105.431 60.3298 105.716 60.4936L111.195 63.6393C111.243 63.6668 111.284 63.7036 111.318 63.7482L118.392 59.5401C118.799 59.2979 119.188 59.2538 119.473 59.4174C119.758 59.5811 119.916 59.9392 119.912 60.4129L119.765 78.2731C119.761 78.7468 119.596 79.2973 119.305 79.8035C119.015 80.3097 118.623 80.7302 118.216 80.9724L96.7261 93.7574C96.319 93.9996 95.9301 94.0437 95.645 93.88C95.3599 93.7163 95.2019 93.3583 95.2058 92.8846L95.3523 75.0243C95.3539 74.8274 95.3834 74.6172 95.4382 74.4025ZM107.01 66.3112L104.22 64.7092C104.06 64.6175 103.842 64.6422 103.614 64.7778L100.001 66.9276C99.5938 67.1698 99.2018 67.5903 98.9112 68.0965C98.6206 68.6027 98.4552 69.1532 98.4513 69.6269L98.4366 71.412L107.01 66.3112ZM99.1498 88.7608C98.6751 89.0432 98.294 88.8244 98.2986 88.2722L98.3994 75.9839C98.4039 75.4316 98.7923 74.755 99.267 74.4726L115.968 64.5366C116.442 64.2542 116.824 64.473 116.819 65.0253L116.718 77.3136C116.714 77.8658 116.325 78.5425 115.851 78.8248L99.1498 88.7608Z" fill="#31B5CB"/>
<path d="M78.419 99.6986C78.0119 99.9407 77.6231 99.9847 77.338 99.821L74.8993 98.4209C74.5669 98.23 74.5721 97.5969 74.9109 97.0067L75.8751 95.3272C76.2139 94.737 76.758 94.4133 77.0904 94.6042L77.8524 95.0416C78.1849 95.2325 78.729 94.9087 79.0678 94.3185L82.9438 87.5672C83.2826 86.977 83.8267 86.6533 84.1591 86.8441L85.1051 87.3872C85.4375 87.578 85.4323 88.2112 85.0935 88.8013L79.5085 98.5297C79.2179 99.0359 78.826 99.4563 78.419 99.6986Z" fill="#31B5CB"/>
<path d="M78.813 132.159C78.4059 132.401 78.0171 132.445 77.7321 132.281L75.2933 130.881C74.9609 130.69 74.9661 130.057 75.3049 129.467L76.2691 127.787C76.6079 127.197 77.1521 126.873 77.4845 127.064L78.2465 127.502C78.5789 127.692 79.123 127.369 79.4619 126.778L83.3378 120.027C83.6766 119.437 84.2208 119.113 84.5532 119.304L85.4991 119.847C85.8316 120.038 85.8264 120.671 85.4875 121.261L79.9025 130.99C79.612 131.496 79.2201 131.916 78.813 132.159Z" fill="#31B5CB"/>
<path d="M106.374 115.936C105.966 116.178 105.578 116.222 105.293 116.059L102.854 114.658C102.521 114.468 102.527 113.834 102.865 113.244L103.83 111.565C104.168 110.975 104.713 110.651 105.045 110.842L105.807 111.279C106.139 111.47 106.684 111.146 107.022 110.556L110.898 103.805C111.237 103.215 111.781 102.891 112.114 103.082L113.06 103.625C113.392 103.816 113.387 104.449 113.048 105.039L107.463 114.767C107.173 115.273 106.781 115.694 106.374 115.936Z" fill="#31B5CB"/>
<path d="M105.98 82.9203C105.572 83.1624 105.184 83.2064 104.899 83.0426L102.46 81.6426C102.127 81.4517 102.133 80.8186 102.471 80.2284L103.436 78.5489C103.774 77.9587 104.319 77.635 104.651 77.8258L105.413 78.2633C105.745 78.4541 106.29 78.1304 106.628 77.5402L110.504 70.7889C110.843 70.1987 111.387 69.8749 111.72 70.0658L112.666 70.6089C112.998 70.7997 112.993 71.4328 112.654 72.023L107.069 81.7514C106.778 82.2576 106.387 82.678 105.98 82.9203Z" fill="#31B5CB"/>
<path d="M122.033 34.3425L121.984 34.7957L122.43 34.7009C126.412 33.8539 129.799 34.9245 132.034 37.6769C134.283 40.4477 135.257 44.7901 134.713 49.962C134.17 55.1277 132.152 60.7386 129.015 65.7779C126.176 70.3391 122.599 74.1458 118.832 76.6537V70.9983C121.613 69.0656 124.203 66.1686 126.187 62.7619C127.287 60.874 128.461 58.5941 129.379 56.3208C130.295 54.0536 130.967 51.7664 131.04 49.8721C131.113 48.0027 130.894 46.1293 130.403 44.5046C129.913 42.8846 129.142 41.4837 128.087 40.5937C125.951 38.7917 122.965 39.3265 119.905 40.539L119.896 40.5431C119.543 40.6955 119.224 40.7436 118.956 40.707C118.693 40.6711 118.472 40.553 118.3 40.3581C118.125 40.1576 117.994 39.869 117.935 39.4956C117.875 39.1219 117.891 38.6829 117.989 38.2081L117.989 38.2056C119.025 32.9704 118.277 26.7485 116.549 23.2737C115.68 21.5263 114.557 20.2949 113.166 19.4902C111.781 18.6894 110.156 18.3254 108.299 18.2692C103.826 17.7543 100.493 20.6485 97.2989 23.4219L97.2474 23.4666C96.5553 24.0675 95.8683 24.664 95.1713 25.2279C91.1379 28.4916 87.5361 33.0927 84.9593 38.2629L84.9585 38.2644C84.5816 39.0306 84.0523 39.7064 83.4693 40.1766C82.882 40.6504 82.3073 40.8629 81.8486 40.8408L81.8415 40.8406C80.4506 40.8036 78.9353 41.2606 77.43 42.1432C75.9235 43.0266 74.4595 44.3169 73.1628 45.8951C71.8656 47.4739 70.7707 49.2983 69.9734 51.2088C69.1763 53.1188 68.6984 55.0628 68.5867 56.871L68.5866 56.8723C68.5481 57.539 68.3274 58.2878 67.95 58.9992C67.5729 59.71 67.068 60.3294 66.5195 60.7644C62.434 63.959 58.7797 68.5899 56.2134 73.8122C54.925 76.434 53.7893 79.9363 52.9985 83.3662C52.2084 86.7933 51.7556 90.1788 51.8491 92.5665C52.0363 97.3479 53.8921 100.554 56.8155 102.543C58.3115 103.561 60.1796 103.678 62.1412 103.346C63.9548 103.04 65.8924 102.344 67.7715 101.564L67.724 106.003C62.6079 108.317 57.9878 108.37 54.3678 106.285C50.6678 104.154 48.3088 99.8473 47.7693 94.0434C47.2298 88.2406 48.5511 81.3539 51.5202 74.5946C54.4886 67.837 58.9054 61.6595 63.9892 57.1464L64.0758 57.0696L64.0954 56.9556C64.5242 54.4633 65.3524 51.8739 66.5291 49.354C67.7057 46.8343 69.2032 44.4429 70.9252 42.3331C72.6473 40.223 74.5533 38.4443 76.519 37.1082C78.4853 35.7715 80.4611 34.9117 82.3184 34.571L82.4709 34.543L82.5467 34.4078C85.7188 28.749 89.8121 23.7707 94.3001 20.1052C98.7905 16.4376 103.455 14.2641 107.695 13.8275C111.923 13.392 115.541 14.7018 118.118 17.5704C120.703 20.4487 122.153 24.799 122.238 30.1004C122.26 31.4673 122.191 32.8854 122.033 34.3425Z" fill="#31B5CB"/>
</svg>
