<svg width="140" height="139" viewBox="0 0 140 139" fill="none" xmlns="http://www.w3.org/2000/svg">
<path fill-rule="evenodd" clip-rule="evenodd" d="M0 72.0016C0 32.2362 32.3708 0 72.1361 0C72.187 0 72.2379 5.28116e-05 72.2888 0.000158383V74.4474H0.0409289C0.0137156 73.6354 0 72.8201 0 72.0016Z" fill="#31B5CB"/>
<mask id="mask0_2129:726" style="mask-type:alpha" maskUnits="userSpaceOnUse" x="4" y="4" width="136" height="135">
<rect x="4.27222" y="4.76004" width="135.728" height="133.914" rx="66.9571" fill="#BAEAF8"/>
</mask>
<g mask="url(#mask0_2129:726)">
<rect x="5.27222" y="5.76004" width="133.728" height="131.914" rx="65.9571" fill="white" stroke="#E4F9FF" stroke-width="2"/>
<path fill-rule="evenodd" clip-rule="evenodd" d="M71.2293 4.76007L72.1361 4.76004V74.4474H4.32687C4.29055 73.5418 4.27222 72.6317 4.27222 71.7172C4.27222 34.7378 34.2499 4.76007 71.2293 4.76007ZM71.1502 138.674C71.1766 138.674 71.203 138.674 71.2293 138.674H73.0428L73.1075 138.674L72.2888 138.674L72.1361 138.674L71.1502 138.674Z" fill="#E4F9FF"/>
</g>
<mask id="mask1_2129:726" style="mask-type:alpha" maskUnits="userSpaceOnUse" x="-6" y="-6" width="81" height="82">
<path d="M64.6428 70.1306H69.6428V65.1306V4.82035C69.6428 2.01911 67.3706 -0.23996 64.5824 -0.23996C28.5523 -0.23996 -0.727783 28.967 -0.727783 65.0101C-0.727783 67.838 1.56465 70.1306 4.39272 70.1306H64.6428Z" fill="#E4F9FF" stroke="#3B5ADC" stroke-width="10"/>
</mask>
<g mask="url(#mask1_2129:726)">
<circle cx="71.9936" cy="73.7054" r="40.8808" fill="white"/>
</g>
<path d="M57.882 69.7105C57.9955 69.5696 58.1405 69.5434 58.1901 69.6547L59.988 73.6913C60.0613 73.8559 60.3149 73.7098 60.3886 73.4605L62.1865 67.3765C62.2358 67.2097 62.3786 67.0695 62.4919 67.0768L65.1879 67.2498C65.3064 67.2574 65.336 67.422 65.2493 67.5925L61.9324 74.121C61.807 74.368 61.9314 74.5579 62.1262 74.4168L67.2927 70.6774C67.422 70.5838 67.5364 70.6341 67.5364 70.7847V74.3058C67.5364 74.4575 67.4203 74.6412 67.2902 74.6955L62.4326 76.7234C62.2359 76.8055 62.1094 77.144 62.2376 77.2451L65.3652 79.7101C65.4523 79.7787 65.4251 79.9752 65.3085 80.1206L62.6355 83.4522C62.5232 83.5922 62.3792 83.6203 62.328 83.5121L60.3385 79.3101C60.2621 79.1486 60.0081 79.3004 59.9378 79.5495L58.1884 85.7541C58.1401 85.9252 57.9924 86.07 57.8775 86.0589L55.1843 85.7998C55.0674 85.7885 55.041 85.6218 55.1293 85.4524L58.1856 79.5896C58.316 79.3395 58.1891 79.1446 57.9912 79.2912L53.2602 82.7948C53.1299 82.8913 53.0134 82.8418 53.0134 82.6898V79.0742C53.0134 78.9218 53.1305 78.7373 53.2612 78.6838L58.233 76.65C58.4296 76.5695 58.5578 76.2309 58.4304 76.1283L55.125 73.4682C55.0387 73.3987 55.0666 73.2022 55.1833 73.0574L57.882 69.7105Z" fill="#3B5ADC"/>
<path d="M75.2982 59.6552C75.4118 59.5144 75.5568 59.4881 75.6064 59.5995L77.4042 63.6361C77.4775 63.8006 77.7311 63.6545 77.8048 63.4052L79.6027 57.3213C79.652 57.1544 79.7948 57.0143 79.9081 57.0215L82.6041 57.1945C82.7227 57.2021 82.7522 57.3668 82.6656 57.5373L79.3487 64.0658C79.2232 64.3127 79.3476 64.5026 79.5425 64.3616L84.7089 60.6221C84.8382 60.5285 84.9526 60.5788 84.9526 60.7294V64.2505C84.9526 64.4022 84.8366 64.5859 84.7064 64.6403L79.8489 66.6682C79.6521 66.7503 79.5256 67.0888 79.6538 67.1898L82.7815 69.6548C82.8685 69.7234 82.8414 69.9199 82.7247 70.0653L80.0518 73.397C79.9394 73.537 79.7955 73.565 79.7443 73.4568L77.7548 69.2549C77.6783 69.0934 77.4243 69.2451 77.354 69.4943L75.6046 75.6988C75.5564 75.8699 75.4087 76.0147 75.2937 76.0037L72.6005 75.7445C72.4836 75.7333 72.4572 75.5666 72.5455 75.3972L75.6018 69.5343C75.7322 69.2842 75.6053 69.0893 75.4074 69.2359L70.6765 72.7396C70.5461 72.8361 70.4297 72.7865 70.4297 72.6345V69.019C70.4297 68.8666 70.5468 68.682 70.6774 68.6286L75.6492 66.5947C75.8459 66.5143 75.974 66.1756 75.8466 66.0731L72.5412 63.4129C72.4549 63.3435 72.4828 63.147 72.5996 63.0021L75.2982 59.6552Z" fill="#3B5ADC"/>
<path d="M92.7144 49.6C92.828 49.4591 92.973 49.4329 93.0226 49.5442L94.8204 53.5808C94.8937 53.7454 95.1474 53.5992 95.221 53.35L97.019 47.266C97.0683 47.0992 97.2111 46.959 97.3243 46.9663L100.02 47.1392C100.139 47.1468 100.168 47.3115 100.082 47.482L96.7649 54.0105C96.6394 54.2574 96.7639 54.4473 96.9587 54.3063L102.125 50.5668C102.254 50.4732 102.369 50.5236 102.369 50.6741V54.1952C102.369 54.3469 102.253 54.5307 102.123 54.585L97.2651 56.6129C97.0684 56.695 96.9419 57.0335 97.0701 57.1345L100.198 59.5995C100.285 59.6681 100.258 59.8647 100.141 60.01L97.468 63.3417C97.3557 63.4817 97.2117 63.5097 97.1605 63.4015L95.171 59.1996C95.0946 59.0381 94.8405 59.1898 94.7703 59.439L93.0208 65.6436C92.9726 65.8147 92.8249 65.9595 92.7099 65.9484L90.0167 65.6892C89.8998 65.678 89.8735 65.5113 89.9618 65.3419L93.018 59.4791C93.1484 59.2289 93.0215 59.0341 92.8237 59.1806L88.0927 62.6843C87.9624 62.7808 87.8459 62.7312 87.8459 62.5792V58.9637C87.8459 58.8113 87.963 58.6267 88.0936 58.5733L93.0655 56.5394C93.2621 56.459 93.3902 56.1203 93.2628 56.0178L89.9575 53.3577C89.8711 53.2882 89.8991 53.0917 90.0158 52.9469L92.7144 49.6Z" fill="#3B5ADC"/>
<path fill-rule="evenodd" clip-rule="evenodd" d="M49.9481 63.6949L103.434 31.8739C106.757 29.8972 109.45 31.4288 109.45 35.2948V55.1124C110.624 54.6842 111.771 54.3563 112.888 54.1258V33.2497C112.888 27.1745 108.655 24.7677 103.434 27.8739L49.9481 59.6949C44.7271 62.8011 40.4946 70.244 40.4946 76.3191V125.737C40.4946 131.812 44.7271 134.219 49.9481 131.113L77.9825 114.434C77.627 113.345 77.3409 112.179 77.1292 110.942L49.9481 127.113C46.6256 129.089 43.9323 127.558 43.9323 123.692V74.2739C43.9323 70.4079 46.6256 65.6715 49.9481 63.6949Z" fill="#3B5ADC"/>
<path d="M82.5484 82.4375L79.9081 82.2681C79.7948 82.2609 79.652 82.401 79.6027 82.5678L77.8048 88.6518C77.7311 88.9011 77.4775 89.0472 77.4042 88.8826L75.6064 84.8461C75.5568 84.7347 75.4118 84.761 75.2982 84.9018L72.5996 88.2487C72.4828 88.3935 72.4549 88.59 72.5412 88.6595L75.8466 91.3197C75.974 91.4222 75.8459 91.7608 75.6492 91.8413L70.6774 93.8752C70.5468 93.9286 70.4297 94.1131 70.4297 94.2656V97.8811C70.4297 98.0331 70.5461 98.0827 70.6765 97.9861L75.4074 94.4825C75.6053 94.3359 75.7322 94.5308 75.6018 94.7809L72.5455 100.644C72.4572 100.813 72.4836 100.98 72.6005 100.991L75.2937 101.25C75.4087 101.261 75.5564 101.117 75.6046 100.945L77.354 94.7408C77.4243 94.4917 77.6783 94.34 77.7548 94.5015L77.9961 95.0111C78.4271 93.2015 78.959 91.3856 79.583 89.5788L79.5425 89.6081C79.3476 89.7492 79.2232 89.5593 79.3487 89.3123L80.5909 86.8673C81.1845 85.3762 81.8387 83.8966 82.5484 82.4375Z" fill="#31B5CB"/>
<path d="M57.882 94.9571C57.9955 94.8162 58.1405 94.79 58.1901 94.9013L59.988 98.9379C60.0613 99.1025 60.3149 98.9563 60.3886 98.7071L62.1865 92.6231C62.2358 92.4563 62.3786 92.3161 62.4919 92.3234L65.1879 92.4963C65.3064 92.5039 65.336 92.6686 65.2493 92.8391L61.9324 99.3676C61.807 99.6146 61.9314 99.8044 62.1262 99.6634L67.2927 95.924C67.422 95.8303 67.5364 95.8807 67.5364 96.0312V99.5523C67.5364 99.704 67.4203 99.8878 67.2902 99.9421L62.4326 101.97C62.2359 102.052 62.1094 102.391 62.2376 102.492L65.3652 104.957C65.4523 105.025 65.4251 105.222 65.3085 105.367L62.6355 108.699C62.5232 108.839 62.3792 108.867 62.328 108.759L60.3385 104.557C60.2621 104.395 60.0081 104.547 59.9378 104.796L58.1884 111.001C58.1401 111.172 57.9924 111.317 57.8775 111.306L55.1843 111.046C55.0674 111.035 55.041 110.868 55.1293 110.699L58.1856 104.836C58.316 104.586 58.1891 104.391 57.9912 104.538L53.2602 108.041C53.1299 108.138 53.0134 108.088 53.0134 107.936V104.321C53.0134 104.168 53.1305 103.984 53.2612 103.93L58.233 101.897C58.4296 101.816 58.5578 101.477 58.4304 101.375L55.125 98.7148C55.0387 98.6453 55.0666 98.4488 55.1833 98.304L57.882 94.9571Z" fill="#31B5CB"/>
<path d="M106.534 101.605V105.904L103.159 107.912V103.613L102.759 103.818C99.4984 105.49 96.9059 104.055 96.6939 100.411L100.085 98.3937C100.296 99.9775 101.566 100.6 103.137 99.6647L106.504 97.6616C108.164 96.6738 109.587 94.2448 109.587 92.241C109.587 90.309 108.226 89.4636 106.504 90.4881L103.137 92.4912C99.5484 94.6263 96.6289 92.9661 96.6289 88.7903C96.6289 84.7866 99.3045 79.9625 102.708 77.6586L103.108 77.3881V73.0888L106.483 71.081V75.3803L106.882 75.1754C110.143 73.5026 112.735 74.938 112.947 78.5818L109.556 80.5994C109.346 79.0156 108.076 78.3935 106.504 79.3284L103.137 81.3315C101.42 82.3529 100.055 84.7545 100.055 86.7521C100.055 88.6841 101.415 89.5295 103.137 88.505L106.504 86.5019C110.093 84.3668 113.012 86.0269 113.012 90.2028C113.012 94.2065 110.337 99.0306 106.933 101.335L106.534 101.605Z" fill="#31B5CB"/>
<path fill-rule="evenodd" clip-rule="evenodd" d="M81.0184 103.657C81.0184 88.3811 91.6922 69.611 104.821 61.8004C117.949 53.9897 128.623 60.0594 128.623 75.3357C128.623 90.6119 117.949 109.382 104.821 117.193C91.6922 125.003 81.0184 118.934 81.0184 103.657ZM120.457 95.4827L115.132 92.6012L112.841 96.8477L114.051 97.5373L114.05 97.5399L118.012 99.7937L117.64 100.364C114.149 105.714 109.668 110.382 104.821 113.266C93.5642 119.963 84.3932 114.748 84.3932 101.65C84.3932 96.0095 86.1132 89.7716 88.9266 84.0361L89.206 83.4666L92.7912 85.451L93.1893 85.6774L93.1919 85.6728L94.9506 86.6462L97.1077 82.2547L91.6379 79.1861L92.0014 78.629C95.4921 73.2786 99.9736 68.611 104.821 65.7273C116.077 59.0304 125.248 64.2455 125.248 77.3435C125.248 82.9835 123.528 89.2214 120.715 94.957L120.457 95.4827Z" fill="#31B5CB"/>
</svg>
